<svg width="99" height="110" viewBox="0 0 99 110" fill="none" xmlns="http://www.w3.org/2000/svg">
      <g style="opacity: 0.48">
        <path d="M1.109 100.78C2.189 100.744 3.432 101.489 2.818 102.736C2.601 103.176 2.081 103.254 1.635 103.373C2.63 103.6 3.268 104.173 2.919 105.35C2.81 105.721 2.495 105.914 2.147 106.058C0.859 106.085 -0.568 106.03 0.231 103.865C0.346 103.554 1.413 103.473 1.798 103.416C0.22 102.93 -0.339 102.034 1.109 100.78Z" fill="#BABABA" />
        <path d="M87.542 94.264C85.434 92.428 88.249 90.784 89.726 91.962C90.357 92.466 90.239 93.979 89.243 94.371C89.296 94.446 89.373 94.536 89.391 94.612C89.056 95.997 87.166 96.394 87.215 94.436L87.542 94.264Z" fill="#BABABA" />
        <path d="M87.542 94.264C88.135 94.276 88.659 94.265 89.243 94.371C89.296 94.446 89.373 94.536 89.391 94.612C89.056 95.997 87.166 96.394 87.215 94.436L87.542 94.264Z" fill="#BABABA" />
        <path d="M77.31 18.41C78.513 18.476 79.327 19.633 78.812 20.782C78.502 21.473 77.79 21.604 77.116 21.817C76.489 21.901 75.977 21.573 75.672 21.031C75.46 20.651 75.419 20.198 75.559 19.785C75.845 18.957 76.571 18.738 77.31 18.41Z" fill="#BABABA" />
        <path d="M68.154 19.377C69.476 19.271 70.414 20.373 69.915 21.651C69.658 22.311 69.088 22.475 68.477 22.711C67.412 22.872 66.381 22.002 66.509 20.88C66.576 20.294 67.657 19.704 68.154 19.377Z" fill="#BABABA" />
        <path d="M69.913 29.341C72.738 29.165 72.332 32.183 70.965 32.48C70.525 32.497 69.826 32.574 69.449 32.375C67.938 31.579 68.364 29.77 69.913 29.341Z" fill="#BABABA" />
        <path d="M78.101 28.575C79.58 28.495 80.981 28.274 80.623 30.559C80.546 31.049 80.338 31.293 79.915 31.547C79.069 31.668 78.114 31.813 77.532 31.032C76.941 30.239 77.327 29.087 78.101 28.575Z" fill="#BABABA" />
        <path d="M78.924 32.034C79.803 31.983 80.501 32.203 80.715 33.16C80.826 33.652 80.719 34.168 80.421 34.575C80.081 35.032 79.742 35.055 79.21 35.119C78.222 35.092 77.428 35.001 77.283 33.775C77.227 33.289 77.384 32.804 77.712 32.443C78.083 32.036 78.379 32.075 78.924 32.034Z" fill="#BABABA" />
        <path d="M19.046 35.481C19.329 35.46 20.111 35.394 20.348 35.471C21.776 35.937 21.852 37.919 20.496 38.546C19.491 38.619 18.578 38.661 18.129 37.568C17.784 36.728 18.175 35.772 19.046 35.481Z" fill="#BABABA" />
        <path d="M87.245 46.452C88.013 46.427 88.786 47.081 88.959 47.789C89.306 49.213 88.467 49.6 87.39 49.883C86.321 49.996 85.422 49.071 85.734 48.003C85.987 47.136 86.515 46.852 87.245 46.452Z" fill="#BABABA" />
        <path d="M69.474 32.787C70.357 32.738 71.141 32.691 71.775 33.433C72.516 34.3 72.004 35.232 71.201 35.784C68.884 36.382 67.641 34.255 69.474 32.787Z" fill="#BABABA" />
        <path d="M78.526 35.468C79.419 35.403 80.205 35.469 80.625 36.362C81.125 37.423 80.541 38.172 79.617 38.579C79.278 38.6 78.551 38.636 78.271 38.478C76.933 37.721 76.949 35.91 78.526 35.468Z" fill="#BABABA" />
        <path d="M19.177 32.037C19.645 31.997 20.158 31.942 20.614 32.104C21.769 32.516 21.688 34.781 20.543 35.06C19.945 35.078 19.426 35.16 18.867 34.903C17.617 34.328 17.837 32.346 19.177 32.037Z" fill="#BABABA" />
        <path d="M10.586 53.09C12.123 53.254 12.768 54.487 11.768 55.825C11.461 56.237 10.991 56.213 10.5 56.211C8.372 56.228 7.961 53.487 10.586 53.09Z" fill="#BABABA" />
        <path d="M66.284 16.59C66.939 16.556 67.767 16.837 68.035 17.446C68.623 18.778 67.564 19.48 66.614 19.929C66.043 19.967 65.28 19.754 64.992 19.21C64.314 17.933 65.313 17.191 66.284 16.59Z" fill="#BABABA" />
        <path d="M9.889 63.203C10.259 63.183 10.957 63.132 11.281 63.289C12.636 63.948 12.559 65.741 11.09 66.235C10.833 66.244 10.159 66.287 9.936 66.213C9.105 65.937 8.411 64.984 8.849 64.113C9.104 63.606 9.376 63.431 9.889 63.203Z" fill="#BABABA" />
        <path d="M18.953 28.575C19.833 28.509 20.419 28.41 21.155 29.04C21.991 29.756 21.576 30.949 20.849 31.581C20.628 31.599 20.406 31.612 20.184 31.621C18.179 31.691 17.459 30.005 18.953 28.575Z" fill="#BABABA" />
        <path d="M28.01 36.221C28.432 36.209 28.985 36.14 29.363 36.343C30.518 36.965 30.547 38.894 29.157 39.263C28.745 39.27 28.041 39.348 27.698 39.158C26.298 38.382 26.53 36.721 28.01 36.221Z" fill="#BABABA" />
        <path d="M26.31 9.872C28.066 10.262 29.33 12.636 26.854 13.508C25.707 13.353 25.191 12.705 24.789 11.679C25.209 10.87 25.539 10.374 26.31 9.872Z" fill="#BABABA" />
        <path d="M78.478 25.126C78.822 25.104 79.429 25.026 79.696 25.224C80.781 26.027 80.648 27.888 79.178 28.169C78.69 28.235 78.208 28.348 77.768 28.091C77.424 27.885 77.178 27.55 77.085 27.161C76.819 26.061 77.455 25.362 78.478 25.126Z" fill="#BABABA" />
        <path d="M31.813 16.884L31.894 16.883C33.989 16.834 34.918 19.015 32.831 20.36C32.343 20.351 31.498 19.989 31.181 19.642C30.154 18.518 31.01 17.547 31.813 16.884Z" fill="#BABABA" />
        <path d="M87.905 63.206C88.244 63.187 88.77 63.153 89.082 63.268C90.403 63.754 90.677 65.685 89.201 66.174C88.242 66.289 87.249 66.321 86.826 65.285C86.416 64.28 87.001 63.539 87.905 63.206Z" fill="#BABABA" />
        <path d="M69.772 36.221C70.279 36.198 70.735 36.156 71.209 36.381C72.358 36.926 72.324 38.819 71.061 39.187C70.361 39.219 69.079 39.396 68.763 38.643C68.312 37.565 68.808 36.656 69.772 36.221Z" fill="#BABABA" />
        <path d="M69.474 22.635C70.321 22.548 70.927 22.857 71.153 23.729C71.266 24.166 71.197 24.63 70.963 25.016C70.666 25.514 70.163 25.598 69.641 25.717C68.889 25.824 68.271 25.732 67.915 24.952C67.74 24.557 67.741 24.107 67.918 23.713C68.255 22.962 68.734 22.895 69.474 22.635Z" fill="#BABABA" />
        <path d="M78.276 38.913C78.975 38.872 79.227 38.79 79.902 39.05C81.019 39.481 80.973 41.552 79.942 41.854C78.585 41.895 76.979 42.19 77.448 40.076C77.577 39.493 77.759 39.216 78.276 38.913Z" fill="#BABABA" />
        <path d="M19.974 25.16C20.182 25.173 20.868 25.204 21.014 25.289C22.414 26.107 22.027 27.82 20.591 28.273C20.029 28.192 19.474 28.181 19.044 27.806C18.296 27.155 18.216 26.189 18.935 25.488C19.319 25.113 19.453 25.181 19.974 25.16Z" fill="#BABABA" />
        <path d="M87.537 66.549C88.198 66.516 89.461 66.38 89.854 66.989C90.365 67.782 90.146 68.803 89.461 69.386C89.106 69.448 88.404 69.551 88.066 69.493C86.454 69.213 86.282 67.398 87.537 66.549Z" fill="#BABABA" />
        <path d="M87.769 53.251C88.655 53.228 89.526 53.15 90.016 54.069C90.462 54.905 89.935 55.847 89.155 56.238C88.088 56.36 86.706 56.403 86.768 54.7C86.79 54.092 87.287 53.602 87.769 53.251Z" fill="#BABABA" />
        <path d="M78.191 21.773C79.089 21.843 79.707 22.024 79.903 22.999C80.143 24.199 79.445 24.63 78.478 24.839C77.091 25.07 76.187 24.279 76.697 22.816C76.928 22.152 77.57 21.988 78.191 21.773Z" fill="#BABABA" />
        <path d="M69.845 25.999C70.814 25.926 71.584 26.167 71.749 27.265C71.817 27.715 71.692 28.174 71.403 28.525C71.048 28.953 70.689 28.955 70.166 28.997C68.046 29.105 67.506 26.481 69.845 25.999Z" fill="#BABABA" />
        <path d="M72.221 9.905C73.28 9.829 73.839 10.809 74.274 11.637C73.79 12.518 73.436 12.757 72.611 13.255C70.877 13.732 69.773 11.297 72.221 9.905Z" fill="#BABABA" />
        <path d="M28.765 32.815C30.154 32.461 31.198 35.85 28.537 35.863C27.027 35.771 26.241 34.551 27.265 33.251C27.616 32.805 28.224 32.838 28.765 32.815Z" fill="#BABABA" />
        <path d="M34.253 14.391C35.396 14.449 36.601 15.796 36.066 16.933C35.844 17.406 35.441 17.769 34.949 17.942C33.895 17.877 32.661 16.727 33.027 15.6C33.25 14.915 33.669 14.72 34.253 14.391Z" fill="#BABABA" />
        <path d="M10.02 59.874C10.346 59.854 10.993 59.777 11.279 59.908C12.578 60.502 12.5 62.321 11.14 62.814C10.738 62.83 10.081 62.882 9.726 62.696C8.362 61.978 8.382 60.191 10.02 59.874Z" fill="#BABABA" />
        <path d="M11.259 46.331C13.382 46.542 14.116 48.893 12.056 49.833C9.595 49.13 9.222 48.103 11.259 46.331Z" fill="#BABABA" />
        <path d="M75.797 15.435C77.128 15.291 77.454 16.293 77.743 17.369C77.172 18.066 76.958 18.204 76.17 18.565C75.081 18.866 74.057 18.235 74.229 17.021C74.342 16.213 75.151 15.821 75.797 15.435Z" fill="#BABABA" />
        <path d="M30.024 19.545C31.989 19.891 33.396 21.69 31.259 22.93C28.866 22.904 28.172 21.133 30.024 19.545Z" fill="#BABABA" />
        <path d="M28.525 22.819C30.622 22.622 32.122 24.188 30.361 25.965C28.172 26.118 26.888 24.701 28.525 22.819Z" fill="#BABABA" />
        <path d="M55.026 9.809C55.133 9.797 55.242 9.788 55.351 9.783C57.55 9.691 57.89 11.666 56.385 13.008C55.472 13.252 55.13 13.069 54.341 12.641C54.117 11.476 54.083 10.649 55.026 9.809Z" fill="#BABABA" />
        <path d="M27.792 29.434C28.034 29.42 28.242 29.416 28.484 29.427C30.26 29.51 30.852 31.363 29.419 32.472C29.156 32.48 28.46 32.523 28.235 32.461C26.413 31.954 26.376 30.385 27.792 29.434Z" fill="#BABABA" />
        <path d="M18.951 38.9C20.858 38.828 21.248 38.999 21.381 40.915L21.326 41.028C21.117 41.456 21.053 41.703 20.628 41.848C19.959 41.861 19.34 41.844 18.671 41.823C17.886 40.716 17.764 39.774 18.951 38.9Z" fill="#BABABA" />
        <path d="M9.881 66.569C10.811 66.499 11.766 66.454 12.165 67.52C12.295 67.862 12.28 68.242 12.124 68.572C11.899 69.052 11.596 69.276 11.12 69.445C8.556 69.715 7.897 67.288 9.881 66.569Z" fill="#BABABA" />
        <path d="M63.845 14.215C64.447 14.19 65.266 14.326 65.613 14.84C66.444 16.071 65.255 16.991 64.452 17.544C62.926 17.954 61.639 15.661 63.845 14.215Z" fill="#BABABA" />
        <path d="M19.932 21.761C22.327 21.666 23.403 23.723 21.352 24.912C20.672 24.877 19.864 24.8 19.373 24.264C18.627 23.449 19.192 22.38 19.932 21.761Z" fill="#BABABA" />
        <path d="M10.259 49.714C12.605 49.96 12.98 52.161 11.255 52.775C10.668 52.782 10.033 52.863 9.533 52.523C8.33 51.707 8.901 49.999 10.259 49.714Z" fill="#BABABA" />
        <path d="M84.548 43.92C85.066 44.064 85.964 44.408 86.333 44.772C87.348 45.776 86.198 46.657 85.522 47.287C83.301 47.891 82.751 45.391 84.548 43.92Z" fill="#BABABA" />
        <path d="M44.625 70.664C45.598 70.618 45.925 70.847 46.694 71.392C46.911 72.591 46.929 73.363 45.669 73.846C44.917 73.747 44.1 73.593 43.654 72.913C43.462 72.62 43.406 72.258 43.501 71.921C43.674 71.318 44.118 70.97 44.625 70.664Z" fill="#BABABA" />
        <path d="M51.792 9.243C51.861 9.238 51.93 9.234 52 9.231C52.63 9.205 53.248 9.238 53.728 9.701C54.489 10.436 53.986 11.803 53.33 12.438C50.789 12.877 50.361 10.746 51.792 9.243Z" fill="#BABABA" />
        <path d="M58.497 10.755C59.752 10.981 61.018 11.463 60.204 13.081C60.001 13.484 59.698 13.874 59.342 14.153C57.118 14.524 56.523 11.779 58.497 10.755Z" fill="#BABABA" />
        <path d="M27.789 26.073C28.701 26.057 29.58 26.085 30.202 26.837C30.765 27.518 30.385 28.566 29.739 29.016C29.668 29.032 29.596 29.046 29.525 29.058C28.878 29.168 28.182 29.155 27.638 28.747C27.336 28.523 27.143 28.181 27.108 27.806C27.05 27.173 27.389 26.54 27.789 26.073Z" fill="#BABABA" />
        <path d="M87.545 69.814C87.843 69.794 88.523 69.723 88.788 69.781C90.439 70.147 90.677 71.772 89.316 72.653C89.015 72.677 88.712 72.688 88.411 72.686C86.623 72.671 86.063 70.939 87.545 69.814Z" fill="#BABABA" />
        <path d="M9.633 56.631C10.076 56.59 10.704 56.494 11.137 56.6C12.575 56.95 12.521 58.928 11.223 59.44L11.144 59.447L11.013 59.461C8.726 59.697 7.953 57.6 9.633 56.631Z" fill="#BABABA" />
        <path d="M87.545 59.96C87.828 59.941 88.498 59.89 88.749 59.951C90.392 60.35 90.708 61.818 89.392 62.802C88.527 62.934 87.674 63.011 87.057 62.268C86.384 61.458 86.84 60.532 87.545 59.96Z" fill="#BABABA" />
        <path d="M61.263 12.176C63.653 12.176 63.854 14.287 61.915 15.698C61.102 15.873 60.375 15.012 59.94 14.444C60.269 13.518 60.529 12.856 61.263 12.176Z" fill="#BABABA" />
        <path d="M88.616 49.814C88.781 49.8 89.214 49.77 89.319 49.864C90.711 51.115 90.086 52.749 88.342 52.982C87.273 52.784 86.285 52.138 86.897 50.878C87.248 50.153 87.894 50.041 88.616 49.814Z" fill="#BABABA" />
        <path d="M9.774 69.81C10.608 69.751 11.533 69.603 12.073 70.436C12.254 70.711 12.315 71.049 12.243 71.371C12.1 71.999 11.806 72.331 11.283 72.644C11.023 72.658 10.303 72.717 10.083 72.653C8.538 72.206 8.236 70.503 9.774 69.81Z" fill="#BABABA" />
        <path d="M74.127 12.684C74.773 12.604 75.458 12.824 75.724 13.419C76.343 14.811 75.38 15.424 74.426 15.872C73.318 16.127 72.396 15.189 72.683 14.088C72.892 13.288 73.465 13.051 74.127 12.684Z" fill="#BABABA" />
        <path d="M22.355 15.368C24.513 15.644 25.701 17.532 23.48 18.765C23.07 18.829 22.251 18.567 21.962 18.282C20.892 17.225 21.549 16.26 22.355 15.368Z" fill="#BABABA" />
        <path d="M43 10.006C44.377 9.921 44.879 11.846 44.201 12.801C43.889 13.24 43.416 13.259 42.931 13.333C41.552 13.337 41.13 11.89 41.678 10.804C41.955 10.253 42.448 10.158 43 10.006Z" fill="#BABABA" />
        <path d="M42.751 0.829C43.051 0.798 43.707 0.717 43.923 0.9C45.035 1.836 44.944 3.442 43.46 3.857C43.19 3.877 42.652 3.921 42.432 3.802C41.587 3.349 41.146 2.186 41.63 1.322C41.845 0.939 42.37 0.905 42.751 0.829Z" fill="#BABABA" />
        <path d="M45.691 9.331C45.857 9.32 46.448 9.305 46.566 9.359C48.037 10.04 48.07 11.94 46.58 12.598C45.685 12.641 45.191 12.566 44.769 11.674C44.546 11.201 44.522 10.659 44.704 10.169C44.899 9.654 45.217 9.545 45.691 9.331Z" fill="#BABABA" />
        <path d="M96.172 106.449C96.623 106.411 97.363 106.437 97.841 106.441C98.965 107.524 98.786 108.431 97.651 109.388C96.812 109.435 96.139 109.512 95.545 108.787C95.318 108.511 95.217 108.151 95.27 107.797C95.361 107.183 95.713 106.815 96.172 106.449Z" fill="#BABABA" />
        <path d="M31.115 5.578C32.291 5.617 34.038 7.953 31.29 9.101C30.767 8.83 29.973 8.281 29.677 7.767C28.995 6.581 30.308 5.997 31.115 5.578Z" fill="#BABABA" />
        <path d="M9.608 72.956C10.29 72.94 11.577 72.798 11.969 73.393C12.515 74.223 12.141 75.243 11.389 75.756C9.195 76.066 7.9 74.661 9.608 72.956Z" fill="#BABABA" />
        <path d="M10.266 88.472C12.866 88.276 12.692 91.166 11.071 91.329C10.644 91.34 9.987 91.399 9.629 91.155C8.258 90.222 8.688 88.742 10.266 88.472Z" fill="#BABABA" />
        <path d="M34.126 3.859C34.593 4.015 35.257 4.807 35.366 5.278C35.684 6.65 34.761 7.091 33.624 7.327C33.157 7.096 32.533 6.554 32.331 6.084C31.753 4.738 33.269 4.16 34.126 3.859Z" fill="#BABABA" />
        <path d="M20.841 18.513C22.93 18.376 24.284 20.288 22.288 21.718C20.1 21.89 19.246 19.889 20.841 18.513Z" fill="#BABABA" />
        <path d="M9.627 82.344C10.249 82.31 11.548 82.107 11.915 82.668C12.419 83.441 12.256 84.537 11.543 85.098L10.705 85.108C9.696 85.115 8.804 84.957 8.883 83.611C8.917 83.03 9.17 82.697 9.627 82.344Z" fill="#BABABA" />
        <path d="M24.045 12.652C26.02 12.713 27.308 15.08 25.171 15.956C23.957 15.925 23.448 15.367 22.762 14.452C23.131 13.755 23.429 13.163 24.045 12.652Z" fill="#BABABA" />
        <path d="M36.842 12.569C38.541 12.663 39.768 15.192 37.312 15.97C36.788 15.923 35.875 15.27 35.68 14.785C35.18 13.543 35.814 13.044 36.842 12.569Z" fill="#BABABA" />
        <path d="M87.748 79.193C88.01 79.181 88.767 79.128 88.985 79.201C90.471 79.704 90.642 81.4 89.138 82.018C88.804 82.036 88.114 82.099 87.821 81.99C86.303 81.431 86.374 79.867 87.748 79.193Z" fill="#BABABA" />
        <path d="M87.54 56.715C87.924 56.693 88.457 56.643 88.828 56.7C90.299 56.929 90.61 58.676 89.394 59.461C89.093 59.504 88.53 59.601 88.243 59.563C86.434 59.323 86.28 57.708 87.54 56.715Z" fill="#BABABA" />
        <path d="M9.689 76.113C10.387 76.09 11.538 75.901 11.945 76.538C12.446 77.326 12.266 78.404 11.441 78.879C10.747 78.889 9.489 79.009 9.091 78.394C8.545 77.552 8.963 76.616 9.689 76.113Z" fill="#BABABA" />
        <path d="M48.794 9.065C49.058 9.048 49.652 8.986 49.872 9.083C50.882 9.525 51.096 10.843 50.582 11.74C50.357 12.132 50.248 12.156 49.856 12.29C47.903 12.342 47.979 11.69 47.866 9.938C48.179 9.46 48.279 9.304 48.794 9.065Z" fill="#BABABA" />
        <path d="M87.748 88.473C88.065 88.456 88.685 88.399 88.972 88.487C90.451 88.942 90.582 90.686 89.169 91.301C88.907 91.313 88.129 91.372 87.913 91.304C86.331 90.806 86.319 89.172 87.748 88.473Z" fill="#BABABA" />
        <path d="M58.596 1.269C59.072 1.371 59.762 1.486 60.168 1.758C61.28 2.502 60.575 3.825 59.903 4.637C59.816 4.64 59.729 4.642 59.642 4.643C57.368 4.668 57.095 2.578 58.596 1.269Z" fill="#BABABA" />
        <path d="M64.624 3.85C66.925 4.031 67.377 5.536 65.783 7.176C63.451 7.41 62.962 5.386 64.624 3.85Z" fill="#BABABA" />
        <path d="M61.662 2.418C64.002 2.641 64.543 3.983 62.864 5.67C60.678 6.199 60.015 3.723 61.662 2.418Z" fill="#BABABA" />
        <path d="M87.555 82.341C88.291 82.315 89.525 82.136 89.922 82.855C90.378 83.674 90.135 84.574 89.358 85.053C88.802 85.128 88.127 85.095 87.556 85.09C86.504 84.228 86.483 83.206 87.555 82.341Z" fill="#BABABA" />
        <path d="M87.77 76.112C88.77 76.074 89.881 76.062 90.189 77.394C90.312 77.924 89.835 78.595 89.382 78.878C88.73 78.894 87.229 79.09 86.924 78.305C86.55 77.342 86.842 76.569 87.77 76.112Z" fill="#BABABA" />
        <path d="M28.414 7.562C30.379 8.216 31.323 9.816 29.139 11.018C28.629 11.062 27.932 10.855 27.614 10.475C26.627 9.293 27.657 8.253 28.414 7.562Z" fill="#BABABA" />
        <path d="M9.782 79.184C10.92 79.143 12.646 79.184 12.148 81.107C12.036 81.54 11.742 81.794 11.327 81.962C9.072 82.223 7.82 80.636 9.782 79.184Z" fill="#BABABA" />
        <path d="M87.999 72.973C88.459 72.947 88.87 72.886 89.283 73.102C89.68 73.313 89.974 73.675 90.1 74.107C90.354 75.014 89.738 75.561 88.934 75.785C88.622 75.811 87.894 75.869 87.639 75.723C86.234 74.918 86.466 73.39 87.999 72.973Z" fill="#BABABA" />
        <path d="M87.552 85.411C88.211 85.377 89.517 85.206 89.868 85.826C90.354 86.683 90.076 87.605 89.329 88.144C88.488 88.207 87.82 88.316 87.124 87.731C86.278 87.019 86.852 85.957 87.552 85.411Z" fill="#BABABA" />
        <path d="M9.867 85.404C10.159 85.391 10.846 85.335 11.105 85.399C12.563 85.76 12.66 87.581 11.321 88.153C11.003 88.181 10.286 88.264 10 88.152C8.498 87.565 8.339 86.081 9.867 85.404Z" fill="#BABABA" />
        <path d="M55.417 0.626C57.911 0.505 58.28 2.553 56.647 3.84C55.917 3.895 55.275 3.764 54.835 3.125C54.577 2.754 54.485 2.291 54.582 1.849C54.712 1.285 54.935 0.926 55.417 0.626Z" fill="#BABABA" />
        <path d="M43.49 77.158C43.831 77.159 44.4 77.162 44.712 77.268C46.203 77.775 46.348 79.534 44.912 80.186C42.798 80.376 41.782 78.674 43.49 77.158Z" fill="#BABABA" />
        <path d="M36.672 2.639C38.008 2.557 38.633 3.924 38.14 5.058C37.925 5.55 37.369 5.68 36.891 5.833C35.706 5.758 34.778 4.602 35.343 3.46C35.595 2.949 36.17 2.817 36.672 2.639Z" fill="#BABABA" />
        <path d="M53.741 70.468C54.049 70.453 54.374 70.438 54.653 70.573C55.097 70.791 55.428 71.188 55.563 71.663C55.864 72.757 55.253 73.311 54.254 73.513C54.011 73.527 53.732 73.556 53.496 73.509C52.655 73.341 52.283 72.488 52.522 71.714C52.75 70.976 53.115 70.801 53.741 70.468Z" fill="#BABABA" />
        <path d="M39.819 11.047C41.631 11.32 42.24 13.851 39.87 14.385C39.766 14.351 39.665 14.311 39.567 14.265C38.762 13.899 37.958 12.805 38.442 11.925C38.734 11.394 39.294 11.238 39.819 11.047Z" fill="#BABABA" />
        <path d="M92.78 106.974C93.303 106.756 93.903 106.835 94.35 107.183C94.796 107.531 95.022 108.092 94.94 108.652C94.858 109.213 94.48 109.685 93.951 109.889C93.149 110.199 92.248 109.807 91.927 109.009C91.606 108.212 91.986 107.305 92.78 106.974Z" fill="#BABABA" />
        <path d="M13.862 44.052C15.044 44.016 15.284 44.999 15.707 45.928C15.319 46.705 15.005 47.002 14.233 47.34C13.142 47.276 12.133 46.33 12.532 45.19C12.756 44.55 13.298 44.324 13.862 44.052Z" fill="#BABABA" />
        <path d="M40.286 1.395C41.283 1.531 41.67 3.594 40.877 4.254C40.295 4.74 39.989 4.657 39.297 4.653C38.889 4.36 38.391 3.7 38.28 3.218C38.21 2.908 38.271 2.583 38.448 2.319C38.876 1.676 39.581 1.56 40.286 1.395Z" fill="#BABABA" />
        <path d="M49.122 0C49.762 0.029 50.342 -0.026 50.768 0.517C52.044 2.142 49.703 4.316 48.308 2.5C48.015 1.26 47.831 0.583 49.122 0Z" fill="#BABABA" />
        <path d="M52.263 0.245C53.355 0.199 54.571 0.306 54.38 1.954C54.315 2.511 53.935 3.002 53.462 3.308C52.285 3.306 51.052 2.882 51.34 1.308C51.435 0.785 51.799 0.487 52.263 0.245Z" fill="#BABABA" />
        <path d="M96.721 100.119C98.437 100.051 99.235 102.876 96.813 103.282C96.261 103.287 95.616 103.084 95.404 102.56C94.871 101.246 95.8 100.578 96.721 100.119Z" fill="#BABABA" />
        <path d="M9.667 91.72C10.025 91.703 11.025 91.642 11.317 91.707C11.625 91.774 11.892 91.964 12.054 92.234C12.497 92.982 12.189 93.888 11.426 94.297C11.062 94.353 10.693 94.371 10.326 94.35C8.779 94.265 8.268 92.681 9.667 91.72Z" fill="#BABABA" />
        <path d="M89.778 106.953C90.648 106.961 91.292 107.077 91.556 108.047C91.673 108.479 91.606 108.94 91.37 109.321C91.083 109.792 90.782 109.84 90.276 109.97C89.353 109.971 88.751 109.742 88.55 108.732C88.463 108.304 88.554 107.858 88.804 107.499C89.077 107.106 89.332 107.043 89.778 106.953Z" fill="#BABABA" />
        <path d="M44.748 54.999C44.68 53.437 46.282 52.921 47.347 54.075C48.835 55.686 46.722 57.139 45.377 56.24L45.216 56.405C45 56.028 44.788 55.648 44.579 55.267L44.748 54.999Z" fill="#BABABA" />
        <path d="M55.38 80.233C56.761 80.296 57.068 81.952 56.286 82.876C55.924 83.304 55.562 83.283 55.043 83.313C53.093 83.1 53.005 80.724 55.38 80.233Z" fill="#BABABA" />
        <path d="M43.881 74.032C44.227 74.001 44.58 73.972 44.924 74.019C46.701 74.264 46.751 76.019 45.484 76.948C44.467 77.011 43.101 76.738 43.191 75.351C43.215 74.993 43.6 74.272 43.881 74.032Z" fill="#BABABA" />
        <path d="M54.299 77.076C55.154 77.031 55.791 77.117 56.161 78.011C56.328 78.405 56.315 78.852 56.124 79.233C55.864 79.765 55.578 79.81 55.038 79.979C54.219 80.072 53.601 80.077 53.234 79.173C53.072 78.764 53.085 78.306 53.27 77.907C53.502 77.4 53.809 77.276 54.299 77.076Z" fill="#BABABA" />
        <path d="M70.256 7.493C70.615 7.622 71.427 8.152 71.625 8.468C72.336 9.603 71.131 10.355 70.332 10.859C69.863 10.839 69.149 10.607 68.916 10.209C68.172 8.943 69.435 7.993 70.256 7.493Z" fill="#BABABA" />
        <path d="M16.564 42.827C18.053 42.734 18.672 43.793 18.145 45.203C17.986 45.629 17.628 45.741 17.216 45.885C17.043 45.883 16.435 45.91 16.328 45.827C14.999 44.797 14.723 43.344 16.564 42.827Z" fill="#BABABA" />
        <path d="M19.696 42.73C20.55 42.713 21.116 42.837 21.496 43.697C21.683 44.109 21.695 44.578 21.529 44.999C21.324 45.534 21.123 45.665 20.627 45.897C19.852 45.914 19.412 45.973 18.936 45.257C18.692 44.891 18.611 44.442 18.709 44.014C18.86 43.345 19.149 43.079 19.696 42.73Z" fill="#BABABA" />
        <path d="M54.214 73.833C55.002 73.779 55.508 73.886 55.814 74.712C55.973 75.152 55.942 75.639 55.726 76.053C55.474 76.54 55.159 76.601 54.666 76.743C54.3 76.785 53.825 76.846 53.508 76.622C52.764 76.098 52.586 75.085 53.114 74.34C53.408 73.928 53.738 73.923 54.214 73.833Z" fill="#BABABA" />
        <path d="M67.511 5.554C68.351 5.616 69.19 6.452 69.648 7.099C69.168 7.914 68.82 8.255 68.157 8.907C67.164 8.864 66.79 8.469 66.101 7.811C66.413 6.845 66.787 6.24 67.511 5.554Z" fill="#BABABA" />
        <path d="M47.812 1.517C47.794 2.747 47.404 3.595 45.953 3.26C45.583 3.175 45.265 2.939 45.077 2.609C43.872 0.531 47.117 -0.803 47.806 1.236L47.812 1.517Z" fill="#BABABA" />
        <path d="M23.067 42.84C23.288 42.846 23.931 42.853 24.107 42.963C25.354 43.739 25.292 45.444 23.879 45.958C21.714 46.068 21.365 43.721 23.067 42.84Z" fill="#BABABA" />
        <path d="M42.379 68.555C44.493 68.402 44.769 70.529 42.729 71.654C42.596 71.649 42.464 71.636 42.332 71.619C41.52 71.506 40.758 70.618 41.056 69.796C41.331 69.036 41.741 68.91 42.379 68.555Z" fill="#BABABA" />
        <path d="M43.162 80.422C45.711 80.296 45.946 82.578 44.42 83.283C44.067 83.29 43.502 83.322 43.178 83.219C41.709 82.752 41.917 80.977 43.162 80.422Z" fill="#BABABA" />
        <path d="M69.389 39.567C69.796 39.548 70.839 39.458 71.181 39.567C72.131 39.87 72.353 41.611 71.397 42.029C70.21 42.065 68.396 42.379 68.651 40.583C68.724 40.065 68.994 39.864 69.389 39.567Z" fill="#BABABA" />
        <path d="M26.255 42.919C27.519 42.843 28.468 43.274 28.268 44.887C28.209 45.363 27.88 45.711 27.464 45.954C27.262 45.968 27.06 45.976 26.858 45.979C25.202 45.991 24.836 44.089 26.255 42.919Z" fill="#BABABA" />
        <path d="M29.669 42.925C31.097 42.851 31.887 43.535 31.459 45.146C31.337 45.603 31.006 45.787 30.583 45.978C29.817 46.075 29.275 46.018 28.863 45.282C28.647 44.89 28.596 44.427 28.723 43.997C28.901 43.389 29.133 43.2 29.669 42.925Z" fill="#BABABA" />
        <path d="M86.02 107.034C86.293 107.011 86.862 106.946 87.111 107.004C88.663 107.361 88.764 109.07 87.548 109.87C85.317 110.368 84.632 108.206 86.02 107.034Z" fill="#BABABA" />
        <path d="M4.062 106.943C6.369 106.828 6.523 109.281 4.978 109.919C4.618 109.922 4.055 109.966 3.745 109.786C2.548 109.091 2.685 107.318 4.062 106.943Z" fill="#BABABA" />
        <path d="M83.556 106.939C85.451 106.947 85.759 109.311 83.929 110C82.662 109.941 82.492 109.755 82.115 108.571C82.308 107.475 82.408 107.12 83.556 106.939Z" fill="#BABABA" />
        <path d="M32.764 42.993C35.061 42.79 35.44 45.154 33.914 45.992C31.693 46.289 31.271 44.104 32.764 42.993Z" fill="#BABABA" />
        <path d="M79.791 107.027C80.234 107.01 80.734 107.018 81.181 107.013C81.444 107.267 81.627 107.533 81.845 107.824C81.852 108.262 81.836 108.739 81.83 109.18C81.467 109.582 81.402 109.664 80.934 109.924C78.899 110.216 78.209 108.032 79.791 107.027Z" fill="#BABABA" />
        <path d="M55.299 83.579C57.533 83.49 57.515 85.992 55.899 86.558C53.564 86.483 53.419 84.187 55.299 83.579Z" fill="#BABABA" />
        <path d="M78.786 42.916C81.035 42.808 80.945 45.431 79.579 45.976C79.411 45.98 78.835 46.002 78.712 45.939C77.251 45.192 77.275 43.532 78.786 42.916Z" fill="#BABABA" />
        <path d="M10.056 107.022C10.893 106.975 11.514 106.963 11.99 107.765C12.512 108.644 12.149 109.458 11.309 109.902C9.072 110.143 8.526 108.016 10.056 107.022Z" fill="#BABABA" />
        <path d="M63.919 97.853C64.681 97.849 65.173 98.1 65.424 98.872C65.574 99.344 65.522 99.856 65.282 100.29C65.047 100.713 64.792 100.762 64.356 100.892C64.032 100.892 63.549 100.929 63.304 100.714C62.23 99.771 62.383 98.115 63.919 97.853Z" fill="#BABABA" />
        <path d="M73.585 107.032C74.031 107.009 74.544 107.02 74.997 107.017C75.213 107.221 75.435 107.536 75.621 107.781C75.642 108.851 75.765 109.364 74.788 109.956C72.661 110.056 72.058 108.144 73.585 107.032Z" fill="#BABABA" />
        <path d="M39.917 107.033C40.968 106.917 42.061 107.043 42.083 108.519C42.091 109.098 41.683 109.563 41.244 109.921C39.071 110.213 38.504 108.175 39.917 107.033Z" fill="#BABABA" />
        <path d="M81.838 43.018C84.286 42.965 83.938 45.072 82.665 46.039C82.448 46.05 81.969 46.086 81.775 46.017C81.35 45.867 81.011 45.541 80.844 45.123C80.45 44.165 80.963 43.41 81.838 43.018Z" fill="#BABABA" />
        <path d="M45.216 56.405C45.291 58.144 42.548 58.686 42.294 56.701C42.114 55.295 43.326 54.243 44.579 55.267C44.788 55.649 45 56.028 45.216 56.405Z" fill="#BABABA" />
        <path d="M36.133 43.015C38.192 42.933 38.535 45.203 36.937 46.023C35.445 46.137 34.726 45.376 35.207 43.784C35.349 43.314 35.688 43.2 36.133 43.015Z" fill="#BABABA" />
        <path d="M69.585 43.024C71.843 42.756 72.211 44.909 70.768 45.956C69.937 46.024 69.333 46.04 68.899 45.208C68.441 44.329 68.771 43.492 69.585 43.024Z" fill="#BABABA" />
        <path d="M5.842 97.933C8.141 97.693 8.557 100.079 6.894 100.934C5.041 101.164 4.261 98.956 5.842 97.933Z" fill="#BABABA" />
        <path d="M87.82 97.942C88.641 97.838 89.258 97.811 89.745 98.586C90.267 99.42 89.981 100.343 89.172 100.83C86.888 101.195 86.556 99.007 87.82 97.942Z" fill="#BABABA" />
        <path d="M43.073 83.572C45.225 83.616 45.273 85.955 43.682 86.599C41.332 86.484 41.304 84.098 43.073 83.572Z" fill="#BABABA" />
        <path d="M6.998 107.019C7.229 107.006 7.79 106.963 7.995 107.037C9.352 107.522 9.459 109.316 8.127 109.919C5.912 110.109 5.457 107.937 6.998 107.019Z" fill="#BABABA" />
        <path d="M73.081 97.846C73.897 97.882 74.028 98.027 74.569 98.65C74.605 99.853 74.818 100.497 73.506 100.904C72.665 100.89 72.152 100.786 71.876 99.884C71.732 99.413 71.793 98.904 72.042 98.481C72.314 98.016 72.593 97.961 73.081 97.846Z" fill="#BABABA" />
        <path d="M76.58 107.025C77.369 106.981 78.053 106.889 78.557 107.627C79.125 108.46 78.734 109.368 77.961 109.869C77.378 110.009 76.787 110.002 76.332 109.566C76.022 109.268 75.856 108.851 75.878 108.421C75.906 107.781 76.134 107.442 76.58 107.025Z" fill="#BABABA" />
        <path d="M66.379 97.929C66.569 97.91 67.21 97.858 67.371 97.896C68.808 98.239 68.926 100.008 67.849 100.787C65.684 101.327 65.034 99.191 66.379 97.929Z" fill="#BABABA" />
        <path d="M91.021 97.932C91.834 97.882 92.487 97.835 92.892 98.669C93.306 99.52 92.997 100.406 92.197 100.852C89.9 101.121 89.569 98.894 91.021 97.932Z" fill="#BABABA" />
        <path d="M94.093 98.028C96.083 97.879 97.071 99.51 95.165 100.896C93.488 101.531 92.356 99.148 94.093 98.028Z" fill="#BABABA" />
        <path d="M76.001 97.851C77.394 97.945 78.084 98.701 77.524 100.228C77.371 100.642 77.043 100.758 76.63 100.895C76.311 100.898 75.853 100.937 75.592 100.742C74.548 99.969 74.61 98.188 76.001 97.851Z" fill="#BABABA" />
        <path d="M70.26 97.853C70.917 97.931 71.063 98.163 71.51 98.631C71.567 99.981 71.745 100.564 70.245 100.923C68.743 100.802 68.339 99.496 69.149 98.269C69.391 97.902 69.841 97.89 70.26 97.853Z" fill="#BABABA" />
        <path d="M41.035 66.078C42.036 65.958 42.739 67.047 42.295 67.929C41.958 68.598 41.458 68.719 40.815 68.971C39.417 69.046 38.221 66.645 41.035 66.078Z" fill="#BABABA" />
        <path d="M58.776 59.939C60.147 59.884 61.08 62.316 58.841 62.911C57.58 62.954 56.883 61.994 57.35 60.834C57.573 60.278 58.244 60.13 58.776 59.939Z" fill="#BABABA" />
        <path d="M63.678 43.024C65.026 42.928 65.73 43.58 65.38 45.065C65.25 45.615 64.928 45.763 64.432 45.995C63.694 46.063 63.038 45.907 62.767 45.167C62.389 44.138 62.704 43.396 63.678 43.024Z" fill="#BABABA" />
        <path d="M75.528 43.014C77.793 42.71 78.153 44.926 76.705 45.955C74.4 46.152 74.09 43.865 75.528 43.014Z" fill="#BABABA" />
        <path d="M42.866 107.022C43.648 106.987 44.218 106.858 44.794 107.508C45.044 107.789 45.16 108.166 45.11 108.54C45.029 109.167 44.797 109.505 44.311 109.86C42.292 110.335 41.548 108.397 42.866 107.022Z" fill="#BABABA" />
        <path d="M82.291 97.849C84.21 97.938 84.357 100.381 82.741 100.9C81.847 100.899 81.265 100.793 81.036 99.775C80.928 99.307 81.021 98.816 81.293 98.419C81.582 97.996 81.809 97.944 82.291 97.849Z" fill="#BABABA" />
        <path d="M42.524 43.029C43.325 43.05 43.8 43.235 44.028 44.083C44.158 44.567 44.075 45.083 43.8 45.501C43.521 45.92 43.281 45.952 42.813 46.055C40.844 46.018 40.601 43.481 42.524 43.029Z" fill="#BABABA" />
        <path d="M84.762 97.939C85.843 97.821 86.842 98.02 86.9 99.482C86.922 100.02 86.535 100.5 86.115 100.828C85.469 100.935 84.91 101.008 84.434 100.483C84.163 100.186 84.023 99.793 84.047 99.392C84.082 98.716 84.275 98.354 84.762 97.939Z" fill="#BABABA" />
        <path d="M67.341 107.03C68.141 106.979 68.843 106.883 69.322 107.661C69.823 108.47 69.391 109.466 68.627 109.918C66.518 110.107 65.997 108.256 67.341 107.03Z" fill="#BABABA" />
        <path d="M48.442 43.023C50.523 42.851 50.809 45.445 49.013 46.059C48.11 46.082 47.973 45.923 47.427 45.221C47.369 44.167 47.252 43.396 48.442 43.023Z" fill="#BABABA" />
        <path d="M56.869 57.071C57.63 57.034 58.303 57.276 58.68 57.99C58.861 58.333 58.897 58.736 58.779 59.108C58.612 59.631 58.177 59.777 57.716 59.999C56.349 60.46 54.904 58.573 56.869 57.071Z" fill="#BABABA" />
        <path d="M64.267 107.026C65.081 106.985 65.739 106.893 66.238 107.668C66.772 108.501 66.299 109.458 65.541 109.929C63.566 110.237 62.86 107.991 64.267 107.026Z" fill="#BABABA" />
        <path d="M49.038 107.023C49.469 107.006 49.969 107.018 50.406 107.016C51.451 107.789 51.462 109.067 50.432 109.855C48.396 110.359 47.614 108.218 49.038 107.023Z" fill="#BABABA" />
        <path d="M56.169 68.352C58.192 68.38 58.692 70.145 56.963 71.443C55.954 71.636 55.031 70.886 55.162 69.841C55.259 69.067 55.621 68.832 56.169 68.352Z" fill="#BABABA" />
        <path d="M79.224 97.857C81.147 97.965 81.299 100.35 79.629 100.901C79.603 100.901 79.577 100.901 79.551 100.901L79.42 100.897C77.541 100.852 77.312 98.198 79.224 97.857Z" fill="#BABABA" />
        <path d="M45.963 107.024C47.938 106.944 48.042 107.15 48.086 109.106C47.808 109.462 47.714 109.547 47.375 109.852C45.393 110.321 44.541 108.368 45.963 107.024Z" fill="#BABABA" />
        <path d="M39.404 63.103C39.651 63.098 40.484 63.117 40.708 63.214C41.79 63.681 42.062 65.332 40.855 65.857C38.561 66.385 38.019 64.054 39.404 63.103Z" fill="#BABABA" />
        <path d="M12.397 97.85C13.136 97.892 13.59 98.068 13.872 98.819C14.045 99.284 14.008 99.801 13.771 100.237C13.537 100.674 13.287 100.746 12.834 100.899C12.004 100.895 11.506 100.759 11.221 99.876C11.072 99.419 11.121 98.922 11.355 98.503C11.601 98.066 11.941 97.972 12.397 97.85Z" fill="#BABABA" />
        <path d="M60.319 97.935C61.478 97.801 62.487 98.128 62.408 99.649C62.38 100.173 62.06 100.544 61.623 100.831C61.396 100.873 61.166 100.893 60.935 100.89C60.534 100.887 60.217 100.729 59.955 100.429C59.661 100.096 59.526 99.653 59.584 99.213C59.666 98.555 59.825 98.321 60.319 97.935Z" fill="#BABABA" />
        <path d="M39.246 43.022C40.107 43.001 40.64 43.146 40.913 44.057C41.059 44.528 40.999 45.038 40.749 45.462C40.518 45.849 40.278 45.944 39.864 46.046C38.9 46.063 38.773 45.97 38.234 45.176C38.175 44.014 38.077 43.533 39.246 43.022Z" fill="#BABABA" />
        <path d="M27.5 97.843C28.243 97.816 28.729 97.988 29.063 98.704C29.274 99.143 29.284 99.652 29.091 100.099C28.882 100.578 28.662 100.724 28.195 100.89C26.099 100.966 25.723 98.634 27.5 97.843Z" fill="#BABABA" />
        <path d="M30.845 97.854C31.527 97.904 32.081 98.205 32.209 98.89C32.437 100.106 31.973 100.672 30.92 100.93C30.099 100.875 29.971 100.689 29.516 100.025C29.472 98.713 29.429 98.106 30.845 97.854Z" fill="#BABABA" />
        <path d="M13.218 107.017C14.426 106.957 15.347 107.34 15.151 108.909C15.095 109.354 14.837 109.643 14.454 109.885C13.601 109.947 12.924 109.988 12.451 109.146C11.946 108.245 12.462 107.484 13.218 107.017Z" fill="#BABABA" />
        <path d="M57.611 66.059C59.777 65.981 60.798 67.477 58.913 68.908C57.143 69.059 56.035 67.547 57.611 66.059Z" fill="#BABABA" />
        <path d="M57.94 97.851C58.649 97.945 59.068 98.221 59.272 98.949C59.405 99.423 59.333 99.931 59.074 100.349C58.789 100.803 58.481 100.833 57.986 100.931C57.235 100.849 56.778 100.611 56.569 99.825C56.445 99.347 56.529 98.838 56.801 98.426C57.099 97.976 57.44 97.935 57.94 97.851Z" fill="#BABABA" />
        <path d="M54.7 43.027C55.547 43.018 55.587 43.088 56.193 43.7C56.23 44.911 56.456 45.702 55.078 46.062C53.202 46.067 52.747 43.675 54.7 43.027Z" fill="#BABABA" />
        <path d="M58.171 107.035C58.939 106.975 59.6 106.878 60.084 107.581C60.664 108.427 60.268 109.356 59.504 109.888C57.517 110.348 56.8 108.18 58.171 107.035Z" fill="#BABABA" />
        <path d="M54.269 97.927C55.026 97.879 55.587 97.862 56.036 98.559C56.586 99.415 56.254 100.341 55.455 100.862C53.209 101.08 52.815 98.837 54.269 97.927Z" fill="#BABABA" />
        <path d="M48.191 97.936C48.981 97.878 49.567 97.787 50.046 98.56C50.253 98.89 50.317 99.29 50.226 99.67C50.076 100.319 49.957 100.513 49.422 100.839C48.344 100.969 48.154 100.915 47.513 100.052C47.475 99.055 47.285 98.582 48.191 97.936Z" fill="#BABABA" />
        <path d="M66.637 43.014C68.773 42.903 69.151 45.019 67.622 45.96C66.887 46.03 66.267 46.049 65.886 45.321C65.38 44.356 65.762 43.516 66.637 43.014Z" fill="#BABABA" />
        <path d="M57.638 43.011C59.748 42.948 59.977 45.386 58.217 46.048C56.249 46.06 55.876 43.85 57.638 43.011Z" fill="#BABABA" />
        <path d="M45.383 43.015C46.178 42.987 46.676 43.087 46.986 43.912C47.161 44.377 47.132 44.895 46.907 45.337C46.681 45.789 46.434 45.904 45.978 46.044C44.04 46.077 43.581 43.796 45.383 43.015Z" fill="#BABABA" />
        <path d="M30.981 107.029C31.199 107.016 31.867 106.96 32.06 107.026C33.438 107.494 33.47 109.194 32.285 109.899C30.84 110.14 30.553 109.659 30.254 108.383C30.405 107.668 30.376 107.434 30.981 107.029Z" fill="#BABABA" />
        <path d="M24.212 97.937C26.362 97.604 26.793 99.912 25.319 100.861C23.143 101.073 22.673 98.894 24.212 97.937Z" fill="#BABABA" />
        <path d="M34.064 107.022C35.172 106.967 36.227 107.182 36.041 108.776C35.984 109.266 35.572 109.659 35.151 109.922C32.953 110.211 32.633 107.776 34.064 107.022Z" fill="#BABABA" />
        <path d="M16.192 107.027C17.041 106.975 17.702 106.973 18.107 107.847C18.467 108.624 18.177 109.519 17.414 109.898C15.245 110.164 14.68 108.144 16.192 107.027Z" fill="#BABABA" />
        <path d="M51.208 97.931C51.959 97.899 52.462 97.819 52.941 98.501C53.526 99.335 53.18 100.308 52.413 100.865C51.282 100.936 50.319 100.674 50.395 99.165C50.424 98.601 50.76 98.258 51.208 97.931Z" fill="#BABABA" />
        <path d="M36.377 97.929C38.615 97.725 39.012 99.919 37.464 100.858C35.413 101.096 34.86 99.038 36.377 97.929Z" fill="#BABABA" />
        <path d="M21.076 97.938C22.251 97.822 23.208 98.174 23.086 99.698C23.046 100.201 22.703 100.592 22.273 100.864C21.169 100.941 20.31 100.697 20.284 99.286C20.274 98.713 20.644 98.292 21.076 97.938Z" fill="#BABABA" />
        <path d="M9.248 97.816C11.19 97.875 11.541 100.298 9.854 100.896C8.674 100.92 7.944 100.396 8.165 99.049C8.274 98.382 8.688 98.143 9.248 97.816Z" fill="#BABABA" />
        <path d="M60.606 43.02C62.767 42.876 62.936 45.322 61.42 46.014C59.35 46.158 58.91 43.928 60.606 43.02Z" fill="#BABABA" />
        <path d="M70.478 107.02C71.273 106.986 71.765 106.882 72.295 107.581C72.526 107.882 72.621 108.266 72.556 108.639C72.448 109.245 72.2 109.6 71.712 109.934C71.11 109.983 70.619 109.992 70.158 109.544C69.855 109.253 69.693 108.845 69.712 108.425C69.742 107.759 70.007 107.429 70.478 107.02Z" fill="#BABABA" />
        <path d="M28.04 107.023C28.823 106.977 29.448 106.892 29.897 107.666C30.333 108.42 30.043 109.45 29.304 109.888C27.02 110.204 26.668 107.979 28.04 107.023Z" fill="#BABABA" />
        <path d="M19.139 107.019C19.952 106.973 20.582 106.944 21.031 107.734C21.497 108.552 21.225 109.474 20.402 109.904C19.352 109.991 18.425 109.827 18.392 108.413C18.378 107.845 18.719 107.39 19.139 107.019Z" fill="#BABABA" />
        <path d="M33.398 97.934C34.132 97.874 34.675 97.865 35.088 98.567C35.648 99.52 35.287 100.351 34.418 100.874C33.714 100.923 33.215 100.917 32.797 100.269C32.186 99.32 32.501 98.464 33.398 97.934Z" fill="#BABABA" />
        <path d="M27.75 39.67C28.693 39.636 29.897 39.493 30.215 40.661C30.365 41.212 30.156 41.857 29.537 41.966C29.129 41.959 27.906 42.044 27.619 41.941C26.495 41.538 26.719 40.124 27.75 39.67Z" fill="#BABABA" />
        <path d="M39.636 59.924C41.555 59.895 42.573 61.178 41.189 62.823C38.99 62.998 38.132 61.507 39.636 59.924Z" fill="#BABABA" />
        <path d="M51.978 107.033C52.181 107.023 52.385 107.014 52.588 107.009C54.352 106.967 54.731 108.745 53.512 109.848C52.34 110.036 51.403 109.817 51.381 108.329C51.372 107.812 51.64 107.41 51.978 107.033Z" fill="#BABABA" />
        <path d="M22.113 107.02C22.347 107.007 22.948 106.977 23.136 107.046C24.401 107.509 24.592 109.249 23.372 109.888C22.252 109.975 21.311 109.798 21.329 108.306C21.336 107.732 21.685 107.374 22.113 107.02Z" fill="#BABABA" />
        <path d="M41.299 57.17C43.338 57.117 43.453 59.861 41.874 60.204C41.757 60.185 41.641 60.16 41.526 60.13C40.965 59.987 40.428 59.764 40.144 59.226C39.996 58.953 39.972 58.63 40.076 58.337C40.281 57.769 40.782 57.419 41.299 57.17Z" fill="#BABABA" />
        <path d="M51.461 43.034C52.27 43.015 52.754 43.082 53.093 43.914C53.276 44.358 53.258 44.86 53.045 45.291C52.815 45.764 52.608 45.87 52.134 46.027C51.35 46.02 50.886 45.939 50.538 45.146C50.348 44.722 50.349 44.236 50.542 43.813C50.742 43.37 51.039 43.207 51.461 43.034Z" fill="#BABABA" />
        <path d="M61.319 107.023C62.409 106.96 63.576 107.108 63.358 108.755C63.29 109.265 62.919 109.649 62.469 109.907C60.486 110.198 59.891 107.947 61.319 107.023Z" fill="#BABABA" />
        <path d="M49.274 52.975C51.139 53.176 51.274 55.84 49.501 55.947C47.827 55.885 47.958 55.023 47.981 53.664C48.436 53.22 48.656 53.112 49.274 52.975Z" fill="#BABABA" />
        <path d="M55.197 107.021C55.992 106.977 56.59 106.894 57.068 107.666C57.273 107.992 57.329 108.389 57.224 108.758C57.054 109.373 56.876 109.602 56.351 109.896C54.347 110.203 53.766 107.993 55.197 107.021Z" fill="#BABABA" />
        <path d="M51.55 53.446C53.665 53.283 54.577 54.429 53.151 56.19C51.1 56.854 50.39 54.899 51.55 53.446Z" fill="#BABABA" />
        <path d="M54.564 54.748C56.709 54.782 57.289 56.485 55.496 57.8C55.149 57.83 54.288 57.55 54.059 57.288C53.247 56.352 53.898 55.422 54.564 54.748Z" fill="#BABABA" />
        <path d="M18.118 97.927C18.293 97.911 18.853 97.869 18.999 97.928C20.313 98.459 20.465 100.113 19.246 100.82C17.022 101.201 16.661 98.795 18.118 97.927Z" fill="#BABABA" />
        <path d="M15.054 97.934C17.239 97.706 17.649 99.965 16.177 100.842C13.99 101.163 13.632 98.88 15.054 97.934Z" fill="#BABABA" />
        <path d="M72.657 43.02C73.799 42.969 74.657 43.314 74.51 44.778C74.454 45.332 74.109 45.672 73.646 45.966C72.927 46.018 72.335 45.995 71.957 45.294C71.443 44.342 71.78 43.509 72.657 43.02Z" fill="#BABABA" />
        <path d="M25.18 107.026C25.39 107.01 26.022 106.97 26.186 107.046C27.391 107.608 27.552 109.267 26.33 109.903C24.155 110.188 23.68 107.901 25.18 107.026Z" fill="#BABABA" />
        <path d="M37.037 107.02C38.12 106.97 38.329 106.832 38.955 107.801L38.979 109.177C38.664 109.544 38.587 109.605 38.19 109.884C36.147 110.295 35.556 107.954 37.037 107.02Z" fill="#BABABA" />
        <path d="M45.961 83.681C47.127 83.606 48.031 83.963 47.798 85.492C47.725 85.969 47.325 86.332 46.892 86.553C44.743 86.696 44.317 84.636 45.961 83.681Z" fill="#BABABA" />
        <path d="M57.969 63.2C58.751 63.177 59.431 63.061 60.129 63.527C60.907 64.047 60.371 65.254 59.843 65.77C59.219 65.923 58.435 65.906 57.925 65.465C57.672 65.251 57.516 64.944 57.491 64.612C57.456 64.111 57.656 63.589 57.969 63.2Z" fill="#BABABA" />
        <path d="M42.506 97.925C44.736 97.762 44.947 100.128 43.488 100.805C41.353 101.219 40.987 98.795 42.506 97.925Z" fill="#BABABA" />
        <path d="M96.202 103.579C96.962 103.552 97.804 103.411 98.431 103.937C99.12 104.517 98.558 105.471 98.092 105.994C97.704 106.072 97.049 106.195 96.671 106.084C95.353 105.696 95.379 104.492 96.202 103.579Z" fill="#BABABA" />
        <path d="M3.111 98.607C4.979 98.35 5.688 100.781 3.757 101.622C3.203 101.586 2.533 101.208 2.244 100.727C2.055 100.405 2.001 100.022 2.093 99.66C2.249 99.065 2.619 98.885 3.111 98.607Z" fill="#BABABA" />
        <path d="M39.384 97.935C40.069 97.875 40.62 97.817 41.06 98.438C41.657 99.281 41.409 100.268 40.564 100.814C38.489 101.239 37.997 99 39.384 97.935Z" fill="#BABABA" />
        <path d="M64.538 92.964C65.22 92.927 65.718 92.965 66.13 93.575C66.376 93.936 66.455 94.387 66.345 94.811C66.194 95.402 66.007 95.603 65.516 95.907C63.348 95.997 62.921 93.751 64.538 92.964Z" fill="#BABABA" />
        <path d="M32.242 92.984C34.127 93.116 34.198 95.642 32.504 95.952C31.636 95.916 31.109 95.629 30.938 94.71C30.856 94.28 30.962 93.836 31.23 93.49C31.551 93.075 31.74 93.047 32.242 92.984Z" fill="#BABABA" />
        <path d="M49.004 83.673C49.761 83.636 50.267 83.606 50.672 84.357C51.129 85.206 50.787 86.116 49.96 86.557C49.23 86.569 48.709 86.597 48.292 85.907C47.716 84.95 48.184 84.184 49.004 83.673Z" fill="#BABABA" />
        <path d="M67.612 92.95C69.786 92.902 69.958 95.197 68.473 95.915C66.401 95.962 65.999 93.678 67.612 92.95Z" fill="#BABABA" />
        <path d="M35.065 92.96C37.018 93.016 37.323 95.264 35.757 95.943C33.469 95.876 33.447 93.477 35.065 92.96Z" fill="#BABABA" />
        <path d="M73.376 93.054C75.546 92.758 76.042 94.807 74.604 95.849C72.72 96.283 71.845 94.196 73.376 93.054Z" fill="#BABABA" />
        <path d="M45.379 97.928C46.13 97.884 46.638 97.885 47.053 98.613C47.55 99.485 47.23 100.358 46.398 100.827C44.353 101.238 43.968 98.956 45.379 97.928Z" fill="#BABABA" />
        <path d="M61.653 92.967C63.753 92.888 63.893 95.336 62.252 95.938C61.5 95.859 61.005 95.707 60.679 94.96C60.522 94.605 60.515 94.203 60.662 93.844C60.871 93.316 61.16 93.192 61.653 92.967Z" fill="#BABABA" />
        <path d="M29.056 92.971C31.006 92.999 31.186 95.28 29.76 95.932C28.857 95.956 28.273 95.796 27.996 94.82C27.873 94.399 27.938 93.946 28.172 93.576C28.431 93.156 28.597 93.093 29.056 92.971Z" fill="#BABABA" />
        <path d="M38.229 92.981C38.934 93.012 39.467 93.248 39.646 93.959C39.907 94.997 39.562 95.66 38.579 95.934C37.729 95.929 37.211 95.653 37.02 94.763C36.928 94.341 37.012 93.897 37.252 93.537C37.531 93.116 37.757 93.061 38.229 92.981Z" fill="#BABABA" />
        <path d="M44.288 92.971C44.977 93.02 45.344 93.194 45.591 93.886C45.756 94.358 45.716 94.877 45.481 95.318C45.249 95.758 44.997 95.814 44.546 95.948C43.252 95.793 42.546 94.906 43.202 93.552C43.395 93.154 43.864 93.034 44.288 92.971Z" fill="#BABABA" />
        <path d="M77.16 92.971C78.808 93.156 78.951 95.361 77.121 95.967C76.368 95.813 75.88 95.574 75.697 94.75C75.604 94.334 75.693 93.898 75.94 93.55C76.272 93.083 76.628 93.047 77.16 92.971Z" fill="#BABABA" />
        <path d="M70.86 92.98C72.831 93.093 72.868 95.401 71.221 95.966C70.389 95.804 69.872 95.572 69.672 94.681C69.45 93.696 69.959 93.152 70.86 92.98Z" fill="#BABABA" />
        <path d="M58.47 92.958C59.646 92.917 60.499 93.318 60.264 94.779C60.172 95.359 59.86 95.616 59.355 95.902C57.359 95.898 56.991 93.816 58.47 92.958Z" fill="#BABABA" />
        <path d="M22.829 93.063C23.053 93.026 23.28 93.008 23.507 93.007C24.869 93.016 25.439 94.889 24.112 95.825C21.995 96.244 21.566 94.202 22.829 93.063Z" fill="#BABABA" />
        <path d="M40.959 92.968C43.027 92.893 43.317 95.393 41.68 95.923C39.574 95.912 39.54 93.602 40.959 92.968Z" fill="#BABABA" />
        <path d="M0.884 106.258C1.084 106.246 1.284 106.247 1.484 106.262C1.938 106.301 2.363 106.478 2.642 106.849C2.852 107.124 2.93 107.477 2.856 107.814C2.718 108.422 2.447 108.677 1.964 109.012C0.951 109.072 -0.071 108.854 0.023 107.45C0.057 106.935 0.457 106.536 0.884 106.258Z" fill="#BABABA" />
        <path d="M16.764 93.059C17.582 93.01 17.993 92.923 18.551 93.595C19.129 94.291 18.836 95.324 18.185 95.843C16.016 96.182 15.526 94.284 16.764 93.059Z" fill="#BABABA" />
        <path d="M46.597 93.07C47.375 92.954 47.876 92.924 48.362 93.636C48.892 94.415 48.654 95.378 47.856 95.851C45.761 96.177 45.343 94.123 46.597 93.07Z" fill="#BABABA" />
        <path d="M52.234 83.581C54.178 83.767 54.336 85.919 52.66 86.581C50.762 86.459 50.413 84.213 52.234 83.581Z" fill="#BABABA" />
        <path d="M19.836 93.043C22.043 92.732 22.462 94.91 21.058 95.853C18.981 96.136 18.601 94.214 19.836 93.043Z" fill="#BABABA" />
        <path d="M55.644 92.959C57.7 92.926 57.885 95.223 56.289 95.921C54.333 95.803 54.034 93.631 55.644 92.959Z" fill="#BABABA" />
        <path d="M79.462 93.059C79.625 93.05 80.293 93.004 80.41 93.048C81.809 93.582 81.682 95.126 80.664 95.824C78.677 96.279 78.049 94.108 79.462 93.059Z" fill="#BABABA" />
        <path d="M26.07 92.962C28.122 93.062 28.277 95.29 26.787 95.926C25.949 95.933 25.467 95.758 25.165 94.904C25.016 94.488 25.043 94.029 25.239 93.633C25.442 93.218 25.657 93.106 26.07 92.962Z" fill="#BABABA" />
        <path d="M14.011 93.046C16.121 92.982 16.356 95.038 14.908 95.9C14.247 95.922 13.662 95.943 13.303 95.297C12.775 94.346 13.178 93.551 14.011 93.046Z" fill="#BABABA" />
        <path d="M52.458 93.052C53.499 92.993 54.469 93.089 54.432 94.618C54.419 95.144 54.085 95.53 53.652 95.824C53.466 95.866 53.357 95.888 53.165 95.895C52.796 95.909 52.439 95.767 52.178 95.505C51.443 94.757 51.717 93.692 52.458 93.052Z" fill="#BABABA" />
        <path d="M49.989 92.963C50.723 92.972 51.181 93.207 51.414 93.935C51.561 94.391 51.51 94.887 51.275 95.304C51.03 95.741 50.787 95.803 50.326 95.915C48.613 95.932 48.235 93.572 49.989 92.963Z" fill="#BABABA" />
        <path d="M16.408 60.896C16.582 60.891 17.098 60.878 17.239 60.933C18.539 61.444 18.481 63.119 17.302 63.715C15.388 63.815 14.756 61.664 16.408 60.896Z" fill="#BABABA" />
        <path d="M16.126 57.456C16.731 57.43 17.24 57.324 17.741 57.739C18.575 58.431 18.24 59.503 17.524 60.173C15.646 60.706 14.999 58.736 16.126 57.456Z" fill="#BABABA" />
        <path d="M16.824 50.942C18.847 50.952 19.002 52.645 17.632 53.846C15.594 53.681 15.094 52.148 16.824 50.942Z" fill="#BABABA" />
        <path d="M16.121 54.111C17.058 54.036 18.104 54.162 18.183 55.468C18.21 55.931 17.867 56.432 17.519 56.736C15.393 57.328 15.04 55.323 16.121 54.111Z" fill="#BABABA" />
        <path d="M82.631 93.045C84.536 92.908 84.768 95.275 83.171 95.919C81.411 95.823 80.969 93.888 82.631 93.045Z" fill="#BABABA" />
        <path d="M85.272 93.14C87.141 93.091 87.386 94.954 85.987 95.915C84.066 95.897 83.863 93.887 85.272 93.14Z" fill="#BABABA" />
        <path d="M18.735 48.448C20.491 48.486 20.741 50.129 19.137 51.18C17.835 51.404 17.09 49.373 18.735 48.448Z" fill="#BABABA" />
        <path d="M16.394 64.594C16.824 64.437 17.307 64.525 17.654 64.824C18.001 65.124 18.159 65.588 18.066 66.036C17.974 66.485 17.645 66.849 17.207 66.987C16.553 67.192 15.854 66.837 15.633 66.188C15.412 65.538 15.75 64.831 16.394 64.594Z" fill="#BABABA" />
        <path d="M16.282 68.042C16.666 67.847 17.126 67.874 17.484 68.115C17.842 68.356 18.041 68.771 18.006 69.201C17.97 69.63 17.705 70.007 17.312 70.185C16.723 70.452 16.029 70.2 15.749 69.618C15.469 69.035 15.706 68.335 16.282 68.042Z" fill="#BABABA" />
        <path d="M12.347 94.005C12.531 95.666 11.536 96.295 10.041 95.657C9.801 95.382 9.815 95.357 9.707 95.02C9.928 94.142 11.082 95.04 12.347 94.005Z" fill="#BABABA" />
      </g>
    </svg>