<svg preserveAspectRatio="none" width="100%" height="100%" overflow="visible" style="display: block;" viewBox="0 0 153.359 110" fill="none" xmlns="http://www.w3.org/2000/svg">
<g id="Group 48095692" opacity="0.48">
<path id="Vector" d="M70.0269 90.0403C70.633 90.0258 71.1723 90.0175 71.665 90.399C71.8783 90.7412 71.7797 91.1984 71.7981 91.6743L71.9572 91.8008L72.334 91.7552C72.6623 91.8858 72.7217 92.2456 72.9084 92.6583C73.4182 91.9563 73.4448 91.7946 74.2219 91.4514L74.3445 91.3985C76.2056 92.2498 76.329 93.2068 74.5509 94.3141C73.6214 94.1544 73.3649 93.917 72.9546 93.0979C72.7469 93.4421 72.5964 93.9989 72.2456 94.1534C71.5723 94.451 70.5611 94.2623 70.2278 93.5697C70.1967 93.2161 70.3345 93.0637 70.513 92.7433L70.5881 92.6116L70.3612 92.5079C68.7861 92.7081 68.6175 90.9548 70.0269 90.0403Z" fill="var(--fill-0, #BABABA)"/>
<path id="Vector_2" d="M73.2199 47.0493C73.2559 47.0453 73.2921 47.0413 73.3282 47.0372L73.5092 47.0207C74.584 46.9178 74.7458 47.0906 75.3886 47.9467C75.4436 49.3766 75.2476 50.5747 73.204 49.992C72.6495 49.8338 72.5245 49.168 72.3347 48.6608C72.2593 49.5647 72.366 49.8217 71.6695 50.4691C69.3466 50.8837 68.3035 48.8497 70.139 47.477C70.8777 46.9247 71.9348 47.5402 72.3279 48.5284C72.5896 47.8488 72.6821 47.5364 73.2199 47.0493Z" fill="var(--fill-0, #BABABA)"/>
<path id="Vector_3" d="M91.5674 97.5045C91.7343 97.5003 91.9012 97.4993 92.0681 97.5024C92.429 97.5128 92.6643 97.5449 92.9163 97.8103C93.0853 98.2893 93.1589 98.4418 93.4098 98.8845C95.0086 97.9182 95.8059 99.1447 95.3124 100.786C94.9194 101.04 94.5721 101.162 94.1418 101.34C93.8266 101.324 92.8924 100.635 92.5638 100.415L92.6125 100.381C90.5751 101.686 89.1702 98.6263 91.5674 97.5045Z" fill="var(--fill-0, #BABABA)"/>
<path id="Vector_4" d="M132.906 74.6143C135.361 74.7709 135.894 77.6647 133.192 78.4506C130.326 78.2142 130.118 75.1556 132.906 74.6143Z" fill="var(--fill-0, #BABABA)"/>
<path id="Vector_5" d="M137.238 72.9533C138.268 72.6288 139.365 73.2053 139.682 74.239C139.999 75.2717 139.414 76.3645 138.378 76.6735C137.354 76.9793 136.274 76.4018 135.961 75.3795C135.648 74.3572 136.217 73.2737 137.238 72.9533Z" fill="var(--fill-0, #BABABA)"/>
<path id="Vector_6" d="M95.6535 73.0383C96.6571 72.9927 97.1724 73.3421 97.4337 74.4349C97.5198 74.7988 97.274 75.1399 97.0521 75.4251C96.7483 75.6075 96.6156 75.5744 96.261 75.5733L96.1356 75.5712C97.021 76.9938 97.1797 78.0078 95.0739 78.2929C92.911 77.4272 93.838 74.9554 95.5508 75.4396L95.67 75.4738L95.7758 75.4012C95.2854 74.9647 94.825 74.8361 94.7566 74.1166C94.8872 73.5847 95.1983 73.3275 95.6535 73.0383Z" fill="var(--fill-0, #BABABA)"/>
<path id="Vector_7" d="M15.3156 72.8641C16.3874 72.7749 17.3269 73.5753 17.4095 74.6474C17.4922 75.7195 16.6863 76.6547 15.6136 76.7304C14.5499 76.8061 13.625 76.0088 13.543 74.945C13.4611 73.8823 14.253 72.9522 15.3156 72.8641Z" fill="var(--fill-0, #BABABA)"/>
<path id="Vector_8" d="M19.6697 74.7823C20.0861 74.5998 20.5541 74.5708 20.9897 74.7014C21.7523 74.9306 22.2935 75.6076 22.3488 76.4018C22.404 77.196 21.9618 77.9415 21.2383 78.2743C20.272 78.7181 19.1292 78.2889 18.6934 77.3194C18.2576 76.3489 18.696 75.2105 19.6697 74.7823Z" fill="var(--fill-0, #BABABA)"/>
<path id="Vector_9" d="M23.1654 83.4097C24.0188 83.2904 24.9018 83.4283 25.3978 84.2143C25.6197 84.5709 25.6852 85.0022 25.5786 85.4076C25.4122 86.0494 25.0464 86.3812 24.5024 86.6933L24.4066 86.7068C23.6287 86.8219 22.8141 86.6788 22.3289 85.9935C22.0934 85.6575 22.0024 85.2407 22.0764 84.8364C22.2185 84.0764 22.569 83.7964 23.1654 83.4097Z" fill="var(--fill-0, #BABABA)"/>
<path id="Vector_10" d="M129.234 83.3091C130.105 83.305 130.884 83.4532 131.332 84.292C131.548 84.6881 131.579 85.1588 131.416 85.5788C131.177 86.2019 130.806 86.4144 130.238 86.6778C128.968 86.6902 127.67 86.234 127.975 84.6104C128.105 83.9126 128.66 83.6492 129.234 83.3091Z" fill="var(--fill-0, #BABABA)"/>
<path id="Vector_11" d="M109.07 93.1477C109.708 93.156 110.561 93.6672 110.834 94.2602C111.007 94.6449 111.017 95.0824 110.862 95.4744C110.621 96.0934 110.155 96.309 109.596 96.5765C108.707 96.5952 107.912 96.5091 107.599 95.5625C107.16 94.2343 107.966 93.5054 109.07 93.1477Z" fill="var(--fill-0, #BABABA)"/>
<path id="Vector_12" d="M88.3946 104.792C90.0639 101.052 93.9344 106.195 90.3926 106.836C90.0027 106.907 89.6004 106.818 89.2769 106.588C88.9493 106.353 88.7845 106.085 88.6238 105.731L88.3594 105.897C88.3168 105.635 88.2391 105.329 88.181 105.066L88.3946 104.792Z" fill="var(--fill-0, #BABABA)"/>
<path id="Vector_13" d="M88.181 105.066L88.3946 104.792L88.6238 105.731L88.3594 105.897C88.3168 105.635 88.2391 105.329 88.181 105.066Z" fill="var(--fill-0, #BABABA)"/>
<path id="Vector_14" d="M142.962 57.1844C144.94 57.8219 145.083 60.5558 142.279 60.6367C141.386 60.256 140.513 59.2072 141.112 58.2556C141.551 57.5589 142.229 57.3912 142.962 57.1844Z" fill="var(--fill-0, #BABABA)"/>
<path id="Vector_15" d="M136.085 81.2055C138.346 81.1557 139.248 83.5176 137.196 84.6218C135.668 84.9308 134.854 83.7779 135.091 82.2952C135.182 81.7374 135.626 81.4854 136.085 81.2055Z" fill="var(--fill-0, #BABABA)"/>
<path id="Vector_16" d="M63.5414 106.683C64.1414 106.503 64.7918 106.669 65.2325 107.114C65.6732 107.56 65.8322 108.212 65.6459 108.81C65.4597 109.407 64.9586 109.854 64.343 109.97C63.4575 110.138 62.5959 109.582 62.3824 108.707C62.1689 107.831 62.6782 106.943 63.5414 106.683Z" fill="var(--fill-0, #BABABA)"/>
<path id="Vector_17" d="M123.293 71.5245C125.308 71.7796 125.146 74.3426 122.694 74.8828C120.35 74.0284 120.775 71.7443 123.293 71.5245Z" fill="var(--fill-0, #BABABA)"/>
<path id="Vector_18" d="M33.2093 65.3565C35.4446 65.3811 36.4323 67.5338 34.2397 68.6754C32.9392 68.722 32.4618 68.2824 31.8628 67.1668C32.1639 66.1586 32.237 65.7872 33.2093 65.3565Z" fill="var(--fill-0, #BABABA)"/>
<path id="Vector_19" d="M36.4612 59.1371C38.6635 58.9908 39.3769 61.3243 37.3327 62.5145C35.0477 62.4302 34.1554 59.9804 36.4612 59.1371Z" fill="var(--fill-0, #BABABA)"/>
<path id="Vector_20" d="M88.3594 105.897C88.2349 106.518 87.8046 107.526 87.1006 107.626C84.8269 107.946 83.8657 104.055 86.7191 104.284C87.4169 104.341 87.7165 104.542 88.181 105.066C88.2391 105.329 88.3168 105.635 88.3594 105.897Z" fill="var(--fill-0, #BABABA)"/>
<path id="Vector_21" d="M145.951 63.4087C146.666 63.3485 147.201 63.8063 147.457 64.4549C147.61 64.8495 147.601 65.2886 147.432 65.6765C147.13 66.3798 146.522 66.5456 145.853 66.8017C144.811 66.6493 143.761 65.9053 144.208 64.7209C144.521 63.8926 145.192 63.7127 145.951 63.4087Z" fill="var(--fill-0, #BABABA)"/>
<path id="Vector_22" d="M116.587 59.2489C118.861 59.4823 119.234 61.7471 116.886 62.5842C115.003 62.8783 114.016 60.0919 116.587 59.2489Z" fill="var(--fill-0, #BABABA)"/>
<path id="Vector_23" d="M10.1934 57.2391C12.5278 57.3432 13.4769 59.0923 11.4247 60.5896C9.0946 60.7767 8.31096 58.7533 10.1934 57.2391Z" fill="var(--fill-0, #BABABA)"/>
<path id="Vector_24" d="M125.953 77.3961C128.277 77.3609 128.671 79.7809 126.337 80.6653C125.144 80.7969 124.084 79.6575 124.544 78.4858C124.817 77.787 125.321 77.6668 125.953 77.3961Z" fill="var(--fill-0, #BABABA)"/>
<path id="Vector_25" d="M117.908 62.4563C119.324 62.398 119.523 62.7202 120.116 63.9099C120.085 64.006 120.054 64.1017 120.021 64.1971C119.699 65.1188 119.438 65.2813 118.577 65.698C116.494 66.0127 115.708 63.7959 117.908 62.4563Z" fill="var(--fill-0, #BABABA)"/>
<path id="Vector_26" d="M55.466 91.3902C57.5932 91.2896 58.0072 93.5966 55.9038 94.6853C53.8279 94.8263 52.7961 92.2155 55.466 91.3902Z" fill="var(--fill-0, #BABABA)"/>
<path id="Vector_27" d="M40.225 97.3105C42.8432 97.0461 43.0955 99.4256 41.111 100.585C39.3863 101.018 38.0341 98.6169 40.225 97.3105Z" fill="var(--fill-0, #BABABA)"/>
<path id="Vector_28" d="M96.7484 99.2691C99.1154 99.1312 99.5996 101.656 97.9355 102.689C97.0967 102.716 96.4332 102.623 95.9386 101.858C95.6918 101.48 95.6151 101.015 95.725 100.577C95.8971 99.9099 96.1957 99.6196 96.7484 99.2691Z" fill="var(--fill-0, #BABABA)"/>
<path id="Vector_29" d="M29.7897 71.5982C32.0866 71.3514 33.52 73.2851 31.4504 74.7263C30.7735 74.8756 29.8919 74.6444 29.4034 74.1519C29.0864 73.8336 28.9232 73.395 28.9561 72.9471C29.0014 72.3385 29.3683 71.9787 29.7897 71.5982Z" fill="var(--fill-0, #BABABA)"/>
<path id="Vector_30" d="M61.9215 7.9985C63.463 7.97911 64.4144 11.0051 61.7517 11.5626C60.8213 11.4152 59.8705 10.6931 60.1949 9.6452C60.4935 8.68043 61.1067 8.44983 61.9215 7.9985Z" fill="var(--fill-0, #BABABA)"/>
<path id="Vector_31" d="M34.5341 62.3564C36.929 62.1118 37.6502 64.3593 35.6928 65.7091C33.6453 65.6076 32.4684 63.7796 34.5341 62.3564Z" fill="var(--fill-0, #BABABA)"/>
<path id="Vector_32" d="M139.392 51.1721C140.162 51.2299 140.951 51.5689 141.169 52.3353C141.567 53.7298 140.671 54.1998 139.63 54.4891C138.379 54.4928 137.523 53.5158 138.015 52.2775C138.275 51.6269 138.788 51.4422 139.392 51.1721Z" fill="var(--fill-0, #BABABA)"/>
<path id="Vector_33" d="M127.875 80.52C130.195 80.9534 129.782 83.1733 127.497 83.7933C125.213 83.2998 125.344 80.9669 127.875 80.52Z" fill="var(--fill-0, #BABABA)"/>
<path id="Vector_34" d="M147.534 66.5011C149.167 66.5198 150.062 69.1212 147.454 69.8905C146.841 69.8117 146.056 69.5339 145.841 68.9304C145.326 67.482 146.543 66.8692 147.534 66.5011Z" fill="var(--fill-0, #BABABA)"/>
<path id="Vector_35" d="M16.437 81.3164C18.9088 81.6326 19.2174 83.8971 17.0904 84.6415C14.7744 84.7058 14.3453 82.3501 16.437 81.3164Z" fill="var(--fill-0, #BABABA)"/>
<path id="Vector_36" d="M67.4168 106.462C68.3135 106.245 69.2157 106.799 69.4285 107.695C69.6412 108.593 69.0832 109.493 68.1845 109.702C67.2921 109.908 66.4003 109.355 66.189 108.464C65.9778 107.572 66.5265 106.677 67.4168 106.462Z" fill="var(--fill-0, #BABABA)"/>
<path id="Vector_37" d="M7.40593 63.4112C8.06691 63.4732 8.8154 63.7538 9.14398 64.3712C9.33641 64.7297 9.37053 65.1523 9.23823 65.5372C9.01054 66.2076 8.56346 66.5166 7.96355 66.8038C7.70859 66.7717 7.45653 66.7198 7.20946 66.6493C6.43826 66.4316 6.19263 65.991 5.83233 65.3288C6.2002 64.3326 6.2817 63.6962 7.40593 63.4112Z" fill="var(--fill-0, #BABABA)"/>
<path id="Vector_38" d="M57.127 14.2626C57.0698 14.3067 57.0119 14.3499 56.9533 14.3922C55.6745 15.3097 53.9542 14.6341 54.1039 12.9502C54.1622 12.2948 55.4292 11.7288 55.9981 11.4286C56.3483 11.6373 56.6029 11.8468 56.9253 12.0975L57.2156 11.9522L57.5667 12.5301L57.4674 12.8252C57.5879 13.4778 57.4272 13.664 57.127 14.2626Z" fill="var(--fill-0, #BABABA)"/>
<path id="Vector_39" d="M56.9253 12.0975L57.2155 11.9521L57.5667 12.5301L57.4674 12.8251L56.9253 12.0975Z" fill="var(--fill-0, #BABABA)"/>
<path id="Vector_40" d="M31.5039 68.4741C33.6127 68.3373 35.0065 70.4016 32.8399 71.6147C32.4644 71.6458 32.2049 71.651 31.8289 71.5794C31.355 71.4841 30.9409 71.1989 30.6834 70.7894C30.079 69.8448 30.6553 68.978 31.5039 68.4741Z" fill="var(--fill-0, #BABABA)"/>
<path id="Vector_41" d="M117.117 87.782C117.389 87.0355 117.519 86.9785 118.195 86.6166C120.112 85.5871 121.126 89.2803 119.234 89.7448C118.712 89.8733 118.244 89.8142 117.777 89.5644L117.621 89.6338C117.362 89.2637 117.102 88.9516 116.959 88.5275C117.143 88.2849 117.088 88.148 117.117 87.782Z" fill="var(--fill-0, #BABABA)"/>
<path id="Vector_42" d="M117.117 87.7821C117.162 88.6012 117.472 88.8138 117.777 89.5644L117.621 89.6339C117.362 89.2637 117.102 88.9517 116.959 88.5276C117.143 88.285 117.088 88.1481 117.117 87.7821Z" fill="var(--fill-0, #BABABA)"/>
<path id="Vector_43" d="M73.6099 1.37814C75.2756 1.29737 76.4089 3.97364 73.8952 4.74909C73.2119 4.66739 72.3986 4.31103 72.1554 3.65202C71.6489 2.28029 72.6876 1.78292 73.6099 1.37814Z" fill="var(--fill-0, #BABABA)"/>
<path id="Vector_44" d="M43.704 98.6056C44.5846 98.4625 45.4192 99.0452 45.5894 99.9203C45.7596 100.796 45.2038 101.649 44.3339 101.846C43.8732 101.95 43.3898 101.853 43.0059 101.578C42.6219 101.302 42.3741 100.876 42.3253 100.407C42.2346 99.5356 42.8396 98.7455 43.704 98.6056Z" fill="var(--fill-0, #BABABA)"/>
<path id="Vector_45" d="M133.187 82.2693C134.043 82.3636 134.665 82.6861 134.92 83.5829C135.049 84.0257 134.99 84.5016 134.759 84.8997C134.46 85.4015 134.037 85.5 133.509 85.6566C131.727 85.6379 130.705 83.1527 133.187 82.2693Z" fill="var(--fill-0, #BABABA)"/>
<path id="Vector_46" d="M140.949 54.2613C142.305 54.2682 143.25 55.2185 142.593 56.5905C142.31 57.1827 141.729 57.3143 141.148 57.5087C140.009 57.5952 139.167 56.6998 139.52 55.5696C139.772 54.7643 140.256 54.6154 140.949 54.2613Z" fill="var(--fill-0, #BABABA)"/>
<path id="Vector_47" d="M144.164 60.4987C146.002 60.3986 147.039 62.7853 144.306 63.7146C143.663 63.7145 142.858 63.3887 142.643 62.7781C142.173 61.4457 143.269 60.8863 144.164 60.4987Z" fill="var(--fill-0, #BABABA)"/>
<path id="Vector_48" d="M5.3305 66.6162C7.57887 66.44 8.71254 68.2202 6.78341 69.8086C5.03956 70.2648 3.43382 68.3249 5.3305 66.6162Z" fill="var(--fill-0, #BABABA)"/>
<path id="Vector_49" d="M114.764 56.2517C116.866 56.1231 117.68 58.3611 115.412 59.4272C113.382 59.9054 112.485 57.5011 114.764 56.2517Z" fill="var(--fill-0, #BABABA)"/>
<path id="Vector_50" d="M52.271 93.9875C53.0685 93.9418 53.8177 94.0289 54.3389 94.7153C54.5797 95.0264 54.6703 95.4287 54.5863 95.8133C54.4475 96.4696 54.0299 96.7413 53.5112 97.0907C52.7056 97.2815 52.0015 97.1933 51.5247 96.424C51.2771 96.0165 51.2051 95.5261 51.3251 95.0647C51.479 94.48 51.7876 94.2912 52.271 93.9875Z" fill="var(--fill-0, #BABABA)"/>
<path id="Vector_51" d="M105.561 94.0404C106.456 93.9854 107.231 94.6593 107.3 95.5541C107.371 96.4489 106.711 97.2338 105.818 97.3199C105.226 97.3769 104.649 97.1104 104.309 96.6221C103.97 96.1337 103.92 95.5002 104.179 94.9642C104.44 94.4292 104.967 94.0756 105.561 94.0404Z" fill="var(--fill-0, #BABABA)"/>
<path id="Vector_52" d="M21.7561 41.08C22.2087 40.3958 23.1008 40.1571 23.8346 40.5239C24.5685 40.8906 24.9131 41.7473 24.6378 42.5201C24.3623 43.2928 23.5534 43.7385 22.7531 43.5584C21.9528 43.3783 21.4127 42.6292 21.4948 41.813L21.2229 41.6345L21.479 41.0019L21.7561 41.08Z" fill="var(--fill-0, #BABABA)"/>
<path id="Vector_53" d="M21.479 41.002L21.7561 41.08C21.6108 41.2995 21.5212 41.5511 21.4948 41.813L21.2229 41.6345L21.479 41.002Z" fill="var(--fill-0, #BABABA)"/>
<path id="Vector_54" d="M25.4007 80.5138C27.7627 80.3666 28.7875 82.4579 26.5687 83.5414C26.224 83.6046 25.984 83.6461 25.6332 83.587C25.1956 83.5155 24.8083 83.2625 24.5667 82.8903C23.9566 81.9364 24.54 81.0229 25.4007 80.5138Z" fill="var(--fill-0, #BABABA)"/>
<path id="Vector_55" d="M117.621 89.6338C117.348 90.8915 116.337 91.835 115.057 91.1476C114.635 90.9257 114.321 90.5421 114.186 90.0838C113.777 88.6696 115.69 87.4762 116.959 88.5275C117.102 88.9516 117.362 89.2637 117.621 89.6338Z" fill="var(--fill-0, #BABABA)"/>
<path id="Vector_56" d="M107.622 19.9242C108.275 18.3953 109.544 17.6727 110.897 19.2543C111.243 19.6585 111.14 20.0814 111.021 20.5832C110.767 20.8187 110.773 20.814 110.593 21.1114C109.187 22.3815 108.213 21.3254 107.622 19.9242Z" fill="var(--fill-0, #BABABA)"/>
<path id="Vector_57" d="M119.926 65.4779C121.062 65.6928 121.182 66.0828 121.7 67.0527C121.218 68.1507 121.03 68.329 119.938 68.7676C118.155 68.8817 117.886 67.4312 118.641 66.0705C119.194 65.7444 119.311 65.6738 119.926 65.4779Z" fill="var(--fill-0, #BABABA)"/>
<path id="Vector_58" d="M111.28 20.6505C112.743 19.5339 114.217 20.5163 113.913 22.1992C113.515 24.4019 110.265 23.479 110.869 21.2264L110.593 21.1114C110.773 20.814 110.767 20.8187 111.021 20.5832L111.28 20.6505Z" fill="var(--fill-0, #BABABA)"/>
<path id="Vector_59" d="M111.021 20.5833L111.28 20.6506L110.869 21.2264L110.593 21.1114C110.773 20.8141 110.767 20.8187 111.021 20.5833Z" fill="var(--fill-0, #BABABA)"/>
<path id="Vector_60" d="M111.719 50.2425C112.298 50.1195 112.898 50.3179 113.29 50.7618C113.682 51.2055 113.804 51.8259 113.61 52.3852C113.416 52.9446 112.936 53.3561 112.354 53.4623C111.471 53.6232 110.623 53.0456 110.45 52.1654C110.276 51.2854 110.841 50.4288 111.719 50.2425Z" fill="var(--fill-0, #BABABA)"/>
<path id="Vector_61" d="M50.7537 51.2562C51.6627 51.3028 52.3064 51.6586 52.5864 52.5788C52.7242 53.0294 52.6751 53.5165 52.4501 53.9305C52.1821 54.4245 51.9261 54.4756 51.4115 54.6456C51.09 54.636 50.6455 54.5732 50.3171 54.5373C49.8996 54.0747 49.8183 53.9589 49.5129 53.4152C49.4986 52.0667 49.5214 51.8317 50.7537 51.2562Z" fill="var(--fill-0, #BABABA)"/>
<path id="Vector_62" d="M67.4507 4.81125C68.2262 4.77082 68.9245 5.12241 69.2454 5.85731C69.4316 6.28376 69.4294 6.769 69.2395 7.19379C68.9873 7.75202 68.6172 7.89292 68.0852 8.10879C66.7859 8.18832 65.8221 7.21795 66.2078 5.92813C66.402 5.27887 66.8978 5.09296 67.4507 4.81125Z" fill="var(--fill-0, #BABABA)"/>
<path id="Vector_63" d="M121.351 68.47C122.708 68.4358 122.807 69.1647 123.209 70.2596C122.789 71.2529 122.452 71.3576 121.47 71.6977C120.302 71.7008 119.377 70.9087 119.874 69.6842C120.174 68.9428 120.668 68.7655 121.351 68.47Z" fill="var(--fill-0, #BABABA)"/>
<path id="Vector_64" d="M47.4729 98.3691C48.0204 98.4614 48.7754 98.843 48.9717 99.3666C49.4671 100.686 48.4571 101.316 47.5475 101.761C45.3482 101.283 45.0779 98.817 47.4729 98.3691Z" fill="var(--fill-0, #BABABA)"/>
<path id="Vector_65" d="M88.0431 52.3239C87.4666 53.5164 85.6003 53.118 85.2758 52.0676C84.5863 49.838 87.5143 48.635 88.2868 51.1186C88.3355 51.375 88.3158 51.3703 88.4972 51.5516L88.3676 52.3709L88.0431 52.3239Z" fill="var(--fill-0, #BABABA)"/>
<path id="Vector_66" d="M88.2868 51.1187C88.3355 51.3751 88.3158 51.3703 88.4973 51.5516L88.3677 52.3709L88.0431 52.324L88.2868 51.1187Z" fill="var(--fill-0, #BABABA)"/>
<path id="Vector_67" d="M13.3468 51.2668C15.8661 51.1321 16.284 53.3854 14.3138 54.5468C12.3186 54.4908 11.3071 52.5277 13.3468 51.2668Z" fill="var(--fill-0, #BABABA)"/>
<path id="Vector_68" d="M8.74468 60.3679C10.9218 60.5286 11.7688 62.2498 9.83511 63.6927C7.66482 63.8549 6.70295 61.7438 8.74468 60.3679Z" fill="var(--fill-0, #BABABA)"/>
<path id="Vector_69" d="M137.742 48.1584C139.809 48.1122 140.689 50.3094 138.243 51.3617C137.093 51.5266 136.124 50.765 136.426 49.557C136.628 48.7491 137.078 48.5513 137.742 48.1584Z" fill="var(--fill-0, #BABABA)"/>
<path id="Vector_70" d="M39.2197 52.9174C41.5675 52.7961 42.3037 54.8584 40.4004 56.2316C38.2803 56.1887 37.3439 54.4048 39.2197 52.9174Z" fill="var(--fill-0, #BABABA)"/>
<path id="Vector_71" d="M32.0396 89.7313C34.4578 90.0216 34.2625 92.4841 32.1918 93.1829C29.9159 92.7226 30.0525 90.7744 32.0396 89.7313Z" fill="var(--fill-0, #BABABA)"/>
<path id="Vector_72" d="M51.5608 103.094C52.3108 103.11 53.1159 103.325 53.4757 104.048C53.6521 104.395 53.6769 104.8 53.544 105.166C53.3053 105.812 52.9038 106.101 52.3063 106.351C50.009 106.32 49.5269 104.28 51.5608 103.094Z" fill="var(--fill-0, #BABABA)"/>
<path id="Vector_73" d="M139.961 80.1033C140.67 80.2173 141.217 80.6404 141.424 81.3475C141.558 81.8068 141.498 82.3003 141.257 82.715C140.949 83.2573 140.464 83.3568 139.904 83.4947C139.764 83.503 139.558 83.4864 139.418 83.4802C138.97 83.2366 138.526 82.884 138.422 82.376C138.121 80.9182 138.757 80.3936 139.961 80.1033Z" fill="var(--fill-0, #BABABA)"/>
<path id="Vector_74" d="M92.5544 100.953C94.5368 101.58 94.6425 103.929 92.2475 104.431C91.9437 104.248 91.1816 103.58 90.8685 103.316C90.6217 102.131 90.7088 102.07 91.5258 101.212L92.5544 100.953Z" fill="var(--fill-0, #BABABA)"/>
<path id="Vector_75" d="M63.0689 97.8155C64.9999 97.5418 66.4984 99.2919 64.4408 100.897C62.589 101.344 60.9666 99.1292 63.0689 97.8155Z" fill="var(--fill-0, #BABABA)"/>
<path id="Vector_76" d="M115.024 21.8031C115.917 22.12 116.933 22.3628 117.036 23.4661L117.087 23.9838L117.313 24.2201L116.756 24.9223L116.516 24.7068C115.741 25.3851 114.775 25.3641 114.188 24.4835C113.917 24.0729 113.824 23.571 113.927 23.0904C114.068 22.4235 114.495 22.1629 115.024 21.8031Z" fill="var(--fill-0, #BABABA)"/>
<path id="Vector_77" d="M117.087 23.9838L117.313 24.2201L116.756 24.9223L116.516 24.7068L117.087 23.9838Z" fill="var(--fill-0, #BABABA)"/>
<path id="Vector_78" d="M85.3888 4.79365C87.5247 4.96752 88.2443 6.71842 86.2359 8.12053C85.4594 8.15205 84.7159 7.90124 84.323 7.18178C84.1011 6.78519 84.0669 6.31115 84.2276 5.88636C84.4567 5.28272 84.8362 5.03989 85.3888 4.79365Z" fill="var(--fill-0, #BABABA)"/>
<path id="Vector_79" d="M27.2709 77.4065C29.5794 77.6263 30.1826 79.5683 27.9654 80.7316C26.1159 80.6818 24.9845 78.377 27.2709 77.4065Z" fill="var(--fill-0, #BABABA)"/>
<path id="Vector_80" d="M70.5317 3.04966C71.2682 3.12131 71.8664 3.44148 72.2135 4.12309C72.4278 4.54374 72.448 5.03706 72.2684 5.47367C72.0271 6.05896 71.5533 6.24829 71.0096 6.46799C70.778 6.44695 70.5491 6.40475 70.3253 6.34191C69.4405 6.09287 68.9573 5.0101 69.2713 4.17442C69.5209 3.51012 69.9489 3.35491 70.5317 3.04966Z" fill="var(--fill-0, #BABABA)"/>
<path id="Vector_81" d="M58.2332 102.167C59.115 102.224 59.8533 102.528 60.1222 103.453C60.2354 103.838 60.1801 104.255 59.9701 104.598C59.6562 105.113 59.2946 105.206 58.7475 105.347C56.7052 105.396 55.853 103.208 58.2332 102.167Z" fill="var(--fill-0, #BABABA)"/>
<path id="Vector_82" d="M14.9552 48.1465C16.9548 48.0533 18.0402 50.0635 16.0092 51.3793C13.7411 51.6064 12.9567 49.6801 14.9552 48.1465Z" fill="var(--fill-0, #BABABA)"/>
<path id="Vector_83" d="M37.6371 56.0363C38.3606 55.9963 39.1296 56.116 39.6066 56.7222C39.829 56.9996 39.925 57.3575 39.8715 57.709C39.7733 58.3604 39.3076 58.7891 38.8077 59.1516C37.9756 59.2029 37.1393 59.038 36.6815 58.2575C36.5013 57.9542 36.4504 57.5912 36.5399 57.25C36.7098 56.6154 37.114 56.3534 37.6371 56.0363Z" fill="var(--fill-0, #BABABA)"/>
<path id="Vector_84" d="M83.5194 27.5281C84.3738 27.4869 84.9378 27.4465 85.3805 28.2979C85.9093 29.3137 85.4407 30.2469 84.4691 30.6832C82.2317 30.9037 81.4634 28.7015 83.5194 27.5281Z" fill="var(--fill-0, #BABABA)"/>
<path id="Vector_85" d="M108.457 84.8665C111.032 84.7286 111.325 86.9132 109.153 88.0081C108.569 88.0879 107.699 87.8235 107.44 87.2854C106.855 86.0702 107.6 85.4284 108.457 84.8665Z" fill="var(--fill-0, #BABABA)"/>
<path id="Vector_86" d="M82.1861 3.14537C84.408 2.95241 85.1462 4.96895 83.2001 6.42425C81.1897 6.68926 80.2524 4.506 82.1861 3.14537Z" fill="var(--fill-0, #BABABA)"/>
<path id="Vector_87" d="M136.676 45.1687C137.778 45.3728 138.308 46.2677 137.864 47.2858C137.511 48.0946 136.991 48.2557 136.235 48.5326C134.277 48.1575 134.048 45.675 136.676 45.1687Z" fill="var(--fill-0, #BABABA)"/>
<path id="Vector_88" d="M60.2888 105.104C61.1459 104.844 62.052 105.326 62.3142 106.183C62.5765 107.039 62.096 107.946 61.2401 108.211C60.3815 108.476 59.4709 107.993 59.2077 107.134C58.9446 106.275 59.429 105.366 60.2888 105.104Z" fill="var(--fill-0, #BABABA)"/>
<path id="Vector_89" d="M150.407 72.7169C151.053 72.6506 151.776 73.0083 151.985 73.6055C152.471 75.0031 151.657 75.5371 150.626 75.9321C149.339 76.0078 148.513 75.0446 148.998 73.8087C149.258 73.1483 149.801 72.9824 150.407 72.7169Z" fill="var(--fill-0, #BABABA)"/>
<path id="Vector_90" d="M11.7178 54.2588C13.9975 54.14 14.9123 55.7862 12.9731 57.3965C11.2407 57.8923 9.70554 55.9213 11.7178 54.2588Z" fill="var(--fill-0, #BABABA)"/>
<path id="Vector_91" d="M148.98 69.5981C150.109 69.5183 150.335 70.297 150.682 71.1793C150.371 72.2389 150.297 72.4878 149.246 72.8559C148.588 72.8548 147.799 72.7263 147.518 72.0834C146.901 70.6713 148.055 70.0388 148.98 69.5981Z" fill="var(--fill-0, #BABABA)"/>
<path id="Vector_92" d="M105.766 16.6154C106.436 16.6256 107.183 16.8258 107.638 17.349C107.877 17.6185 107.994 17.974 107.963 18.3323C107.904 19.0579 107.356 19.48 106.831 19.9029C104.719 20.0965 103.88 18.042 105.766 16.6154Z" fill="var(--fill-0, #BABABA)"/>
<path id="Vector_93" d="M79.4758 1.26751C81.6272 1.74808 82.213 3.50696 80.1923 4.69496C78.017 4.87465 77.4747 2.57547 79.4758 1.26751Z" fill="var(--fill-0, #BABABA)"/>
<path id="Vector_94" d="M46.7477 16.6254C48.4334 16.5244 49.4163 18.8979 47.0785 19.9573C45.8219 19.9653 44.9094 19.0729 45.3768 17.8004C45.6414 17.0802 46.1023 16.9342 46.7477 16.6254Z" fill="var(--fill-0, #BABABA)"/>
<path id="Vector_95" d="M65.308 51.4134C64.6626 51.7236 63.6382 51.9433 63.1678 51.357C61.823 49.6807 64.3833 46.9269 65.7427 49.4147L65.9172 49.1066L66.0089 49.8966C65.6353 50.5463 66.0749 51.205 65.308 51.4134Z" fill="var(--fill-0, #BABABA)"/>
<path id="Vector_96" d="M65.7427 49.4147L65.9172 49.1067L66.0089 49.8966C65.6353 50.5463 66.0749 51.205 65.308 51.4134C65.8304 50.5895 65.747 50.3975 65.7427 49.4147Z" fill="var(--fill-0, #BABABA)"/>
<path id="Vector_97" d="M2.27714 72.8351C4.50592 72.6547 5.57831 74.5376 3.58199 75.9218C1.39884 76.2463 0.468805 74.3365 2.27714 72.8351Z" fill="var(--fill-0, #BABABA)"/>
<path id="Vector_98" d="M45.6258 84.8623C47.7218 84.7555 48.711 86.7608 46.6685 88.0402C45.9061 88.26 45.2442 88.0464 44.8322 87.3352C44.5703 86.8841 44.5124 86.3429 44.6728 85.8473C44.8647 85.2698 45.1055 85.1091 45.6258 84.8623Z" fill="var(--fill-0, #BABABA)"/>
<path id="Vector_99" d="M79.8626 14.682C80.6775 14.6285 81.3815 14.6883 81.7299 15.5626C81.9031 15.9902 81.8885 16.4709 81.6895 16.8872C81.4116 17.4841 81.1327 17.6756 80.5438 17.8757C78.5634 17.88 77.7091 15.4486 79.8626 14.682Z" fill="var(--fill-0, #BABABA)"/>
<path id="Vector_100" d="M100.234 12.9878C102.439 12.8658 102.833 15.2645 100.758 16.3286C99.4701 16.3231 99.2513 15.8535 98.7962 14.7326C99.2337 13.7794 99.3457 13.5057 100.234 12.9878Z" fill="var(--fill-0, #BABABA)"/>
<path id="Vector_101" d="M48.6737 101.456C51.0957 101.216 51.1985 103.402 49.4699 104.679C47.3719 104.82 46.5382 102.763 48.6737 101.456Z" fill="var(--fill-0, #BABABA)"/>
<path id="Vector_102" d="M124.375 74.4805C126.42 74.4722 126.994 76.7128 124.594 77.703C123.514 77.6854 122.578 77.0912 122.916 75.8937C123.145 75.0798 123.688 74.8672 124.375 74.4805Z" fill="var(--fill-0, #BABABA)"/>
<path id="Vector_103" d="M121.102 25.212C123.361 25.5277 123.415 28.1187 121.863 28.4733L120.546 28.4169C119.038 27.0771 119.508 26.1745 121.102 25.212Z" fill="var(--fill-0, #BABABA)"/>
<path id="Vector_104" d="M72.6998 21.2999C73.0494 21.2838 73.3999 21.254 73.7346 21.3666C74.1008 21.4857 74.4026 21.7483 74.5716 22.0942C75.1201 23.2107 74.3466 24.1253 73.3491 24.5656C71.4391 24.705 70.8321 22.4554 72.6998 21.2999Z" fill="var(--fill-0, #BABABA)"/>
<path id="Vector_105" d="M35.0655 91.5665C35.9532 91.5302 36.7031 92.2197 36.7426 93.1072C36.782 93.9948 36.0962 94.7465 35.2087 94.79C34.3165 94.8325 33.5593 94.142 33.5197 93.2503C33.48 92.3576 34.173 91.6028 35.0655 91.5665Z" fill="var(--fill-0, #BABABA)"/>
<path id="Vector_106" d="M28.7958 27.3039C30.5525 27.269 31.7919 29.5373 29.4266 30.5327C28.66 30.5599 28.0534 30.3315 27.6559 29.6264C27.4291 29.2173 27.3943 28.729 27.5608 28.2919C27.7855 27.6865 28.2442 27.5284 28.7958 27.3039Z" fill="var(--fill-0, #BABABA)"/>
<path id="Vector_107" d="M3.9791 69.7225C4.80919 69.4281 5.7216 69.8552 6.0284 70.6805C6.3352 71.5059 5.92285 72.4245 5.1022 72.7438C4.55993 72.9553 3.94613 72.8579 3.49594 72.4888C3.04585 72.1207 2.82926 71.538 2.92931 70.9646C3.02947 70.3913 3.43062 69.9164 3.9791 69.7225Z" fill="var(--fill-0, #BABABA)"/>
<path id="Vector_108" d="M37.5821 40.7063C38.43 40.6583 39.1826 40.611 39.6907 41.4362C39.8736 41.7322 39.9306 42.0892 39.8489 42.4274C39.6872 43.097 39.2857 43.4146 38.7421 43.7612C36.5398 44.0025 35.7843 41.7348 37.5821 40.7063Z" fill="var(--fill-0, #BABABA)"/>
<path id="Vector_109" d="M68.9128 27.6252C69.72 27.2607 70.6702 27.6165 71.0395 28.4215C71.4089 29.2266 71.0589 30.1789 70.2561 30.5531C69.4464 30.9305 68.4841 30.5768 68.1116 29.7649C67.7391 28.953 68.0985 27.9929 68.9128 27.6252Z" fill="var(--fill-0, #BABABA)"/>
<path id="Vector_110" d="M118.3 23.4964C119.251 23.8783 120.528 24.4973 119.887 25.7878C119.643 26.2697 119.207 26.6268 118.687 26.7715C117.377 27.1252 116.705 26.1393 116.756 24.9223L117.313 24.2201C117.679 23.9174 117.883 23.7294 118.3 23.4964Z" fill="var(--fill-0, #BABABA)"/>
<path id="Vector_111" d="M37.9346 21.8127C39.6829 21.8022 40.5644 24.4909 38.1198 25.1462C36.9101 25.1408 36.0985 24.0319 36.6033 22.9079C36.9075 22.2305 37.2972 22.1005 37.9346 21.8127Z" fill="var(--fill-0, #BABABA)"/>
<path id="Vector_112" d="M113.388 53.3382C115.769 53.2617 115.891 55.5518 113.798 56.4279C112.566 56.5109 111.577 55.6325 112.055 54.3527C112.298 53.7037 112.795 53.5673 113.388 53.3382Z" fill="var(--fill-0, #BABABA)"/>
<path id="Vector_113" d="M37.0045 47.5068C35.2371 49.286 33.2205 46.9204 34.557 45.5116C34.8944 45.1605 35.3587 44.9599 35.8456 44.9549C36.7967 44.9448 37.2503 45.701 37.2257 46.576L37.5498 46.6589L37.3278 47.5596L37.0045 47.5068Z" fill="var(--fill-0, #BABABA)"/>
<path id="Vector_114" d="M37.2257 46.5759L37.5497 46.6589L37.3277 47.5596L37.0045 47.5068L37.2257 46.5759Z" fill="var(--fill-0, #BABABA)"/>
<path id="Vector_115" d="M16.5108 45.0419C17.6224 45.2408 18.8146 45.711 18.3646 47.2469C18.2065 47.7866 17.7108 48.129 17.2036 48.3555C16.4725 48.3572 15.7138 48.0395 15.3931 47.3441C15.2198 46.9716 15.2081 46.5441 15.3607 46.1627C15.603 45.5654 15.9412 45.2813 16.5108 45.0419Z" fill="var(--fill-0, #BABABA)"/>
<path id="Vector_116" d="M91.2397 8.21712C93.3227 8.21504 93.9209 10.2339 92.0868 11.6104C90.1479 11.9188 89.2666 9.66277 91.2397 8.21712Z" fill="var(--fill-0, #BABABA)"/>
<path id="Vector_117" d="M39.6575 91.5945L40.239 92.2467L40.1043 92.453C40.7971 93.4846 40.3488 94.3607 39.2921 94.8553L38.5487 94.6677C38.23 94.5774 37.7101 94.4603 37.5454 94.1793C36.5607 92.4976 37.8273 91.5468 39.4025 91.7407L39.6575 91.5945Z" fill="var(--fill-0, #BABABA)"/>
<path id="Vector_118" d="M39.6575 91.5945L40.239 92.2467L40.1043 92.453C39.8685 92.2176 39.6345 91.9802 39.4024 91.7407L39.6575 91.5945Z" fill="var(--fill-0, #BABABA)"/>
<path id="Vector_119" d="M56.224 67.4622C56.9625 67.7453 57.1096 68.0169 57.5686 68.6618C57.1741 70.0108 57.1175 70.5748 55.6222 70.8247C55.4853 70.7666 55.3502 70.7054 55.2172 70.6391C53.331 69.7163 54.3084 67.8344 56.224 67.4622Z" fill="var(--fill-0, #BABABA)"/>
<path id="Vector_120" d="M88.5025 6.56294C90.6383 6.69783 91.0738 8.6955 89.0935 9.76157C86.6382 9.98127 86.4464 7.66655 88.5025 6.56294Z" fill="var(--fill-0, #BABABA)"/>
<path id="Vector_121" d="M75.7857 99.7211C76.6525 99.5801 77.4726 100.163 77.6251 101.028C77.7775 101.893 77.2062 102.721 76.3435 102.885C75.7743 102.993 75.1906 102.787 74.8163 102.344C74.443 101.903 74.3352 101.293 74.5363 100.75C74.7365 100.206 75.2134 99.8134 75.7857 99.7211Z" fill="var(--fill-0, #BABABA)"/>
<path id="Vector_122" d="M60.8927 99.7658C61.5495 99.826 62.106 100.108 62.4915 100.665C62.757 101.049 62.8455 101.529 62.7348 101.984C62.5924 102.582 62.1219 102.871 61.6339 103.164C59.4549 103.058 58.7974 101.031 60.8927 99.7658Z" fill="var(--fill-0, #BABABA)"/>
<path id="Vector_123" d="M98.6271 90.8262C99.3404 90.8107 100.132 91.074 100.571 91.6629C100.818 91.9896 100.918 92.4022 100.851 92.8055C100.734 93.4608 100.387 93.719 99.8786 94.0694C98.6935 94.3597 97.6535 93.5666 97.7375 92.3244C97.7893 91.5499 98.1004 91.3291 98.6271 90.8262Z" fill="var(--fill-0, #BABABA)"/>
<path id="Vector_124" d="M76.7873 27.7483C78.5344 27.6184 79.116 30.2214 76.778 30.9024C75.3845 30.7999 74.5592 29.6687 75.3969 28.3748C75.7173 27.8785 76.2368 27.8348 76.7873 27.7483Z" fill="var(--fill-0, #BABABA)"/>
<path id="Vector_125" d="M52.3878 13.3264C54.2241 13.1755 55.4782 15.216 53.302 16.4878C51.5009 16.8872 50.1944 14.5944 52.3878 13.3264Z" fill="var(--fill-0, #BABABA)"/>
<path id="Vector_126" d="M28.6395 74.4681C30.5562 74.439 31.9106 76.2525 29.811 77.6097C27.5001 77.6698 26.684 75.9933 28.6395 74.4681Z" fill="var(--fill-0, #BABABA)"/>
<path id="Vector_127" d="M26.0413 41.5037C28.2605 41.7732 28.75 43.8518 26.7359 44.8273C24.719 44.8811 23.9397 42.6595 26.0413 41.5037Z" fill="var(--fill-0, #BABABA)"/>
<path id="Vector_128" d="M120.535 43.8502C121.409 43.776 122.181 44.4171 122.268 45.2896C122.355 46.1621 121.725 46.9427 120.854 47.0424C120.278 47.1081 119.713 46.8592 119.373 46.3908C119.033 45.9224 118.972 45.3073 119.212 44.7811C119.454 44.2549 119.959 43.8992 120.535 43.8502Z" fill="var(--fill-0, #BABABA)"/>
<path id="Vector_129" d="M34.8118 23.5783C36.6972 23.5729 37.5502 26.1914 35.206 26.9272C33.2192 26.5859 32.6515 24.5899 34.8118 23.5783Z" fill="var(--fill-0, #BABABA)"/>
<path id="Vector_130" d="M65.9172 49.1066C66.1118 48.6383 66.4127 48.032 66.9616 47.8891C69.1076 47.3305 70.0191 50.7268 67.6251 51.1399C66.7996 51.2822 66.3034 50.5515 66.0089 49.8966L65.9172 49.1066Z" fill="var(--fill-0, #BABABA)"/>
<path id="Vector_131" d="M100.253 98.337C102.254 98.3432 103.194 100.367 101.009 101.452C100.067 101.485 99.3653 101.267 99.0273 100.282C98.8925 99.8995 98.9205 99.4796 99.1051 99.1178C99.3747 98.5911 99.722 98.4967 100.253 98.337Z" fill="var(--fill-0, #BABABA)"/>
<path id="Vector_132" d="M134.691 42.137C136.544 41.9781 137.531 44.2875 135.291 45.2856C134.095 45.4326 133.109 44.8404 133.409 43.4965C133.572 42.7627 134.083 42.5034 134.691 42.137Z" fill="var(--fill-0, #BABABA)"/>
<path id="Vector_133" d="M49.8537 14.9628C51.775 15.2133 52.1856 17.5233 49.9853 18.362C49.7855 18.3312 49.5897 18.279 49.401 18.2065C48.506 17.8668 48.0592 16.9324 48.4495 16.0518C48.7488 15.3762 49.2308 15.2357 49.8537 14.9628Z" fill="var(--fill-0, #BABABA)"/>
<path id="Vector_134" d="M145.978 78.1074C146.311 78.097 146.529 78.1084 146.815 78.2774C147.22 78.5221 147.51 78.9203 147.617 79.3816C147.899 80.5605 147.296 81.1463 146.236 81.4273C145.538 81.2759 144.955 80.9846 144.655 80.2909C144.479 79.8731 144.494 79.3982 144.698 78.9928C144.977 78.4257 145.414 78.3179 145.978 78.1074Z" fill="var(--fill-0, #BABABA)"/>
<path id="Vector_135" d="M103.122 14.6514C105.336 15 105.654 17.0279 103.571 18.0955C101.268 17.5456 101.221 15.8192 103.122 14.6514Z" fill="var(--fill-0, #BABABA)"/>
<path id="Vector_136" d="M80.0896 21.3198C80.9564 21.1861 81.7693 21.7736 81.9134 22.6379C82.0585 23.5023 81.4821 24.3227 80.6194 24.4786C80.0512 24.5813 79.4716 24.3706 79.1025 23.9269C78.7334 23.4832 78.6318 22.8752 78.8361 22.3356C79.0403 21.7958 79.5193 21.4077 80.0896 21.3198Z" fill="var(--fill-0, #BABABA)"/>
<path id="Vector_137" d="M49.8809 96.2126C50.7421 96.0332 51.587 96.5817 51.7723 97.4423C51.9576 98.3018 51.414 99.151 50.5552 99.3417C49.6884 99.5346 48.8305 98.984 48.6434 98.1162C48.4564 97.2484 49.0117 96.394 49.8809 96.2126Z" fill="var(--fill-0, #BABABA)"/>
<path id="Vector_138" d="M31.6595 25.3498C32.4456 25.2842 33.0264 25.4192 33.4318 26.1742C33.6486 26.5686 33.6839 27.0377 33.5286 27.4601C33.3397 27.9724 33.0461 28.2136 32.5797 28.449C31.6779 28.5315 31.0553 28.4677 30.5871 27.5587C30.378 27.1575 30.3562 26.6845 30.5276 26.2658C30.7574 25.694 31.1207 25.5883 31.6595 25.3498Z" fill="var(--fill-0, #BABABA)"/>
<path id="Vector_139" d="M86.9814 69.5203C87.1235 69.513 87.2645 69.5078 87.4055 69.5058C89.4429 69.4799 89.5528 71.4001 88.1344 72.6111C87.871 72.6422 87.6212 72.6692 87.3557 72.6453C86.8798 72.6038 86.4433 72.3664 86.1499 71.989C85.4552 71.0838 86.1489 70.0263 86.9814 69.5203Z" fill="var(--fill-0, #BABABA)"/>
<path id="Vector_140" d="M114.222 40.7137C115.168 40.6194 115.926 40.5885 116.499 41.4782C117.084 42.3862 116.396 43.1739 115.655 43.642C113.637 44.1329 112.604 42.1262 114.222 40.7137Z" fill="var(--fill-0, #BABABA)"/>
<path id="Vector_141" d="M77.0641 17.8267C78.3094 18.1316 78.6795 19.2717 77.9195 20.2591C77.455 20.8622 77.0434 20.8696 76.3435 20.9533C74.9034 21.0498 74.1641 17.9106 77.0641 17.8267Z" fill="var(--fill-0, #BABABA)"/>
<path id="Vector_142" d="M110.513 90.9019C113.166 90.5981 113.779 92.8926 111.69 93.8319C110.303 94.0165 108.183 91.9273 110.513 90.9019Z" fill="var(--fill-0, #BABABA)"/>
<path id="Vector_143" d="M70.4495 104.763C72.8201 104.678 73.1518 107.095 71.2851 107.901C69.1316 107.928 68.3694 105.899 70.4495 104.763Z" fill="var(--fill-0, #BABABA)"/>
<path id="Vector_144" d="M94.1687 9.78756C96.4363 9.64365 96.9329 11.7519 94.9619 13.0413C93.2905 13.4682 92.1521 11.2828 94.1687 9.78756Z" fill="var(--fill-0, #BABABA)"/>
<path id="Vector_145" d="M54.9733 103.842C57.0564 103.748 57.9283 106.204 55.7802 106.944C55.4568 106.97 55.1715 106.976 54.853 106.886C54.4537 106.773 54.1181 106.501 53.9245 106.133C53.7376 105.78 53.7084 105.364 53.8441 104.988C54.0637 104.361 54.4101 104.113 54.9733 103.842Z" fill="var(--fill-0, #BABABA)"/>
<path id="Vector_146" d="M117.779 44.9572C119.229 45.0591 119.842 47.8871 117.338 48.1931C116.645 48.0387 115.995 47.6936 115.889 46.9585C115.683 45.5285 116.77 45.1689 117.779 44.9572Z" fill="var(--fill-0, #BABABA)"/>
<path id="Vector_147" d="M38.5487 94.6676L39.2921 94.8553L39.3495 95.0886C39.5652 95.3229 39.9668 95.8465 39.9353 96.1223C39.5722 99.2877 35.5124 97.7387 37.1161 95.1446C37.2815 94.8771 37.7886 94.82 38.1444 94.8366L38.5487 94.6676Z" fill="var(--fill-0, #BABABA)"/>
<path id="Vector_148" d="M38.5487 94.6676L39.2921 94.8553L39.3495 95.0886C38.9739 94.9921 38.5296 94.9144 38.1444 94.8366L38.5487 94.6676Z" fill="var(--fill-0, #BABABA)"/>
<path id="Vector_149" d="M82.972 103.097C85.3401 103.048 85.5568 105.672 83.6812 106.318C83.4997 106.301 83.3193 106.281 83.14 106.256C81.1689 105.974 81.4427 104.141 82.972 103.097Z" fill="var(--fill-0, #BABABA)"/>
<path id="Vector_150" d="M72.6195 27.757C73.4536 27.4743 74.359 27.9215 74.641 28.7559C74.922 29.5901 74.4741 30.4949 73.6395 30.7757C72.8062 31.0561 71.9033 30.6086 71.6219 29.7757C71.3405 28.9428 71.787 28.0394 72.6195 27.757Z" fill="var(--fill-0, #BABABA)"/>
<path id="Vector_151" d="M79.9652 27.7327C80.8921 27.6881 81.621 27.8977 81.9061 28.8947C82.0181 29.2741 81.9694 29.683 81.7703 30.025C81.509 30.4827 81.2353 30.6173 80.7573 30.7621C78.6214 31.0505 77.7982 28.6507 79.9652 27.7327Z" fill="var(--fill-0, #BABABA)"/>
<path id="Vector_152" d="M150.355 77.3764C150.518 76.7947 150.553 76.52 151.087 76.2037C153.429 74.8133 154.177 78.3417 152.299 79.1131C151.811 79.3132 151.254 78.969 150.894 78.66L150.673 78.8549C150.424 78.4651 150.258 78.0576 150.067 77.6356C150.229 77.5288 150.219 77.5195 150.355 77.3764Z" fill="var(--fill-0, #BABABA)"/>
<path id="Vector_153" d="M150.067 77.6356C150.229 77.5288 150.219 77.5195 150.355 77.3764C150.496 78.0172 150.598 78.1074 150.894 78.66L150.673 78.8549C150.424 78.4651 150.258 78.0576 150.067 77.6356Z" fill="var(--fill-0, #BABABA)"/>
<path id="Vector_154" d="M40.6861 20.1559C42.0234 20.1185 42.8994 21.244 42.3771 22.5167C42.1432 23.0867 41.7156 23.2137 41.1831 23.4438C39.9239 23.4611 39.1087 22.2808 39.5385 21.1151C39.7499 20.5416 40.1688 20.3959 40.6861 20.1559Z" fill="var(--fill-0, #BABABA)"/>
<path id="Vector_155" d="M47.3578 51.5473C47.9265 51.4666 48.4946 51.6985 48.8442 52.1542C49.1939 52.61 49.2708 53.2187 49.0455 53.7471C48.8202 54.2755 48.3277 54.6415 47.7569 54.7047C47.0705 54.7808 46.4134 54.4056 46.1302 53.7758C45.8469 53.1462 46.002 52.4056 46.5142 51.9425C46.7497 51.7295 47.0435 51.592 47.3578 51.5473Z" fill="var(--fill-0, #BABABA)"/>
<path id="Vector_156" d="M13.0846 80.1987C13.7932 80.1178 14.5538 80.3625 14.9265 81.0074C15.1286 81.3548 15.1778 81.7695 15.0624 82.1542C14.8875 82.7524 14.553 83.0718 14.0278 83.3527C11.7834 83.6669 11.2163 81.2428 13.0846 80.1987Z" fill="var(--fill-0, #BABABA)"/>
<path id="Vector_157" d="M100.203 78.9514C102.345 78.8383 103.183 81.0395 101.14 82.0432C99.8558 82.3325 99.3975 81.6782 98.9205 80.6217C99.3176 79.8109 99.4669 79.5154 100.203 78.9514Z" fill="var(--fill-0, #BABABA)"/>
<path id="Vector_158" d="M76.7386 24.4444C78.4234 24.1648 79.1616 27.1132 76.6432 27.4838C76.2347 27.4962 76.0221 27.5247 75.6623 27.2745C74.8712 26.7247 74.9127 25.6579 75.4902 24.9634C75.8821 24.4925 76.1331 24.4958 76.7386 24.4444Z" fill="var(--fill-0, #BABABA)"/>
<path id="Vector_159" d="M109.996 87.7696C110.454 87.7375 111.096 87.6525 111.471 87.9241C112.79 88.878 112.659 90.2041 111.023 90.5411C110.261 90.6365 109.482 90.6023 109.074 89.8785C108.493 88.8448 109.278 88.2238 109.996 87.7696Z" fill="var(--fill-0, #BABABA)"/>
<path id="Vector_160" d="M54.2083 50.8531C56.2657 50.798 56.8987 53.4467 54.7135 53.9455C52.7236 53.9932 51.9359 51.5076 54.2083 50.8531Z" fill="var(--fill-0, #BABABA)"/>
<path id="Vector_161" d="M19.845 82.5709C22.1974 82.8208 22.5598 85.0313 20.6284 85.7872C18.5566 85.7291 17.7845 83.4657 19.845 82.5709Z" fill="var(--fill-0, #BABABA)"/>
<path id="Vector_162" d="M43.2316 87.1589L44.2791 87.3352C45.6077 88.4031 45.6125 89.6349 44.0256 90.4457C43.8849 90.4156 43.7437 90.3876 43.6025 90.3596C43.0234 90.2279 42.5226 89.8671 42.2149 89.359C41.6315 88.3751 42.3463 87.5705 43.2316 87.1589Z" fill="var(--fill-0, #BABABA)"/>
<path id="Vector_163" d="M76.3477 14.4028C76.6577 14.366 76.836 14.342 77.146 14.4173C77.5359 14.5096 77.8656 14.7691 78.046 15.1265C78.2544 15.5278 78.2793 15.9995 78.1134 16.4202C77.9039 16.9664 77.5556 17.2383 77.0506 17.4763C75.7494 17.52 74.7001 16.9872 75.176 15.3389C75.3077 14.8829 75.8946 14.5498 76.3477 14.4028Z" fill="var(--fill-0, #BABABA)"/>
<path id="Vector_164" d="M64.3368 6.57967C65.2242 6.47847 65.8846 6.78009 66.222 7.64968C66.3885 8.06939 66.3742 8.53928 66.1826 8.9481C65.9545 9.43655 65.7017 9.52417 65.2165 9.71339C63.8793 9.90759 62.8744 8.76096 63.3197 7.4645C63.5059 6.92224 63.8463 6.82167 64.3368 6.57967Z" fill="var(--fill-0, #BABABA)"/>
<path id="Vector_165" d="M88.1323 83.1059C88.3521 83.1505 88.716 83.2314 88.9203 83.3123C89.3174 83.473 89.6347 83.7851 89.8016 84.1801C90.2506 85.2138 89.4988 86.0215 88.5688 86.3771L88.4465 86.3616C86.211 86.0754 86.1831 84.1562 88.1323 83.1059Z" fill="var(--fill-0, #BABABA)"/>
<path id="Vector_166" d="M97.0511 11.4377C97.3207 11.4173 97.6079 11.3912 97.8723 11.4448C98.3129 11.531 98.6945 11.8028 98.9195 12.1906C99.47 13.1578 98.8407 14.1733 97.9148 14.6002C95.9313 14.8051 95.2636 12.7644 97.0511 11.4377Z" fill="var(--fill-0, #BABABA)"/>
<path id="Vector_167" d="M58.3357 57.1733C60.4259 57.6454 60.664 60.0201 58.5572 60.4811C56.4129 59.9858 56.2153 57.9049 58.3357 57.1733Z" fill="var(--fill-0, #BABABA)"/>
<path id="Vector_168" d="M123.891 27.2702C124.44 27.1209 125.027 27.2783 125.428 27.6824C125.829 28.0865 125.983 28.675 125.829 29.2233C125.676 29.7716 125.239 30.1951 124.687 30.3324C123.845 30.5412 122.993 30.0341 122.774 29.1951C122.556 28.356 123.054 27.4977 123.891 27.2702Z" fill="var(--fill-0, #BABABA)"/>
<path id="Vector_169" d="M142.99 79.165C144.287 79.2883 144.89 80.6559 144.276 81.7674C144.032 82.2081 143.448 82.3397 142.998 82.4662C141.546 82.346 140.39 79.73 142.99 79.165Z" fill="var(--fill-0, #BABABA)"/>
<path id="Vector_170" d="M17.9387 42.1514C20.2181 42.0333 20.7763 44.4601 18.8733 45.2605C18.5746 45.2575 18.2774 45.2175 17.9885 45.1414C16.4047 44.7091 16.4398 42.817 17.9387 42.1514Z" fill="var(--fill-0, #BABABA)"/>
<path id="Vector_171" d="M112.054 82.8322C112.904 82.6787 113.72 83.2376 113.883 84.0857C114.047 84.9349 113.497 85.756 112.651 85.9302C112.095 86.0443 111.52 85.8504 111.146 85.4222C110.773 84.994 110.657 84.3988 110.845 83.8628C111.034 83.3268 111.495 82.9328 112.054 82.8322Z" fill="var(--fill-0, #BABABA)"/>
<path id="Vector_172" d="M57.2156 11.9521C57.2133 10.3316 57.5737 10.3005 59.0046 9.73328C61.9223 11.8136 59.2945 14.0956 57.5667 12.53L57.2156 11.9521Z" fill="var(--fill-0, #BABABA)"/>
<path id="Vector_173" d="M7.10774 78.2194C9.45906 78.2162 9.6883 80.8384 7.84751 81.4398C5.55591 81.1609 5.24787 79.1846 7.10774 78.2194Z" fill="var(--fill-0, #BABABA)"/>
<path id="Vector_174" d="M90.601 85.1714C91.3288 85.1299 92.0671 85.2605 92.4766 85.9355C92.685 86.2756 92.7337 86.6913 92.6072 87.0698C92.4237 87.6411 92.0048 87.9697 91.5041 88.2445C90.7026 88.2051 90.009 88.1191 89.5807 87.3373C89.4169 87.0449 89.3786 86.6976 89.4739 86.3761C89.6419 85.8173 90.1209 85.4503 90.601 85.1714Z" fill="var(--fill-0, #BABABA)"/>
<path id="Vector_175" d="M53.3517 65.0596L54.5928 65.0203C55.7337 65.7963 55.7119 65.886 55.6641 67.2186C55.2504 67.5369 54.9895 67.6779 54.5414 67.9319C52.8333 68.4607 51.5072 66.6349 53.3517 65.0596Z" fill="var(--fill-0, #BABABA)"/>
<path id="Vector_176" d="M83.4344 48.8883C85.7787 49.2063 85.59 51.4869 83.816 52.072C81.4437 51.8296 81.3919 49.4502 83.4344 48.8883Z" fill="var(--fill-0, #BABABA)"/>
<path id="Vector_177" d="M133.405 39.2536C135.675 40.0091 135.275 41.7702 133.188 42.5165C131.192 42.1825 131.119 39.8985 133.405 39.2536Z" fill="var(--fill-0, #BABABA)"/>
<path id="Vector_178" d="M57.3655 50.034C58.3778 49.9622 59.0778 50.2369 59.3349 51.2854C59.5806 52.2869 59.0374 52.8308 58.1531 53.0256C57.3188 53.0789 56.6826 52.8956 56.3036 52.0677C56.1326 51.6956 56.125 51.269 56.2827 50.8912C56.5142 50.3347 56.8351 50.2485 57.3655 50.034Z" fill="var(--fill-0, #BABABA)"/>
<path id="Vector_179" d="M92.4289 73.0341C93.1671 73.0124 93.8421 73.199 94.1988 73.9113C94.3823 74.2825 94.4051 74.7117 94.262 75.0995C94.063 75.6449 93.6617 75.9829 93.1557 76.2265C90.7835 76.043 90.546 74.2877 92.4289 73.0341Z" fill="var(--fill-0, #BABABA)"/>
<path id="Vector_180" d="M79.7526 48.0462C81.2021 48.2006 81.3618 48.2772 81.8522 49.6495C81.6313 50.4405 81.6168 50.972 80.7894 51.2771C78.9625 51.2769 78.6287 50.3763 78.8454 48.7896C79.1191 48.5358 79.4571 48.2815 79.7526 48.0462Z" fill="var(--fill-0, #BABABA)"/>
<path id="Vector_181" d="M102.969 80.9224C105.184 80.6362 105.72 82.6964 103.686 84.0567C101.85 84.1573 100.91 82.1635 102.969 80.9224Z" fill="var(--fill-0, #BABABA)"/>
<path id="Vector_182" d="M39.6575 91.5945C39.5319 90.1201 40.1382 89.7136 41.4895 89.3404C44.0349 91.3415 42.0525 93.6775 40.239 92.2466L39.6575 91.5945Z" fill="var(--fill-0, #BABABA)"/>
<path id="Vector_183" d="M83.3359 17.6844C85.8264 17.5333 86.1893 19.9197 84.4236 20.6638C83.5143 20.6974 82.8507 20.6917 82.3986 19.7358C82.2348 19.3979 82.2255 19.006 82.3717 18.6603C82.579 18.1572 82.8611 17.8992 83.3359 17.6844Z" fill="var(--fill-0, #BABABA)"/>
<path id="Vector_184" d="M72.6515 14.649C73.492 14.4137 74.3632 14.9092 74.5903 15.7519C74.8184 16.5947 74.3145 17.4611 73.4693 17.6804C72.6357 17.8969 71.7833 17.4013 71.5591 16.5699C71.3347 15.7383 71.8221 14.8813 72.6515 14.649Z" fill="var(--fill-0, #BABABA)"/>
<path id="Vector_185" d="M58.0979 88.8085C59.8331 88.6623 60.8016 91.0034 58.7141 92.005C57.9633 92.0154 57.3082 91.7489 56.9574 91.0408C56.76 90.6323 56.7483 90.1595 56.9251 89.7416C57.1589 89.1869 57.5745 89.0428 58.0979 88.8085Z" fill="var(--fill-0, #BABABA)"/>
<path id="Vector_186" d="M37.5498 46.659C38.191 45.9832 39.1554 45.6604 39.8755 46.4231C40.2141 46.7788 40.3912 47.2583 40.365 47.7488C40.264 49.7578 37.4092 49.6822 37.3278 47.5596L37.5498 46.659Z" fill="var(--fill-0, #BABABA)"/>
<path id="Vector_187" d="M2.79163 78.5502C1.66491 79.9592 0.280324 78.8788 0.0232934 77.6284C-0.324045 75.9384 3.34717 75.2976 3.25406 77.5704C3.09791 77.8928 2.93098 78.2204 2.79163 78.5502Z" fill="var(--fill-0, #BABABA)"/>
<path id="Vector_188" d="M43.6478 18.4862C45.5147 18.3683 46.1919 20.5547 44.1765 21.6878C42.9617 21.7299 41.9654 20.7317 42.407 19.5265C42.6435 18.8811 43.0819 18.7617 43.6478 18.4862Z" fill="var(--fill-0, #BABABA)"/>
<path id="Vector_189" d="M73.3505 102.283C75.5358 102.674 75.6561 104.664 73.739 105.444C72.9274 105.325 72.3012 105.216 71.9685 104.384C71.8359 104.056 71.8403 103.689 71.9809 103.366C72.2593 102.726 72.7398 102.502 73.3505 102.283Z" fill="var(--fill-0, #BABABA)"/>
<path id="Vector_190" d="M60.5978 49.3428C61.4154 49.0916 62.283 49.5448 62.5438 50.3593C62.8047 51.1739 62.3619 52.0467 61.5504 52.3172C61.017 52.495 60.4291 52.3722 60.0113 51.9959C59.5935 51.6195 59.4103 51.0476 59.5317 50.4985C59.6531 49.9495 60.0603 49.508 60.5978 49.3428Z" fill="var(--fill-0, #BABABA)"/>
<path id="Vector_191" d="M76.5509 0.0125952C77.397 -0.0943021 78.1715 0.497524 78.2918 1.34161C78.411 2.18569 77.8304 2.96923 76.9885 3.10101C76.4327 3.188 75.8728 2.96881 75.5234 2.52743C75.175 2.08595 75.09 1.49081 75.3036 0.970007C75.5162 0.449102 75.9931 0.0832035 76.5509 0.0125952Z" fill="var(--fill-0, #BABABA)"/>
<path id="Vector_192" d="M93.4761 87.019C94.1698 87.0801 94.5638 87.3787 95.1195 87.7665C95.2232 88.1076 95.3176 88.5078 95.4098 88.8573C94.9889 89.4659 94.8054 89.778 94.1895 90.1917C92.0267 90.4633 91.3413 88.3036 93.4761 87.019Z" fill="var(--fill-0, #BABABA)"/>
<path id="Vector_193" d="M84.5283 67.8676C86.7886 68.2938 86.6154 70.3177 84.7025 71.1492C82.4909 70.581 82.437 68.8153 84.5283 67.8676Z" fill="var(--fill-0, #BABABA)"/>
<path id="Vector_194" d="M68.9552 21.1127C69.2764 21.069 69.544 21.0332 69.8591 21.1217C70.3435 21.2563 70.7542 21.5786 70.9999 22.0172C71.481 22.8846 71.0243 23.5998 70.2272 24.0137C69.3583 24.0563 68.6905 24.1748 68.1361 23.3287C67.9495 23.0481 67.8907 22.7015 67.9744 22.3751C68.1421 21.7303 68.4176 21.4484 68.9552 21.1127Z" fill="var(--fill-0, #BABABA)"/>
<path id="Vector_195" d="M126.994 41.6236C128.855 41.5974 129.35 43.8246 127.176 44.8413C126.544 44.7884 125.783 44.454 125.6 43.8358C125.207 42.4995 126.083 42.0256 126.994 41.6236Z" fill="var(--fill-0, #BABABA)"/>
<path id="Vector_196" d="M68.9552 17.7811C71.2269 17.6242 71.9969 19.5866 70.2549 20.6511C69.4575 20.7468 68.7716 20.8423 68.2517 20.1269C67.5677 19.1854 68.1824 18.3422 68.9552 17.7811Z" fill="var(--fill-0, #BABABA)"/>
<path id="Vector_197" d="M97.441 76.9803C98.2165 76.9254 98.8272 76.9752 99.2948 77.6906C99.5146 78.0224 99.5862 78.4298 99.4918 78.8166C99.3425 79.4262 98.9796 79.7165 98.4809 80.0369C98.2632 80.0711 98.0413 80.0846 97.8205 80.0774C96.0558 80.0172 96.1325 78.0773 97.441 76.9803Z" fill="var(--fill-0, #BABABA)"/>
<path id="Vector_198" d="M95.4534 51.9054C97.9957 51.5867 98.3441 53.8424 96.6882 54.8282C95.8764 54.986 95.2585 54.9349 94.7919 54.1517C94.5741 53.7909 94.513 53.3565 94.6229 52.9496C94.767 52.4022 94.9816 52.1657 95.4534 51.9054Z" fill="var(--fill-0, #BABABA)"/>
<path id="Vector_199" d="M88.6652 95.5987C89.4708 95.3011 90.3656 95.7138 90.6632 96.5204C90.9608 97.326 90.5481 98.2208 89.7415 98.5184C88.9348 98.8149 88.0411 98.4023 87.7445 97.5967C87.447 96.79 87.8596 95.8963 88.6652 95.5987Z" fill="var(--fill-0, #BABABA)"/>
<path id="Vector_200" d="M29.1521 87.3528C30.0918 87.3186 30.7604 87.2232 31.4557 88.0184C32.1222 88.7805 31.4846 89.6369 30.8505 90.1284C30.6642 90.174 30.4754 90.2082 30.2852 90.2321C28.5633 90.4425 27.9005 88.7338 29.1521 87.3528Z" fill="var(--fill-0, #BABABA)"/>
<path id="Vector_201" d="M60.7999 55.3147C61.4746 55.2482 62.1467 55.5208 62.5456 56.0827C62.7711 56.4053 62.8524 56.8071 62.7701 57.1921C62.6343 57.8034 62.193 58.0808 61.6942 58.3668C59.8496 58.8013 58.7217 56.5023 60.7999 55.3147Z" fill="var(--fill-0, #BABABA)"/>
<path id="Vector_202" d="M114.518 34.3905C117.196 34.1952 117.068 37.0063 115.591 37.2002C114.745 37.3089 113.998 37.3585 113.545 36.4978C113.04 35.5357 113.753 34.8135 114.518 34.3905Z" fill="var(--fill-0, #BABABA)"/>
<path id="Vector_203" d="M121.17 84.7534C121.94 84.7565 122.596 85.1028 122.842 85.8763C122.98 86.3107 122.929 86.7846 122.702 87.1806C122.421 87.6659 122.088 87.8131 121.582 87.9686C119.957 87.9075 118.885 85.7394 121.17 84.7534Z" fill="var(--fill-0, #BABABA)"/>
<path id="Vector_204" d="M79.8988 101.503C80.6962 101.186 81.6003 101.578 81.9155 102.376C82.2296 103.176 81.8346 104.078 81.0342 104.39C80.2389 104.7 79.342 104.308 79.0289 103.513C78.7158 102.718 79.1046 101.82 79.8988 101.503Z" fill="var(--fill-0, #BABABA)"/>
<path id="Vector_205" d="M38.3512 31.152C40.505 31.4064 40.4253 33.9721 38.4241 34.188C36.3521 34.2091 36.0688 31.8227 38.3512 31.152Z" fill="var(--fill-0, #BABABA)"/>
<path id="Vector_206" d="M89.5828 71.3876C92.0671 71.2912 92.2879 73.1078 90.4631 74.4981C88.63 74.8621 87.899 72.8361 89.5828 71.3876Z" fill="var(--fill-0, #BABABA)"/>
<path id="Vector_207" d="M76.4783 21.2133C78.7137 21.2014 78.8744 23.7952 76.778 24.203C76.4825 24.2036 76.1051 24.155 75.8417 24.0151C75.4715 23.823 75.202 23.4815 75.1014 23.0773C75.0102 22.6995 75.0775 22.3004 75.288 21.974C75.6022 21.486 75.9443 21.3435 76.4783 21.2133Z" fill="var(--fill-0, #BABABA)"/>
<path id="Vector_208" d="M69.2861 24.3161C70.1516 24.2996 70.6984 24.4507 71.0635 25.3174C71.2226 25.6939 71.2106 26.1211 71.0306 26.4882C70.8063 26.9381 70.5423 27.069 70.0962 27.2317C68.8222 27.2858 67.5253 26.7852 68.1475 25.0719C68.2951 24.6655 68.8773 24.4379 69.2861 24.3161Z" fill="var(--fill-0, #BABABA)"/>
<path id="Vector_209" d="M103.178 10.3247C105.455 10.0883 105.717 12.4631 103.865 13.3772C103.596 13.3948 103.326 13.3649 103.068 13.289C102.662 13.1678 102.35 12.9275 102.153 12.5515C101.969 12.1985 101.938 11.785 102.066 11.408C102.282 10.7706 102.606 10.5877 103.178 10.3247Z" fill="var(--fill-0, #BABABA)"/>
<path id="Vector_210" d="M111.042 47.0187C111.393 47.021 111.563 47.0235 111.873 47.214C112.203 47.4125 112.438 47.738 112.522 48.1142C112.799 49.3459 111.978 49.8726 110.945 50.1071C109.755 50.1535 109.136 48.9209 109.649 47.9197C109.973 47.286 110.422 47.2158 111.042 47.0187Z" fill="var(--fill-0, #BABABA)"/>
<path id="Vector_211" d="M77.2114 96.5671C79.5162 96.5008 79.7951 99.2017 77.8221 99.5501C75.6696 99.4879 75.1833 97.5003 77.2114 96.5671Z" fill="var(--fill-0, #BABABA)"/>
<path id="Vector_212" d="M105.545 82.8945C106.355 82.8862 107.077 83.0749 107.461 83.8712C107.62 84.1936 107.639 84.5679 107.516 84.9059C107.334 85.3995 106.98 85.6804 106.532 85.9096C104.615 86.202 103.491 84.2589 105.545 82.8945Z" fill="var(--fill-0, #BABABA)"/>
<path id="Vector_213" d="M83.4935 21.0298C85.927 20.7853 86.1354 23.409 84.3147 23.8876C83.4634 23.9205 82.8299 23.9254 82.4214 23.0444C81.9766 22.0859 82.6744 21.377 83.4935 21.0298Z" fill="var(--fill-0, #BABABA)"/>
<path id="Vector_214" d="M123.602 42.7877C124.148 42.6781 124.711 42.8703 125.075 43.291C125.44 43.7115 125.549 44.2955 125.363 44.82C125.177 45.3443 124.723 45.7281 124.176 45.8248C123.682 45.9118 123.178 45.7546 122.822 45.403C122.414 45.0015 122.263 44.4082 122.425 43.8605C122.589 43.3128 123.042 42.9002 123.602 42.7877Z" fill="var(--fill-0, #BABABA)"/>
<path id="Vector_215" d="M83.3401 24.3212C83.6117 24.2928 84.3012 24.2167 84.5324 24.3295C85.9114 25.0017 85.9125 26.6215 84.4422 27.1658C83.7486 27.228 83.1192 27.2932 82.6506 26.6763C81.9393 25.7386 82.5863 24.8718 83.3401 24.3212Z" fill="var(--fill-0, #BABABA)"/>
<path id="Vector_216" d="M114.996 31.1555C115.379 31.1644 115.696 31.1809 116.021 31.4137C116.343 31.6469 116.552 32.0064 116.593 32.4023C116.726 33.5703 115.946 34.0124 114.933 34.1052C113.114 34.1878 112.725 31.6181 114.996 31.1555Z" fill="var(--fill-0, #BABABA)"/>
<path id="Vector_217" d="M55.594 59.3167C56.4265 59.1786 57.2156 59.7344 57.366 60.5647C57.5163 61.3951 56.9722 62.1924 56.1442 62.3549C55.5975 62.4622 55.0356 62.2668 54.6735 61.8435C54.3114 61.4202 54.2054 60.8347 54.3961 60.3113C54.5867 59.7879 55.0445 59.4079 55.594 59.3167Z" fill="var(--fill-0, #BABABA)"/>
<path id="Vector_218" d="M103.073 7.02789C103.605 6.85432 104.189 6.98154 104.599 7.36051C105.01 7.73957 105.183 8.31097 105.053 8.85448C104.923 9.39788 104.509 9.82848 103.971 9.97985C103.162 10.2075 102.32 9.74688 102.077 8.94344C101.832 8.13989 102.275 7.28865 103.073 7.02789Z" fill="var(--fill-0, #BABABA)"/>
<path id="Vector_219" d="M65.7655 95.6516C68.0767 95.4837 68.5931 97.6206 66.5106 98.6989C65.0641 98.814 63.6025 96.815 65.7655 95.6516Z" fill="var(--fill-0, #BABABA)"/>
<path id="Vector_220" d="M86.1644 93.6723C88.3583 93.721 88.629 95.5438 86.9389 96.8388C84.5532 96.7579 84.3251 95.0306 86.1644 93.6723Z" fill="var(--fill-0, #BABABA)"/>
<path id="Vector_221" d="M129.697 40.4931C131.294 40.379 131.358 40.9888 131.724 42.3456C131.377 43.0859 131.301 43.2211 130.579 43.5871C128.825 43.9521 127.771 41.6135 129.697 40.4931Z" fill="var(--fill-0, #BABABA)"/>
<path id="Vector_222" d="M101.39 95.7521C101.589 95.7511 102.295 95.7356 102.449 95.7988C104.017 96.4427 103.898 98.0093 102.595 98.7268C100.868 98.3556 98.906 96.9735 101.39 95.7521Z" fill="var(--fill-0, #BABABA)"/>
<path id="Vector_223" d="M28.9321 42.9738C29.4582 42.7803 30.0479 42.8879 30.4717 43.2547C30.8956 43.6215 31.0866 44.1897 30.9705 44.7381C30.8544 45.2865 30.4495 45.7286 29.9134 45.8921C29.116 46.1354 28.2699 45.7002 28.0042 44.91C27.7385 44.1199 28.1497 43.2618 28.9321 42.9738Z" fill="var(--fill-0, #BABABA)"/>
<path id="Vector_224" d="M32.2858 44.0086C32.4029 44.013 32.52 44.0218 32.6365 44.0347C34.3794 44.2437 34.1037 45.4305 33.725 46.6635C33.4221 46.8689 33.0965 47.0104 32.7662 47.1683C32.1032 47.0754 31.5149 46.8672 31.1715 46.2404C30.9789 45.8886 30.9451 45.4715 31.0784 45.0933C31.3103 44.4444 31.7015 44.2639 32.2858 44.0086Z" fill="var(--fill-0, #BABABA)"/>
<path id="Vector_225" d="M102.082 92.5214C103.866 92.7318 104.828 95.0626 102.735 95.5499C102.202 95.5468 101.828 95.4743 101.305 95.3934C100.443 94.1855 100.561 93.0532 102.082 92.5214Z" fill="var(--fill-0, #BABABA)"/>
<path id="Vector_226" d="M119.696 77.5941C121.48 77.4728 122.562 79.6927 120.451 80.6922C118.608 80.7772 117.607 78.7004 119.696 77.5941Z" fill="var(--fill-0, #BABABA)"/>
<path id="Vector_227" d="M115.024 27.8415C116.365 27.8598 116.835 29.1666 116.173 30.2213C115.87 30.7058 115.525 30.7453 115.004 30.8743L114.905 30.8802C113.141 30.9969 112.594 28.3429 115.024 27.8415Z" fill="var(--fill-0, #BABABA)"/>
<path id="Vector_228" d="M103.266 3.6704C104.105 3.62437 104.703 3.86875 104.973 4.72776C105.111 5.18252 105.062 5.67428 104.835 6.09181C104.574 6.57156 104.326 6.63792 103.824 6.78079C101.702 6.74056 101.388 4.67872 103.266 3.6704Z" fill="var(--fill-0, #BABABA)"/>
<path id="Vector_229" d="M113.927 46.0321C114.473 45.9315 115.031 46.134 115.385 46.5616C115.741 46.9892 115.836 47.5752 115.636 48.0936C115.437 48.612 114.973 48.9819 114.422 49.0608C113.595 49.1794 112.825 48.6143 112.69 47.7895C112.555 46.9647 113.104 46.1836 113.927 46.0321Z" fill="var(--fill-0, #BABABA)"/>
<path id="Vector_230" d="M68.6566 93.4017C69.4795 93.2845 70.2455 93.8465 70.3812 94.6666C70.517 95.4868 69.9728 96.2654 69.156 96.4189C68.4987 96.5433 67.837 96.226 67.5225 95.635C67.288 95.1954 67.2828 94.6687 67.5086 94.2239C67.7344 93.7791 68.1628 93.4722 68.6566 93.4017Z" fill="var(--fill-0, #BABABA)"/>
<path id="Vector_231" d="M114.948 37.4679C116.238 37.623 117.179 38.5821 116.293 39.8882C116.018 40.2925 115.513 40.2934 115.044 40.3413C112.88 40.56 112.948 38.0948 114.948 37.4679Z" fill="var(--fill-0, #BABABA)"/>
<path id="Vector_232" d="M107.433 48.3668C109.85 48.159 109.966 50.6636 108.55 51.2196C107.641 51.3152 106.95 51.2668 106.496 50.3686C106.001 49.3912 106.636 48.7524 107.433 48.3668Z" fill="var(--fill-0, #BABABA)"/>
<path id="Vector_233" d="M85.2478 81.3247C87.1908 81.1722 88.1395 82.9701 86.2276 84.2537C84.0492 84.4155 83.3255 82.6829 85.2478 81.3247Z" fill="var(--fill-0, #BABABA)"/>
<path id="Vector_234" d="M68.952 14.6714C71.0723 14.6132 72.1312 16.1822 70.302 17.4553C69.4827 17.4829 68.7606 17.5888 68.2038 16.8471C67.5641 15.9951 68.2913 15.164 68.952 14.6714Z" fill="var(--fill-0, #BABABA)"/>
<path id="Vector_235" d="M37.8459 27.939C40.4407 27.7583 40.1625 30.6776 38.8232 30.8875C38.0138 30.8891 37.4007 30.9142 36.9732 30.0982C36.4653 29.129 37.008 28.3845 37.8459 27.939Z" fill="var(--fill-0, #BABABA)"/>
<path id="Vector_236" d="M44.3787 81.8462C45.22 81.7954 45.9413 82.4403 45.9865 83.2812C46.0317 84.1231 45.3836 84.8406 44.5418 84.881C43.7068 84.9215 42.996 84.2797 42.9512 83.445C42.9063 82.6093 43.5442 81.8949 44.3787 81.8462Z" fill="var(--fill-0, #BABABA)"/>
<path id="Vector_237" d="M38.2903 37.6231C40.3571 37.7673 40.3308 40.3015 38.6046 40.4222C38.1837 40.4191 37.5452 40.4537 37.2407 40.1535C36.1008 39.0302 36.8158 37.7112 38.2903 37.6231Z" fill="var(--fill-0, #BABABA)"/>
<path id="Vector_238" d="M83.5236 14.5673C85.6221 14.5673 86.1353 16.7292 84.2877 17.3542C84.0202 17.3706 83.3888 17.4331 83.1669 17.3094C81.5619 16.4158 81.9922 15.086 83.5236 14.5673Z" fill="var(--fill-0, #BABABA)"/>
<path id="Vector_239" d="M96.063 89.0366C96.8697 88.8044 97.7116 89.271 97.9417 90.0776C98.1719 90.8843 97.7033 91.7251 96.8956 91.9532C96.091 92.1803 95.2543 91.7137 95.0251 90.9102C94.796 90.1067 95.2605 89.2689 96.063 89.0366Z" fill="var(--fill-0, #BABABA)"/>
<path id="Vector_240" d="M76.75 47.3126C78.8475 47.2727 79.201 49.7507 77.5898 50.4344C75.4218 50.4839 74.9614 48.3589 76.75 47.3126Z" fill="var(--fill-0, #BABABA)"/>
<path id="Vector_241" d="M118.105 27.8417C118.745 27.8654 119.306 28.2103 119.559 28.8085C119.736 29.2352 119.722 29.7168 119.523 30.1335C119.283 30.6283 119.023 30.6972 118.53 30.8774C117.644 30.876 116.948 30.6432 116.718 29.6743C116.623 29.278 116.689 28.8603 116.901 28.5122C117.213 28.0027 117.556 27.962 118.105 27.8417Z" fill="var(--fill-0, #BABABA)"/>
<path id="Vector_242" d="M117.075 79.2459C118.74 79.2842 119.986 81.2646 117.79 82.3221C116.073 82.5253 115.009 80.3553 117.075 79.2459Z" fill="var(--fill-0, #BABABA)"/>
<path id="Vector_243" d="M88.4973 51.5516C88.7783 51.0863 89.0883 50.7681 89.6243 50.6271C91.3714 50.1673 92.1977 53.4199 90.318 53.6479C89.4263 53.756 88.6663 53.2222 88.3677 52.3709L88.4973 51.5516Z" fill="var(--fill-0, #BABABA)"/>
<path id="Vector_244" d="M40.4738 80.7803C39.2842 81.4625 38.0864 80.9389 38.0081 79.5942C37.9193 78.07 41.2006 77.4189 41.0571 79.7963L41.3721 79.7673C41.1338 80.0244 40.9957 80.3593 40.9832 80.7098L40.4738 80.7803Z" fill="var(--fill-0, #BABABA)"/>
<path id="Vector_245" d="M41.0571 79.7963L41.3721 79.7673C41.1337 80.0244 40.9956 80.3593 40.9832 80.7098L40.4738 80.7803C40.661 80.4267 40.808 80.1126 41.0571 79.7963Z" fill="var(--fill-0, #BABABA)"/>
<path id="Vector_246" d="M98.4706 52.7213C100.71 52.6333 101.428 54.4345 99.8848 55.7411C98.8884 55.767 97.6224 55.4708 97.7178 54.1956C97.7562 53.6218 98.0278 53.0888 98.4706 52.7213Z" fill="var(--fill-0, #BABABA)"/>
<path id="Vector_247" d="M101.84 52.4077C103.323 52.3045 104.088 53.11 103.611 54.6841C103.472 55.1438 103.071 55.2752 102.638 55.4573C102.101 55.5167 101.541 55.4837 101.242 54.9988C100.544 53.8648 100.887 53.0508 101.84 52.4077Z" fill="var(--fill-0, #BABABA)"/>
<path id="Vector_248" d="M31.0556 81.9644C31.2355 81.9519 31.4157 81.9457 31.596 81.9436C33.3302 81.9426 34.0784 83.4792 32.4535 84.7939C30.529 85.218 29.489 82.9971 31.0556 81.9644Z" fill="var(--fill-0, #BABABA)"/>
<path id="Vector_249" d="M37.815 34.488C39.0547 34.4018 40.2411 34.7903 39.7929 36.4577C39.6582 36.9589 39.1873 37.1774 38.71 37.3444L38.1524 37.2817C36.5045 37.1103 36.3734 35.4175 37.815 34.488Z" fill="var(--fill-0, #BABABA)"/>
<path id="Vector_250" d="M76.1579 93.5707C77.4975 93.5096 78.3135 94.6159 77.6769 95.8476C77.4384 96.309 76.919 96.3909 76.4514 96.5247C76.0574 96.6211 75.2352 96.3546 75.0724 95.9471C74.5602 94.6646 75.1709 94.1006 76.1579 93.5707Z" fill="var(--fill-0, #BABABA)"/>
<path id="Vector_251" d="M10.2018 79.2437C12.3447 79.2251 12.3193 81.8275 10.7488 82.5232C8.58491 82.2505 8.56303 80.3448 10.2018 79.2437Z" fill="var(--fill-0, #BABABA)"/>
<path id="Vector_252" d="M69.181 64.7394C71.2628 64.7644 71.9936 66.6286 70.0048 67.7121C68.0533 67.9983 67.4307 65.8066 69.181 64.7394Z" fill="var(--fill-0, #BABABA)"/>
<path id="Vector_253" d="M63.386 53.4215C64.173 53.2074 64.9865 53.6621 65.2164 54.4446C65.4461 55.227 65.0076 56.0496 64.2299 56.295C63.7128 56.4582 63.148 56.3291 62.7531 55.9575C62.3581 55.586 62.1948 55.03 62.3261 54.504C62.4575 53.9779 62.8629 53.5639 63.386 53.4215Z" fill="var(--fill-0, #BABABA)"/>
<path id="Vector_254" d="M94.0308 6.22184C94.3481 6.18596 94.4155 6.15662 94.7297 6.22992L95.0303 6.46321C98.2621 8.15003 92.6508 11.2016 92.9971 7.42912C93.0334 7.0427 93.4803 6.62807 93.8307 6.46124L94.0308 6.22184Z" fill="var(--fill-0, #BABABA)"/>
<path id="Vector_255" d="M94.0308 6.22184C94.3481 6.18596 94.4155 6.15662 94.7297 6.22992L95.0304 6.46321L93.8307 6.46124L94.0308 6.22184Z" fill="var(--fill-0, #BABABA)"/>
<path id="Vector_256" d="M105.221 51.6639C106.999 52.1209 107.396 54.2453 105.588 54.8369C104.906 54.7606 104.281 54.6343 104.017 53.941C103.509 52.6108 104.203 52.0822 105.221 51.6639Z" fill="var(--fill-0, #BABABA)"/>
<path id="Vector_257" d="M58.3774 68.8878C60.5234 68.8194 60.9841 71.1347 59.0909 71.9081C56.9887 71.8107 56.7043 69.8096 58.3774 68.8878Z" fill="var(--fill-0, #BABABA)"/>
<path id="Vector_258" d="M3.51583 77.6677C4.033 77.339 4.24348 77.3204 4.84422 77.4344C6.74846 77.7953 5.82299 80.7575 4.1173 80.2359C3.52765 80.0555 3.18166 79.5185 2.92919 78.9917C2.92857 78.773 2.89104 78.775 2.7916 78.5501C2.93095 78.2203 3.09789 77.8927 3.25403 77.5703L3.51583 77.6677Z" fill="var(--fill-0, #BABABA)"/>
<path id="Vector_259" d="M3.25403 77.5703L3.51583 77.6678C3.33708 78.067 3.07963 78.5957 2.92919 78.9918C2.92857 78.773 2.89104 78.7751 2.7916 78.5501C2.93095 78.2204 3.09789 77.8928 3.25403 77.5703Z" fill="var(--fill-0, #BABABA)"/>
<path id="Vector_260" d="M21.2229 41.6346C19.4016 43.5613 17.8979 40.7923 18.7763 39.8303C19.6256 38.9 21.4659 39.1652 21.479 41.002L21.2229 41.6346Z" fill="var(--fill-0, #BABABA)"/>
<path id="Vector_261" d="M48.198 82.8374C48.7182 82.6954 49.2741 82.8467 49.6512 83.2324C50.0282 83.6171 50.1673 84.1759 50.0148 84.6933C49.8621 85.2107 49.4417 85.6047 48.9159 85.7229C48.1269 85.9012 47.34 85.416 47.1448 84.6311C46.9495 83.8462 47.4174 83.0489 48.198 82.8374Z" fill="var(--fill-0, #BABABA)"/>
<path id="Vector_262" d="M92.4849 51.388C93.7291 51.28 94.6861 51.6441 94.3782 53.2243C94.2714 53.7743 93.9313 54.008 93.444 54.2664C91.3268 54.706 90.9939 52.2712 92.4849 51.388Z" fill="var(--fill-0, #BABABA)"/>
<path id="Vector_263" d="M150.673 78.855C150.645 79.4491 150.176 80.2194 149.576 80.2516C147.66 80.3542 146.617 77.6947 148.988 77.2375C149.43 77.1525 149.74 77.3609 150.067 77.6356C150.258 78.0576 150.424 78.4651 150.673 78.855Z" fill="var(--fill-0, #BABABA)"/>
<path id="Vector_264" d="M44.2478 48.3758C46.5624 48.2282 46.9988 50.1649 45.3794 51.1961C43.1589 51.4903 42.6998 49.698 44.2478 48.3758Z" fill="var(--fill-0, #BABABA)"/>
<path id="Vector_265" d="M40.61 50.017L40.9663 50.0919C42.8774 50.4912 43.2936 51.8044 41.6335 52.9705C41.4087 52.9587 41.1284 52.9453 40.909 52.9096C40.4418 52.8314 40.031 52.5556 39.7818 52.1528C39.2305 51.2613 39.8608 50.4906 40.61 50.017Z" fill="var(--fill-0, #BABABA)"/>
<path id="Vector_266" d="M35.2631 80.8685C35.3236 81.7715 34.5965 82.9805 33.6649 82.6653C31.7143 82.0059 32.0199 78.4412 34.7249 80.0691L35.0799 79.9675L35.3952 80.8394L35.2631 80.8685Z" fill="var(--fill-0, #BABABA)"/>
<path id="Vector_267" d="M35.0799 79.9675L35.3952 80.8395L35.2631 80.8685L34.7249 80.0691L35.0799 79.9675Z" fill="var(--fill-0, #BABABA)"/>
<path id="Vector_268" d="M83.2416 92.1202C84.1747 92.0486 85.3463 92.256 85.3712 93.4463C85.3847 94.1005 84.8704 94.5236 84.4391 94.9497C82.5417 95.55 81.8149 93.5935 83.2416 92.1202Z" fill="var(--fill-0, #BABABA)"/>
<path id="Vector_269" d="M80.7044 90.2673C83.0902 90.0921 83.367 92.3233 81.6511 93.243C81.4136 93.2223 81.1783 93.1787 80.9502 93.1134C80.2431 92.904 79.9527 92.3638 79.6158 91.7666C79.9776 91.1808 80.1746 90.6914 80.7044 90.2673Z" fill="var(--fill-0, #BABABA)"/>
<path id="Vector_270" d="M114.475 81.1328C116.419 81.0385 117.222 82.9442 115.443 84.0215C114.616 84.0495 114.496 83.9779 113.798 83.5155C113.267 82.3314 113.212 81.7176 114.475 81.1328Z" fill="var(--fill-0, #BABABA)"/>
<path id="Vector_271" d="M53.1233 61.9304C55.0368 61.9651 55.8093 63.7689 54.1727 64.7398C53.3414 64.7693 52.6627 64.7985 52.1771 63.9915C51.5976 63.0288 52.3504 62.3327 53.1233 61.9304Z" fill="var(--fill-0, #BABABA)"/>
<path id="Vector_272" d="M41.3721 79.7673C41.8535 79.2479 42.6379 79.1473 43.2344 79.5289C43.831 79.9114 44.0684 80.6652 43.7982 81.3195C43.5279 81.9747 42.8276 82.3418 42.1354 82.1914C41.4432 82.0411 40.9579 81.4169 40.9832 80.7098C40.9956 80.3594 41.1337 80.0245 41.3721 79.7673Z" fill="var(--fill-0, #BABABA)"/>
<path id="Vector_273" d="M61.4092 68.8868C63.3663 68.8194 64.0693 70.6899 62.4379 71.8127C60.2999 71.8988 59.7318 69.8604 61.4092 68.8868Z" fill="var(--fill-0, #BABABA)"/>
<path id="Vector_274" d="M34.7902 27.934C35.6239 27.8864 35.8094 28.0641 36.5009 28.5196C36.6412 29.6267 36.9554 30.4244 35.7583 30.9199C33.7819 30.7147 32.993 29.2196 34.7902 27.934Z" fill="var(--fill-0, #BABABA)"/>
<path id="Vector_275" d="M81.2892 66.275C81.7817 66.0865 82.3375 66.1786 82.7429 66.5156C83.1493 66.8536 83.3411 67.3834 83.2447 67.9018C83.1493 68.4202 82.7812 68.8474 82.2825 69.0174C81.5298 69.2746 80.7096 68.8816 80.439 68.1341C80.1684 67.3865 80.5469 66.5591 81.2892 66.275Z" fill="var(--fill-0, #BABABA)"/>
<path id="Vector_276" d="M29.8646 84.2185C31.0981 84.4456 32.8253 86.1449 30.7102 87.1247C28.35 87.1372 27.8643 84.9318 29.8646 84.2185Z" fill="var(--fill-0, #BABABA)"/>
<path id="Vector_277" d="M58.5557 81.9384C60.3619 81.927 60.8033 83.953 58.7134 84.9349C56.7532 84.7451 56.579 82.883 58.5557 81.9384Z" fill="var(--fill-0, #BABABA)"/>
<path id="Vector_278" d="M35.0799 79.9675C35.0167 78.9161 35.1436 77.9685 36.4998 78.1343C36.8911 78.1789 37.2428 78.3946 37.4611 78.7222C38.3162 79.9882 37.3024 81.7467 35.3952 80.8394L35.0799 79.9675Z" fill="var(--fill-0, #BABABA)"/>
<path id="Vector_279" d="M76.102 63.0871C78.5147 62.9084 78.6578 64.8761 76.9905 65.9057C76.4441 65.9657 75.8365 65.8951 75.511 65.4309C74.7562 64.3545 75.2829 63.6864 76.102 63.0871Z" fill="var(--fill-0, #BABABA)"/>
<path id="Vector_280" d="M71.7656 62.9149C72.5333 62.6655 73.3571 63.0901 73.5994 63.86C73.8417 64.6299 73.4096 65.4497 72.6375 65.6849C71.8753 65.9172 71.0685 65.4919 70.8292 64.7319C70.59 63.9719 71.0078 63.1611 71.7656 62.9149Z" fill="var(--fill-0, #BABABA)"/>
<path id="Vector_281" d="M96.9194 0.78899C97.7738 0.714857 98.2901 0.688936 98.8054 1.4817C98.9972 1.77543 99.0615 2.1347 98.9827 2.47675C98.8666 3.00335 98.6281 3.26391 98.1937 3.53805C96.1148 3.97227 95.5436 2.03982 96.9194 0.78899Z" fill="var(--fill-0, #BABABA)"/>
<path id="Vector_282" d="M66.7123 66.3819C67.3509 66.415 67.8935 66.6068 68.2439 67.1813C68.4484 67.5193 68.5056 67.9257 68.4024 68.3073C68.2278 68.9304 67.8629 69.1284 67.3284 69.4042C66.7022 69.5566 66.2902 69.3918 65.9854 68.8143C65.3639 67.6354 65.7867 66.9459 66.7123 66.3819Z" fill="var(--fill-0, #BABABA)"/>
<path id="Vector_283" d="M102.022 2.7354C101.761 3.36289 101.316 3.54402 100.678 3.63962C98.8127 3.91925 98.9931 0.578683 100.68 0.685269C101.24 0.720729 101.668 1.0859 102.031 1.48083L102.022 2.7354Z" fill="var(--fill-0, #BABABA)"/>
<path id="Vector_284" d="M101.585 71.9071C102.282 72.0046 102.726 72.241 102.943 72.9481C103.073 73.3722 103.018 73.8325 102.792 74.2141C102.536 74.6475 102.16 74.7657 101.701 74.8663C100.978 74.6444 100.388 74.3126 100.202 73.5111C100.128 73.198 100.188 72.8693 100.363 72.6008C100.672 72.129 101.071 72.0326 101.585 71.9071Z" fill="var(--fill-0, #BABABA)"/>
<path id="Vector_285" d="M50.6467 81.0146C51.2559 81.0395 51.8463 81.3112 52.2053 81.8182C52.4242 82.1241 52.4988 82.5108 52.4095 82.8758C52.2725 83.4201 51.8477 83.6472 51.3967 83.9033C49.8137 84.0028 48.5549 82.0815 50.6467 81.0146Z" fill="var(--fill-0, #BABABA)"/>
<path id="Vector_286" d="M78.5468 64.7467L78.7531 64.7369C80.7117 64.6636 81.1814 66.1195 79.707 67.4819C77.68 67.8127 77.0963 66.1124 78.5468 64.7467Z" fill="var(--fill-0, #BABABA)"/>
<path id="Vector_287" d="M94.0309 6.22185C93.6493 6.09183 93.135 5.89504 92.9961 5.50073C92.2734 3.44469 95.2595 2.67495 95.8132 4.67603C95.9023 4.99216 95.8505 5.33163 95.6711 5.60691C95.414 6.00318 95.1538 6.08561 94.7297 6.22993C94.4155 6.15663 94.3481 6.18598 94.0309 6.22185Z" fill="var(--fill-0, #BABABA)"/>
<path id="Vector_288" d="M52.7552 79.4719C53.8452 79.4159 54.9328 79.7041 54.6475 81.2355C54.5604 81.7021 54.118 82.0007 53.6893 82.1925C52.0463 82.2869 50.8804 80.5066 52.7552 79.4719Z" fill="var(--fill-0, #BABABA)"/>
<path id="Vector_289" d="M65.8298 84.0432C67.4325 84.2319 67.9603 86.2807 66.1294 86.9858C64.268 86.7856 63.6846 84.46 65.8298 84.0432Z" fill="var(--fill-0, #BABABA)"/>
<path id="Vector_290" d="M62.9486 85.1247C63.7062 85.0075 64.4198 85.5135 64.5595 86.2672C64.6992 87.021 64.2142 87.7499 63.4648 87.9117C62.96 88.0205 62.4358 87.8463 62.0966 87.4565C61.7574 87.0677 61.6568 86.5244 61.834 86.0391C62.0112 85.5539 62.4382 85.2034 62.9486 85.1247Z" fill="var(--fill-0, #BABABA)"/>
<path id="Vector_291" d="M56.2912 79.9125C57.0574 79.8565 57.7287 80.4216 57.8027 81.1868C57.8767 81.9509 57.3264 82.6352 56.5635 82.7264C56.0544 82.7876 55.5522 82.5678 55.2512 82.1531C54.9501 81.7383 54.8973 81.193 55.1131 80.7274C55.3291 80.2619 55.7798 79.9508 56.2912 79.9125Z" fill="var(--fill-0, #BABABA)"/>
<path id="Vector_292" d="M74.0326 60.8367C74.5177 60.6496 75.0661 60.7441 75.4601 61.0829C75.8552 61.4215 76.0314 61.9496 75.9195 62.4573C75.8085 62.965 75.427 63.3703 74.9262 63.5123C74.2004 63.7184 73.4407 63.3171 73.2016 62.6014C72.9625 61.8856 73.3285 61.1084 74.0326 60.8367Z" fill="var(--fill-0, #BABABA)"/>
<path id="Vector_293" d="M68.654 84.8592C70.6498 84.6622 71.3146 86.3927 69.2327 87.4513C67.6151 87.8173 66.6593 85.7778 68.654 84.8592Z" fill="var(--fill-0, #BABABA)"/>
<path id="Vector_294" d="M70.2214 87.2481C72.2815 87.2979 72.5367 89.2533 70.8196 89.8308C68.4652 89.8091 68.26 88.0164 70.2214 87.2481Z" fill="var(--fill-0, #BABABA)"/>
<path id="Vector_295" d="M98.4301 72.5178C100.569 72.3136 100.733 74.6102 99.2192 75.3059C98.5048 75.3536 97.9978 75.1628 97.6411 74.4992C97.4483 74.1363 97.414 73.7112 97.5447 73.3224C97.7064 72.8444 98.0019 72.7377 98.4301 72.5178Z" fill="var(--fill-0, #BABABA)"/>
<path id="Vector_296" d="M60.8837 87.2294C61.6465 87.2025 62.2903 87.7924 62.329 88.5545C62.3677 89.3166 61.7872 89.9688 61.0255 90.0185C60.5228 90.0517 60.0414 89.8111 59.7656 89.3892C59.4898 88.9682 59.4625 88.4311 59.6941 87.9832C59.9257 87.5363 60.3802 87.2481 60.8837 87.2294Z" fill="var(--fill-0, #BABABA)"/>
<path id="Vector_297" d="M59.1766 84.8758C61.3969 84.6695 62.1383 86.1978 60.0791 87.2968C58.4753 87.8702 57.4423 85.8732 59.1766 84.8758Z" fill="var(--fill-0, #BABABA)"/>
<path id="Vector_298" d="M64.4861 67.9537C65.9536 67.989 66.9137 69.8853 64.8845 70.7511C63.7262 70.6422 62.873 70.0077 63.3949 68.6639C63.5715 68.2098 64.0382 68.1072 64.4861 67.9537Z" fill="var(--fill-0, #BABABA)"/>
<path id="Vector_299" d="M78.3021 88.8977C78.7915 88.7867 79.3016 88.9495 79.6376 89.3217C79.9735 89.695 80.0824 90.2196 79.9217 90.6945C79.761 91.1704 79.3566 91.5219 78.8631 91.6142C78.1197 91.7541 77.4011 91.272 77.2487 90.5317C77.0953 89.7904 77.5639 89.0636 78.3021 88.8977Z" fill="var(--fill-0, #BABABA)"/>
<path id="Vector_300" d="M41.5978 47.3082C43.6274 47.3217 43.9651 49.2993 42.425 50.1583C41.7918 49.9899 41.2212 49.9268 40.8292 49.3466C40.1991 48.414 40.7897 47.7691 41.5978 47.3082Z" fill="var(--fill-0, #BABABA)"/>
<path id="Vector_301" d="M69.1357 37.3822C69.3563 37.3769 69.8161 37.3586 70.0139 37.4343C70.4247 37.5938 70.7537 37.9124 70.9261 38.3179C71.2628 39.1291 70.7186 39.6913 70.0093 39.9545C68.1096 40.3439 67.4375 38.4347 69.1357 37.3822Z" fill="var(--fill-0, #BABABA)"/>
<path id="Vector_302" d="M93.9178 0.773027C95.6545 0.695783 96.681 2.31075 94.9609 3.26972C92.8914 3.39994 92.0111 1.91769 93.9178 0.773027Z" fill="var(--fill-0, #BABABA)"/>
<path id="Vector_303" d="M66.1136 51.5647C67.9121 51.5069 68.1781 53.3978 66.2082 54.2922C65.3588 54.1145 64.495 53.6088 64.8072 52.6127C65.0024 51.99 65.5776 51.8188 66.1136 51.5647Z" fill="var(--fill-0, #BABABA)"/>
<path id="Vector_304" d="M72.2982 37.4813C73.5042 37.5014 74.4803 38.0125 73.8339 39.5247C73.6868 39.8686 73.314 39.9574 72.9585 40.0528C71.7916 40.122 71.0269 39.6523 71.3855 38.2734C71.5023 37.8239 71.8814 37.6619 72.2982 37.4813Z" fill="var(--fill-0, #BABABA)"/>
<path id="Vector_305" d="M108.695 51.507C110.052 51.3261 110.515 53.7326 108.458 54.0569C107.545 53.8741 106.515 53.2055 107.199 52.1089C107.51 51.6098 108.152 51.5789 108.695 51.507Z" fill="var(--fill-0, #BABABA)"/>
<path id="Vector_306" d="M102.476 1.30444C104.423 -0.0238403 106.061 2.35942 104.358 3.34068C103.734 3.70035 102.628 3.49081 102.336 2.61137C102.336 2.18399 102.417 1.73089 102.476 1.30444Z" fill="var(--fill-0, #BABABA)"/>
<path id="Vector_307" d="M83.6988 37.4696C83.9331 37.465 84.1353 37.4547 84.3644 37.5114C84.7387 37.602 85.056 37.8497 85.2343 38.191C85.6563 39.0023 85.1649 39.6952 84.4256 40.0572C82.2649 40.2079 81.9963 38.2529 83.6988 37.4696Z" fill="var(--fill-0, #BABABA)"/>
<path id="Vector_308" d="M103.838 71.6055C104.033 71.5847 104.228 71.5692 104.424 71.5588C105.864 71.4976 106.495 73.1037 105.155 74.0793C103.173 74.4163 102.525 72.8756 103.838 71.6055Z" fill="var(--fill-0, #BABABA)"/>
<path id="Vector_309" d="M69.6368 40.4052C70.2937 40.3223 70.7064 40.5203 70.8973 41.1959C71.0153 41.6295 70.939 42.0931 70.688 42.4659C70.4359 42.8344 70.265 42.8322 69.9002 42.8956C69.5342 42.8841 68.9864 42.9515 68.7193 42.6986C67.6211 41.6589 68.3248 40.5405 69.6368 40.4052Z" fill="var(--fill-0, #BABABA)"/>
<path id="Vector_310" d="M80.8973 37.5053C81.593 37.4034 82.2452 37.8736 82.3675 38.5668C82.4909 39.2601 82.0399 39.9255 81.3504 40.0689C80.8859 40.1657 80.4058 40.0021 80.0969 39.6418C79.7879 39.2816 79.6997 38.7817 79.8656 38.3372C80.0326 37.8927 80.4276 37.574 80.8973 37.5053Z" fill="var(--fill-0, #BABABA)"/>
<path id="Vector_311" d="M83.6687 40.3806C84.3509 40.1683 85.0778 40.5464 85.2955 41.2275C85.5132 41.9086 85.141 42.6378 84.4609 42.861C83.7745 43.0865 83.0352 42.7091 82.8144 42.0203C82.5946 41.3314 82.9782 40.5953 83.6687 40.3806Z" fill="var(--fill-0, #BABABA)"/>
<path id="Vector_312" d="M74.8153 37.5882C75.5535 37.5584 76.1362 37.4257 76.6453 38.0929C77.1419 38.7439 76.7303 39.5774 76.1663 40.0219C75.5618 40.0841 75.1574 40.1779 74.6701 39.7427C73.9598 39.109 74.1891 38.1835 74.8153 37.5882Z" fill="var(--fill-0, #BABABA)"/>
<path id="Vector_313" d="M77.793 37.6261C78.4338 37.3029 79.2155 37.5616 79.537 38.2032C79.8584 38.8448 79.5981 39.6254 78.9553 39.9452C78.3156 40.2639 77.5379 40.0044 77.2176 39.365C76.8972 38.7258 77.1553 37.948 77.793 37.6261Z" fill="var(--fill-0, #BABABA)"/>
<path id="Vector_314" d="M83.3847 43.1842C84.9607 43.1172 86.3065 43.9611 84.7699 45.3485C83.0238 45.7936 82.128 44.5932 83.3847 43.1842Z" fill="var(--fill-0, #BABABA)"/>
<path id="Vector_315" d="M123.445 83.0645C124.709 83.2066 125.505 85.2564 123.849 85.8889C122.32 85.4596 121.906 83.9821 123.445 83.0645Z" fill="var(--fill-0, #BABABA)"/>
<path id="Vector_316" d="M68.9232 43.186C69.5973 43.131 70.1387 43.0298 70.6389 43.5886C71.1877 44.2017 70.7 44.9346 70.2085 45.3835C68.5349 45.5628 67.5917 44.4753 68.9232 43.186Z" fill="var(--fill-0, #BABABA)"/>
<path id="Vector_317" d="M43.9387 51.8072C45.5946 51.9676 46.4324 53.2884 44.7174 54.1188C42.9978 54.0439 42.2392 52.676 43.9387 51.8072Z" fill="var(--fill-0, #BABABA)"/>
<path id="Vector_318" d="M120.41 28.6994C121.554 28.6701 123.697 29.3078 122.017 30.5182C121.774 30.585 121.619 30.6253 121.363 30.6422C120.943 30.6695 120.532 30.5076 120.244 30.2007C119.759 29.6905 119.977 29.1242 120.41 28.6994Z" fill="var(--fill-0, #BABABA)"/>
<path id="Vector_319" d="M32.4071 28.7006C33.647 28.5854 33.6802 29.6979 33.0721 30.4305C32.8481 30.7003 32.4489 30.6771 32.1228 30.6997C31.2634 30.5945 30.596 29.6519 31.3262 28.9456C31.5811 28.6989 32.0627 28.7222 32.4071 28.7006Z" fill="var(--fill-0, #BABABA)"/>
<path id="Vector_320" d="M69.065 51.2743C69.3515 51.3247 69.465 51.4659 69.6326 51.6668C69.8035 52.3512 69.4051 52.7627 68.8401 53.0588C67.5486 52.639 67.6863 51.6283 69.065 51.2743Z" fill="var(--fill-0, #BABABA)"/>
</g>
</svg>
