<svg width="137" height="100" viewBox="0 0 137 100" fill="none" xmlns="http://www.w3.org/2000/svg">
      <g style="opacity: 0.48">
        <path d="M20.057 84.005C21.015 83.986 21.956 84.062 22.328 85.151C22.453 85.515 22.423 85.914 22.245 86.256C21.996 86.744 21.535 87.109 21.01 87.255C21.001 87.931 23.066 88.685 21.013 90.126C18.415 90.917 17.001 87.405 19.631 86.871C19.591 85.644 18.135 85.488 20.057 84.005Z" fill="#BABABA" />
        <path d="M83.485 86.735C84.453 86.697 85.361 86.884 85.865 87.816C86.109 88.261 86.165 88.785 86.02 89.272C85.759 90.121 85.122 90.587 84.362 90.964C82.777 91.122 82.032 90.061 81.76 88.647C82.182 87.578 82.427 87.206 83.485 86.735Z" fill="#BABABA" />
        <path d="M15.978 83.518C17.902 83.197 19.497 85.485 17.204 86.816C16.777 86.916 16.479 86.843 16.042 86.787C14.559 85.773 14.378 84.537 15.978 83.518Z" fill="#BABABA" />
        <path d="M51.528 77.28C52.424 77.002 53.377 77.502 53.656 78.399C53.934 79.295 53.434 80.248 52.538 80.527C51.641 80.806 50.687 80.306 50.408 79.408C50.13 78.512 50.631 77.558 51.528 77.28Z" fill="#BABABA" />
        <path d="M50.72 73.586C51.322 73.475 51.937 73.699 52.328 74.169C52.72 74.639 52.828 75.284 52.612 75.856C52.395 76.428 51.887 76.84 51.282 76.932C50.365 77.072 49.505 76.45 49.352 75.536C49.198 74.621 49.808 73.753 50.72 73.586Z" fill="#BABABA" />
        <path d="M54.467 88.213C55.046 88.001 55.694 88.122 56.159 88.528C56.623 88.933 56.831 89.559 56.7 90.161C56.569 90.764 56.121 91.247 55.53 91.424C54.653 91.686 53.727 91.203 53.439 90.334C53.152 89.466 53.607 88.526 54.467 88.213Z" fill="#BABABA" />
        <path d="M53.736 84.476C54.657 84.323 55.526 84.948 55.675 85.869C55.825 86.791 55.197 87.658 54.276 87.804C53.358 87.95 52.496 87.326 52.347 86.409C52.198 85.492 52.819 84.627 53.736 84.476Z" fill="#BABABA" />
        <path d="M19.932 72.456C20.803 72.148 21.76 72.605 22.066 73.477C22.373 74.349 21.913 75.304 21.04 75.609C20.171 75.912 19.22 75.454 18.914 74.585C18.608 73.717 19.064 72.764 19.932 72.456Z" fill="#BABABA" />
        <path d="M52.911 80.867C53.51 80.824 54.086 81.106 54.419 81.605C54.752 82.105 54.792 82.744 54.522 83.281C54.252 83.817 53.715 84.166 53.115 84.197C52.202 84.242 51.423 83.544 51.367 82.632C51.311 81.72 52 80.933 52.911 80.867Z" fill="#BABABA" />
        <path d="M5.151 73.192C6.405 73.128 7.714 73.594 7.51 75.263C7.45 75.757 6.928 76.132 6.512 76.38C4.666 76.858 3.114 74.75 5.151 73.192Z" fill="#BABABA" />
        <path d="M13.106 80.806C13.969 80.516 14.904 80.975 15.2 81.837C15.495 82.698 15.039 83.636 14.18 83.936C13.314 84.238 12.367 83.778 12.07 82.911C11.772 82.043 12.237 81.099 13.106 80.806Z" fill="#BABABA" />
        <path d="M19.914 80.357C20.815 80.274 21.548 80.198 22.124 81.051C22.746 81.972 22.127 82.872 21.321 83.362C18.876 83.738 18.144 81.444 19.914 80.357Z" fill="#BABABA" />
        <path d="M20.205 76.4C21.073 76.378 21.753 76.503 22.132 77.407C22.287 77.768 22.29 78.178 22.14 78.541C21.923 79.055 21.567 79.288 21.078 79.492C18.425 79.569 18.166 76.955 20.205 76.4Z" fill="#BABABA" />
        <path d="M123.593 53.643C125.107 53.837 127.755 56.33 125.154 57.649C124.481 57.83 123.71 57.442 123.377 56.802C122.764 55.618 123.875 55.383 124.065 54.728C124.005 54.404 123.614 54.423 123.593 53.643Z" fill="#BABABA" />
        <path d="M16.067 68.72C16.617 68.51 17.238 68.618 17.686 68.999C18.134 69.381 18.338 69.976 18.219 70.552C18.1 71.129 17.676 71.593 17.113 71.766C16.282 72.02 15.4 71.571 15.117 70.749C14.835 69.927 15.255 69.029 16.067 68.72Z" fill="#BABABA" />
        <path d="M19.764 68.627C20.611 68.341 21.53 68.8 21.808 69.65C22.087 70.501 21.618 71.415 20.766 71.685C19.924 71.952 19.025 71.491 18.75 70.652C18.476 69.814 18.928 68.91 19.764 68.627Z" fill="#BABABA" />
        <path d="M12.507 68.712C13.352 68.484 14.225 68.976 14.468 69.818C14.711 70.66 14.235 71.541 13.398 71.799C12.843 71.969 12.239 71.828 11.818 71.428C11.397 71.027 11.225 70.431 11.368 69.869C11.511 69.306 11.946 68.864 12.507 68.712Z" fill="#BABABA" />
        <path d="M8.799 68.739C9.646 68.483 10.54 68.963 10.796 69.809C11.052 70.656 10.573 71.55 9.727 71.806C8.879 72.063 7.985 71.584 7.729 70.736C7.473 69.889 7.952 68.994 8.799 68.739Z" fill="#BABABA" />
        <path d="M5.315 68.793C6.163 68.631 6.983 69.18 7.16 70.024C7.336 70.87 6.803 71.7 5.961 71.892C5.403 72.018 4.819 71.835 4.435 71.41C4.051 70.986 3.926 70.387 4.109 69.844C4.291 69.301 4.752 68.899 5.315 68.793Z" fill="#BABABA" />
        <path d="M8.24 75.995C10.345 75.829 11.122 77.789 9.027 78.928C7.138 79.258 6.357 77.2 8.24 75.995Z" fill="#BABABA" />
        <path d="M10.783 78.317C12.892 78.511 13.01 80.479 11.015 81.23C9.096 81.176 8.531 79.044 10.783 78.317Z" fill="#BABABA" />
        <path d="M20.322 53.695C21.079 53.385 21.944 53.749 22.252 54.506C22.561 55.264 22.196 56.128 21.438 56.435C20.682 56.741 19.82 56.378 19.513 55.622C19.205 54.867 19.567 54.004 20.322 53.695Z" fill="#BABABA" />
        <path d="M5.433 27.795C6.206 27.575 7.012 28.02 7.239 28.792C7.466 29.563 7.029 30.373 6.26 30.608C5.48 30.846 4.656 30.401 4.426 29.619C4.196 28.837 4.648 28.017 5.433 27.795Z" fill="#BABABA" />
        <path d="M20.334 60.675C21.078 60.377 21.922 60.736 22.224 61.478C22.526 62.219 22.172 63.065 21.432 63.372C20.686 63.68 19.832 63.323 19.527 62.575C19.223 61.828 19.585 60.975 20.334 60.675Z" fill="#BABABA" />
        <path d="M9.093 27.826C9.597 27.684 10.137 27.824 10.509 28.192C10.881 28.559 11.026 29.099 10.89 29.603C10.754 30.108 10.357 30.501 9.851 30.632C9.079 30.831 8.291 30.372 8.083 29.603C7.876 28.834 8.326 28.041 9.093 27.826Z" fill="#BABABA" />
        <path d="M38.147 90.785C40.149 90.689 41.016 92.422 39.16 93.466C37.163 93.62 36.346 91.875 38.147 90.785Z" fill="#BABABA" />
        <path d="M31.211 53.692C31.967 53.537 32.71 54.013 32.886 54.765C33.061 55.517 32.606 56.273 31.86 56.47C31.357 56.602 30.823 56.451 30.464 56.075C30.105 55.7 29.979 55.159 30.134 54.663C30.289 54.168 30.702 53.795 31.211 53.692Z" fill="#BABABA" />
        <path d="M31.169 57.163C31.929 56.962 32.709 57.414 32.912 58.174C33.114 58.933 32.664 59.714 31.904 59.918C31.143 60.123 30.36 59.67 30.157 58.909C29.954 58.147 30.407 57.365 31.169 57.163Z" fill="#BABABA" />
        <path d="M41.772 90.862C43.821 90.658 44.678 92.4 42.85 93.486C40.885 93.549 39.989 92.006 41.772 90.862Z" fill="#BABABA" />
        <path d="M9.085 90.419C9.856 90.264 10.607 90.765 10.76 91.537C10.912 92.31 10.407 93.059 9.634 93.208C8.866 93.356 8.123 92.854 7.972 92.087C7.821 91.32 8.318 90.574 9.085 90.419Z" fill="#BABABA" />
        <path d="M30.942 60.675C31.41 60.472 31.952 60.537 32.359 60.845C32.767 61.153 32.977 61.657 32.91 62.163C32.843 62.669 32.509 63.1 32.035 63.291C31.316 63.582 30.496 63.239 30.197 62.523C29.897 61.807 30.229 60.983 30.942 60.675Z" fill="#BABABA" />
        <path d="M34.637 90.8C35.6 90.842 36.699 91.166 36.439 92.54C36.36 92.959 35.834 93.292 35.458 93.476C33.309 93.562 32.795 91.47 34.637 90.8Z" fill="#BABABA" />
        <path d="M20.519 57.198C21.268 56.967 22.063 57.389 22.289 58.14C22.516 58.892 22.087 59.683 21.335 59.904C20.59 60.123 19.808 59.699 19.584 58.955C19.36 58.212 19.778 57.428 20.519 57.198Z" fill="#BABABA" />
        <path d="M27.583 57.187C28.317 56.956 29.101 57.355 29.345 58.085C29.589 58.815 29.203 59.606 28.478 59.863C27.997 60.033 27.462 59.93 27.078 59.595C26.694 59.259 26.521 58.742 26.626 58.242C26.731 57.744 27.097 57.34 27.583 57.187Z" fill="#BABABA" />
        <path d="M27.448 53.814C27.919 53.61 28.465 53.679 28.871 53.995C29.277 54.31 29.478 54.822 29.397 55.329C29.315 55.837 28.964 56.26 28.479 56.432C27.764 56.687 26.976 56.328 26.698 55.622C26.419 54.916 26.751 54.116 27.448 53.814Z" fill="#BABABA" />
        <path d="M27.442 60.675C27.91 60.472 28.451 60.539 28.856 60.85C29.261 61.16 29.466 61.666 29.392 62.171C29.317 62.676 28.974 63.1 28.497 63.281C27.783 63.55 26.984 63.201 26.697 62.493C26.411 61.785 26.741 60.978 27.442 60.675Z" fill="#BABABA" />
        <path d="M40.915 76.413C41.662 76.185 42.452 76.611 42.673 77.359C42.894 78.109 42.462 78.894 41.711 79.109C40.969 79.32 40.196 78.895 39.977 78.155C39.759 77.416 40.177 76.638 40.915 76.413Z" fill="#BABABA" />
        <path d="M24.467 53.695C25.232 53.666 25.879 54.257 25.919 55.022C25.959 55.787 25.377 56.443 24.613 56.493C24.109 56.527 23.626 56.286 23.348 55.864C23.071 55.441 23.043 54.902 23.275 54.453C23.506 54.004 23.962 53.714 24.467 53.695Z" fill="#BABABA" />
        <path d="M23.925 60.698C24.627 60.374 25.459 60.68 25.782 61.382C26.106 62.085 25.798 62.917 25.095 63.238C24.394 63.56 23.564 63.253 23.242 62.552C22.919 61.851 23.225 61.022 23.925 60.698Z" fill="#BABABA" />
        <path d="M24.248 57.191C24.999 57.038 25.732 57.522 25.886 58.273C26.04 59.023 25.556 59.757 24.805 59.911C24.054 60.066 23.32 59.582 23.166 58.83C23.011 58.078 23.496 57.345 24.248 57.191Z" fill="#BABABA" />
        <path d="M40.75 73.146C41.208 72.946 41.739 73.009 42.138 73.311C42.536 73.613 42.74 74.106 42.672 74.602C42.604 75.097 42.273 75.517 41.807 75.7C41.106 75.974 40.314 75.637 40.026 74.941C39.738 74.245 40.06 73.447 40.75 73.146Z" fill="#BABABA" />
        <path d="M45.564 90.812C46.296 90.635 47.034 91.078 47.223 91.807C47.412 92.535 46.982 93.28 46.256 93.482C45.776 93.615 45.261 93.479 44.91 93.126C44.558 92.772 44.425 92.256 44.56 91.777C44.696 91.298 45.08 90.929 45.564 90.812Z" fill="#BABABA" />
        <path d="M40.601 69.605C42.131 69.528 42.361 70.77 42.014 72.008C41.943 72.259 41.57 72.374 41.343 72.464C39.57 72.289 39.122 70.695 40.601 69.605Z" fill="#BABABA" />
        <path d="M5.576 24.905C7.286 24.907 7.872 26.375 6.238 27.36C4.336 27.25 3.859 25.734 5.576 24.905Z" fill="#BABABA" />
        <path d="M124.499 57.951C126.441 57.827 126.524 59.42 125.203 60.564C125.052 60.625 125.142 60.607 124.927 60.58C124.473 60.008 124.086 59.446 123.669 58.847C123.994 58.406 124.084 58.312 124.499 57.951Z" fill="#BABABA" />
        <path d="M82.8 79.645C82.955 79.671 83.109 79.705 83.26 79.747C84.368 80.063 84.358 81.444 83.037 81.854C82.95 81.854 82.864 81.852 82.778 81.849C82.103 81.823 81.492 81.493 81.702 80.692C81.86 80.093 82.278 79.908 82.8 79.645Z" fill="#BABABA" />
        <path d="M88.144 78.336C89.666 78.78 89.4 80.092 88.027 80.515C86.322 80.204 86.451 78.498 88.144 78.336Z" fill="#BABABA" />
        <path d="M70.146 83.241C70.512 83.319 70.912 83.453 71.129 83.784C71.273 84.003 71.314 84.274 71.242 84.526C71.11 84.997 70.71 85.242 70.302 85.436C68.569 85.194 68.445 83.65 70.146 83.241Z" fill="#BABABA" />
        <path d="M90.071 77.646C91.671 77.609 92.334 78.794 90.841 79.741C89.237 79.8 88.844 78.692 90.071 77.646Z" fill="#BABABA" />
        <path d="M77.391 81.209C78.917 81.13 79.432 82.369 78.029 83.344C76.497 83.291 75.933 82.203 77.391 81.209Z" fill="#BABABA" />
        <path d="M72.227 82.66C73.807 82.468 74.444 83.699 73.112 84.678C72.587 84.713 72.032 84.683 71.68 84.224C71.534 84.035 71.475 83.792 71.52 83.557C71.601 83.136 71.907 82.899 72.227 82.66Z" fill="#BABABA" />
        <path d="M74.812 81.948C76.302 81.863 77.004 82.93 75.709 83.93C74.046 84.051 73.312 83.06 74.812 81.948Z" fill="#BABABA" />
        <path d="M80.004 80.427C81.555 80.551 81.899 81.865 80.413 82.647C78.79 82.427 78.629 81.257 80.004 80.427Z" fill="#BABABA" />
        <path d="M100.049 74.959C101.556 74.817 102.32 76.023 100.813 77.011C99.45 77.171 98.69 76.005 100.049 74.959Z" fill="#BABABA" />
        <path d="M97.621 75.636C99.116 75.564 99.71 76.471 98.49 77.634C96.86 77.795 96.237 76.618 97.621 75.636Z" fill="#BABABA" />
        <path d="M67.196 84.013C68.699 83.919 69.465 84.874 68.087 86.028C66.5 86.056 65.95 85.182 67.196 84.013Z" fill="#BABABA" />
        <path d="M85.583 78.976C87.106 79.239 86.942 80.499 85.605 81.167C84.15 81.015 83.856 79.395 85.583 78.976Z" fill="#BABABA" />
        <path d="M92.61 76.93C94.213 76.917 94.601 78.001 93.297 79.059C91.745 78.91 91.273 78.018 92.61 76.93Z" fill="#BABABA" />
        <path d="M95.183 76.26C95.609 76.253 96.13 76.346 96.425 76.681C96.589 76.87 96.659 77.121 96.616 77.367C96.539 77.837 96.205 78.058 95.85 78.331C94.186 78.353 93.819 77.212 95.183 76.26Z" fill="#BABABA" />
        <path d="M64.766 84.664C66.279 84.614 66.945 85.68 65.541 86.711C64.035 86.702 63.535 85.724 64.766 84.664Z" fill="#BABABA" />
        <path d="M102.636 74.239C104.117 74.316 104.571 75.428 103.291 76.308C101.7 76.389 101.325 75.225 102.636 74.239Z" fill="#BABABA" />
        <path d="M12.151 90.866C12.232 91.298 12.325 92.146 12.685 92.445C13.202 92.875 13.709 92.576 14.173 92.56C13.881 92.965 13.567 93.251 13.046 93.299C12.678 93.331 12.312 93.213 12.034 92.97C11.759 92.731 11.599 92.386 11.592 92.022C11.587 91.506 11.814 91.216 12.151 90.866Z" fill="#BABABA" />
        <path d="M15.335 92.34C16.419 92.638 15.903 92.868 17.33 92.936C16.429 93.474 15.787 93.26 15.335 92.34Z" fill="#BABABA" />
        <path d="M84.959 92.409C84.925 91.73 85.076 91.139 85.525 90.61C85.903 90.159 86.454 89.887 87.041 89.864C87.822 89.836 88.261 90.16 88.789 90.668C88.886 90.772 88.975 90.895 89.088 90.955C89.284 91.562 89.371 92.157 89.051 92.737L89.388 93.097C89.245 93.207 88.408 93.939 88.367 93.954C87.954 93.999 87.916 94.03 87.531 94.21C86.564 94.317 86.179 94.054 85.474 93.404C85.293 93.084 85.125 92.737 84.959 92.409Z" fill="#BABABA" />
        <path d="M102.317 13.783C102.842 13.312 103.221 13.161 103.908 13.278C104.538 13.755 104.527 13.871 104.887 14.536C105.607 13.477 106.139 13.213 107.474 13.483C107.909 14.096 108.275 14.552 108.147 15.347C108.121 15.499 108.091 15.65 108.055 15.8C107.375 16.322 107.218 16.441 106.338 16.528C105.469 16.093 105.308 16.087 104.889 15.253L104.822 15.119C104.795 15.15 104.768 15.181 104.741 15.213C104.297 16.619 102.593 16.454 102.113 15.158C101.94 14.691 102.041 14.306 102.317 13.783Z" fill="#BABABA" />
        <path d="M91.051 97.162C92.368 95.486 93.38 95.44 94.987 96.783C95.453 98.144 95.056 99.484 93.575 99.918C93.026 100.078 92.435 100.001 91.943 99.709C91.044 99.174 90.822 98.129 91.051 97.162Z" fill="#BABABA" />
        <path d="M98.115 93.513C97.527 92.791 97.01 92.668 96.958 91.613C96.902 90.435 97.686 89.65 98.869 89.613C99.857 89.581 100.395 90.105 101.068 90.751C101.244 91.626 101.229 92.027 100.715 92.788C100.137 93.644 99.036 94.01 98.115 93.513Z" fill="#BABABA" />
        <path d="M89.388 93.097C90.976 92.776 92.892 93.76 92.032 95.663C91.861 96.039 91.018 96.436 90.919 96.998C89.672 98.113 87.298 96.094 88.368 93.954C88.408 93.939 89.245 93.207 89.388 93.097Z" fill="#BABABA" />
        <path d="M93.951 94.896C94.01 94.27 94.07 93.883 94.464 93.362C94.77 92.952 95.24 92.695 95.751 92.657C96.772 92.582 97.31 93.073 97.986 93.69C98.137 94.196 98.166 94.371 98.225 94.897C97.715 96.045 96.636 97.352 95.25 96.663C95.208 96.642 95.166 96.62 95.124 96.597C94.559 95.862 94.34 95.766 93.951 94.896Z" fill="#BABABA" />
        <path d="M101.194 90.518C100.553 89.631 99.208 88.984 100.214 87.475C100.545 86.982 101.063 86.648 101.648 86.55C102.71 86.384 103.069 86.937 103.843 87.518C104.583 89.376 102.993 91.034 101.194 90.518Z" fill="#BABABA" />
        <path d="M104.382 87.595C100.9 85.571 104.42 81.316 106.907 84.892C107.198 86.645 106.105 87.689 104.382 87.595Z" fill="#BABABA" />
        <path d="M107.775 84.59C107.041 84.466 106.365 84.024 106.024 83.349C105.787 82.885 105.748 82.344 105.915 81.849C106.357 80.571 107.555 80.275 108.733 80.718C108.957 80.893 109.824 81.758 109.731 81.701C110.092 83.119 109.263 84.532 107.775 84.59Z" fill="#BABABA" />
        <path d="M108.945 80.396C108.885 80.277 108.884 80.283 108.829 80.141C108.632 79.625 108.667 79.05 108.925 78.562C109.431 77.605 110.732 77.308 111.645 77.875C112.414 78.352 112.548 78.971 112.738 79.791C112.463 80.381 112.335 80.644 111.857 81.125L111.301 81.466L111.208 81.477C110.84 81.516 109.977 81.468 109.785 81.571L109.732 81.701C109.824 81.758 108.957 80.893 108.734 80.719L108.945 80.396Z" fill="#BABABA" />
        <path d="M1.344 85.927C2.567 85.973 3.155 85.989 3.688 87.24C3.995 87.255 4.267 87.186 4.45 87.465C4.768 88.724 4.593 89.017 3.332 89.346C2.988 89.451 2.702 89.488 2.346 89.545L1.399 89.066C-0.133 88.299 -0.145 86.786 1.344 85.927Z" fill="#BABABA" />
        <path d="M36.075 7.284C36.972 7.23 37.138 7.21 37.531 8.051C39.642 6.371 41.364 8.549 39.728 10.124C38.335 10.701 37.812 10.247 37.317 8.972C36.977 9.419 36.786 9.669 36.202 9.498C35.642 8.979 35.751 7.902 36.075 7.284Z" fill="#BABABA" />
        <path d="M133.642 58.921C133.022 58.389 132.614 57.76 132.896 56.91C133.036 56.498 133.345 56.164 133.745 55.993C134.413 55.702 134.957 55.872 135.595 56.117C136.415 57.5 136.21 58.09 135.03 59.099C134.768 59.582 134.506 60.052 134.47 60.616C134.185 60.053 134.072 59.961 133.63 59.521C133.692 59.325 133.616 59.238 133.642 58.921Z" fill="#BABABA" />
        <path d="M75.152 95.293C74.89 94.586 74.804 94.033 75.247 93.356C75.501 92.973 75.901 92.71 76.354 92.629C76.791 92.551 77.242 92.647 77.611 92.897C78.219 93.314 78.344 93.794 78.474 94.47C78.07 96.313 76.39 96.562 75.152 95.293Z" fill="#BABABA" />
        <path d="M67.114 97.142C66.835 96.448 67.028 95.655 67.595 95.167C68.161 94.679 68.974 94.605 69.619 94.982C70.264 95.359 70.597 96.105 70.45 96.837C70.297 97.595 69.664 98.162 68.895 98.233C68.125 98.302 67.4 97.859 67.114 97.142Z" fill="#BABABA" />
        <path d="M46.523 59.29C47.361 58.675 47.735 58.636 48.71 59.024C49.162 59.376 49.219 59.447 49.55 59.917C49.622 60.825 49.697 61.052 49.04 61.77C48.526 62.07 48.471 62.074 47.898 62.199L47.511 62.284C45.986 61.457 45.713 60.798 46.523 59.29Z" fill="#BABABA" />
        <path d="M63.115 98.118C62.896 97.491 63.055 96.797 63.522 96.327C63.99 95.858 64.686 95.696 65.312 95.912C65.939 96.127 66.387 96.682 66.467 97.34C66.573 98.217 66.001 99.034 65.141 99.234C64.279 99.434 63.406 98.952 63.115 98.118Z" fill="#BABABA" />
        <path d="M71.242 96.361C70.834 95.722 70.89 94.891 71.38 94.312C71.871 93.732 72.68 93.541 73.379 93.838C74.076 94.135 74.5 94.853 74.421 95.608C74.346 96.34 73.816 96.944 73.099 97.113C72.383 97.283 71.638 96.981 71.242 96.361Z" fill="#BABABA" />
        <path d="M57.041 94.794L57.233 95.037C58.433 95.019 58.791 95.277 59.337 96.344C59.263 96.7 59.185 97.056 59.106 97.411C57.974 99.002 55.692 98.603 55.773 96.384C55.904 96.239 56.264 95.693 56.495 95.419L56.47 95.081L57.041 94.794Z" fill="#BABABA" />
        <path d="M48.342 71.34C48.444 70.726 48.873 70.217 49.461 70.012C50.048 69.806 50.701 69.938 51.163 70.356C51.625 70.773 51.822 71.409 51.677 72.015C51.464 72.906 50.583 73.469 49.684 73.287C48.786 73.105 48.192 72.245 48.342 71.34Z" fill="#BABABA" />
        <path d="M59.169 97.638C60.096 95.857 61.576 95.986 62.541 97.656C62.547 97.818 62.546 97.98 62.538 98.143C62.511 98.622 62.289 99.068 61.922 99.377C61.575 99.672 61.125 99.815 60.671 99.777C60.228 99.743 59.817 99.532 59.532 99.19C59.116 98.69 59.135 98.247 59.169 97.638Z" fill="#BABABA" />
        <path d="M56.469 95.081C55.517 95.157 54.447 94.901 54.334 93.781C54.281 93.265 54.443 92.751 54.782 92.358C56.333 90.562 58.981 92.829 57.041 94.794L56.469 95.081Z" fill="#BABABA" />
        <path d="M49.011 66.28C49.81 66.261 50.514 66.802 50.7 67.579C50.818 68.073 50.709 68.593 50.403 68.997C50.009 69.517 49.351 69.764 48.712 69.634C48.074 69.504 47.566 69.018 47.408 68.385C47.25 67.752 47.469 67.084 47.972 66.669C48.265 66.427 48.631 66.289 49.011 66.28Z" fill="#BABABA" />
        <path d="M47.614 62.636C48.723 62.791 49.003 62.82 49.753 63.696L49.789 63.806C49.88 64.941 49.639 65.348 48.623 65.909C48.116 66.042 47.873 66 47.358 65.892C45.792 64.761 46.109 63.573 47.614 62.636Z" fill="#BABABA" />
        <path d="M1.873 89.908C2.777 89.717 3.398 89.763 4.104 90.425L4.349 90.285C4.403 90.624 4.501 91.14 4.513 91.469L4.336 91.762C4.005 92.277 3.9 92.48 3.411 92.855C1.391 93.499 0.058 91.465 1.873 89.908Z" fill="#BABABA" />
        <path d="M119.079 79.651C118.838 78.613 118.987 77.358 120.234 77.123C120.62 77.049 121.019 77.135 121.339 77.36C121.863 77.733 122.019 78.125 122.132 78.723C121.881 80.753 120.301 81.195 119.079 79.651Z" fill="#BABABA" />
        <path d="M104.013 9.512C105.353 9.508 106.278 10.214 106.201 11.636C106.196 11.708 106.191 11.78 106.184 11.852C105.367 12.603 105.186 12.867 104.055 12.783C103.668 12.68 103.326 12.45 103.085 12.13C102.325 11.108 103.165 10.094 104.013 9.512Z" fill="#BABABA" />
        <path d="M127.634 72.769C126.854 72.856 126.121 72.386 125.876 71.641C125.632 70.896 125.943 70.081 126.622 69.69C127.301 69.298 128.161 69.436 128.684 70.019C129.098 70.482 129.218 71.136 128.997 71.715C128.776 72.294 128.249 72.701 127.634 72.769Z" fill="#BABABA" />
        <path d="M126.46 47.009C127.727 47.093 128.091 47.525 128.67 48.59C128.49 49.651 127.829 50.595 126.628 50.317C126.141 50.205 125.722 49.897 125.47 49.465C124.866 48.417 125.533 47.525 126.46 47.009Z" fill="#BABABA" />
        <path d="M132.254 51.099C132.1 52.591 130.976 53.634 129.607 52.642C129.19 52.341 128.92 51.877 128.864 51.366C128.739 50.27 129.588 49.743 130.566 49.635C131.512 50.037 131.686 50.217 132.254 51.099Z" fill="#BABABA" />
        <path d="M1.017 71.159C1.599 71.141 2.041 71.125 2.622 71.166C4.786 72.708 3.026 74.728 0.869 74.058C-0.085 72.985 -0.092 72.1 1.017 71.159Z" fill="#BABABA" />
        <path d="M1.231 82.154C2.043 82.132 2.568 82.04 3.197 82.651C3.479 82.922 3.64 83.295 3.643 83.686C3.642 84.128 3.45 84.548 3.118 84.838C2.589 85.306 1.801 85.376 1.143 85.19C-0.135 84.364 -0.002 82.976 1.231 82.154Z" fill="#BABABA" />
        <path d="M106.373 17.018C107.019 17.031 107.3 17.021 107.921 17.198C108.47 17.917 108.854 19.27 107.963 19.859C105.9 21.225 103.785 18.298 106.373 17.018Z" fill="#BABABA" />
        <path d="M0.978 17.252C1.566 17.07 2.264 17.097 2.866 17.189C3.71 18.347 3.877 19.116 2.682 20.096C1.975 20.209 1.621 20.233 0.928 20.063C0.177 19.411 0.149 19.274 0.134 18.288C0.273 17.819 0.621 17.565 0.978 17.252Z" fill="#BABABA" />
        <path d="M131.441 65.963C126.683 65.737 130.993 60.08 132.652 63.984C132.683 65.049 132.286 65.388 131.441 65.963Z" fill="#BABABA" />
        <path d="M106.464 20.662C107.386 20.575 107.437 20.562 108.242 21.039C108.782 22.184 108.881 23.288 107.46 23.724C105.041 23.92 104.41 21.376 106.464 20.662Z" fill="#BABABA" />
        <path d="M0.36 28.647C1.605 27.368 3.642 27.652 3.54 29.491C3.512 29.958 3.297 30.394 2.945 30.701C2.226 31.323 1.206 31.015 0.56 30.445C0.15 29.762 0.101 29.398 0.36 28.647Z" fill="#BABABA" />
        <path d="M1.149 78.505C1.774 78.466 2.118 78.464 2.743 78.499C3.465 79.117 4.026 79.963 3.302 80.885C2.757 81.577 2.052 81.558 1.244 81.493C-0.017 80.747 -0.217 79.265 1.149 78.505Z" fill="#BABABA" />
        <path d="M4.304 93.246C5.897 92.222 7.211 93.038 7.206 94.881C5.682 97.255 2.741 95.37 4.304 93.246Z" fill="#BABABA" />
        <path d="M0.935 60.314C1.721 60.225 2.333 60.104 3.007 60.643C3.314 60.886 3.508 61.243 3.542 61.634C3.578 62.066 3.426 62.494 3.124 62.806C2.769 63.174 2.274 63.371 1.764 63.349C1.516 63.339 1.269 63.309 1.026 63.259C0.974 63.217 0.924 63.175 0.873 63.132C-0.192 62.213 0.004 61.236 0.935 60.314Z" fill="#BABABA" />
        <path d="M0.143 14.136C1.528 13.067 3.621 13.53 3.371 15.496L3.245 15.731L2.757 16.44C1.847 16.644 1.384 16.802 0.527 16.312C0.349 16.116 0.174 15.916 0.001 15.716C-0.008 15.042 0.036 14.797 0.143 14.136Z" fill="#BABABA" />
        <path d="M1.041 74.814C1.61 74.81 2.085 74.808 2.655 74.843C3.089 75.186 3.619 75.675 3.61 76.253C3.586 77.765 2.224 77.873 1.196 77.832C-0.131 76.911 -0.139 75.905 1.041 74.814Z" fill="#BABABA" />
        <path d="M115.704 80.46C115.38 78.881 115.952 77.219 117.989 78.275C118.491 78.536 118.655 79.356 118.723 79.903C118.106 81.547 116.823 81.9 115.704 80.46Z" fill="#BABABA" />
        <path d="M0.753 49.495C1.496 49.357 2.212 49.221 2.863 49.68C3.18 49.904 3.394 50.245 3.457 50.627C3.526 51.038 3.425 51.459 3.177 51.793C2.647 52.502 1.797 52.544 0.997 52.398C-0.096 51.463 -0.135 50.626 0.753 49.495Z" fill="#BABABA" />
        <path d="M133.542 52.326C135.204 52.52 135.993 53.268 135.43 54.965C134.943 55.431 134.251 55.723 133.576 55.56C133.151 55.46 132.786 55.192 132.564 54.818C132.331 54.429 132.276 53.959 132.415 53.528C132.614 52.897 133.003 52.632 133.542 52.326Z" fill="#BABABA" />
        <path d="M125.19 76.166C124.798 75.798 124.287 75.511 124.147 74.999C123.654 73.199 125.327 72.329 126.787 73.279C127.903 74.79 127.031 76.294 125.19 76.166Z" fill="#BABABA" />
        <path d="M122.343 78.123C122.136 77.392 122.456 76.615 123.119 76.244C123.781 75.873 124.612 76.006 125.126 76.565C125.584 77.064 125.689 77.793 125.389 78.401C125.088 79.007 124.446 79.368 123.77 79.306C123.096 79.244 122.529 78.774 122.343 78.123Z" fill="#BABABA" />
        <path d="M69.573 49.807C71.791 49.637 72.626 52.084 70.518 53.09C69.764 53.095 69.166 52.922 68.725 52.26C68.478 51.888 68.399 51.43 68.509 50.997C68.662 50.382 69.055 50.098 69.573 49.807ZM70.015 52.177C70.943 51.703 71.19 50.748 70.193 50.283C69.591 50.605 69.384 50.671 69.188 51.302C69.226 51.87 69.529 52 70.015 52.177Z" fill="#BABABA" />
        <path d="M70.192 50.283C71.19 50.748 70.943 51.703 70.015 52.177C69.529 52 69.226 51.87 69.188 51.301C69.384 50.671 69.591 50.605 70.192 50.283Z" fill="#BABABA" />
        <path d="M0.77 38.777C1.573 38.563 1.873 38.577 2.699 38.707C4.371 40.343 3.255 41.774 1.135 41.693C-0.074 40.852 -0.229 39.89 0.77 38.777Z" fill="#BABABA" />
        <path d="M127.891 66.742C128.195 66.322 128.681 66.071 129.201 66.066C129.72 66.062 130.211 66.305 130.523 66.719C130.866 67.177 130.946 67.78 130.732 68.31C130.52 68.842 130.045 69.222 129.481 69.315C128.826 69.423 128.172 69.126 127.823 68.562C127.475 67.997 127.502 67.279 127.891 66.742Z" fill="#BABABA" />
        <path d="M0.795 53.166C1.46 52.928 1.836 52.973 2.54 53.019C3.048 53.397 3.409 53.698 3.496 54.376C3.545 54.75 3.437 55.128 3.197 55.419C2.6 56.15 1.848 56.1 1.012 55.979C-0.135 55.213 -0.11 54.121 0.795 53.166Z" fill="#BABABA" />
        <path d="M1.093 67.559C1.621 67.559 2.095 67.562 2.623 67.591C4.639 69.173 3.199 70.952 0.988 70.495C-0.119 69.495 -0.121 68.451 1.093 67.559Z" fill="#BABABA" />
        <path d="M0.992 45.819L2.541 45.854C4.581 47.313 3.196 49.269 0.825 48.736C-0.226 47.76 -0.082 46.685 0.992 45.819Z" fill="#BABABA" />
        <path d="M88.415 44.704C89.327 44.861 89.391 44.944 90.012 45.654C90.278 46.989 90.088 47.755 88.697 48.189C86.588 47.584 86.29 45.227 88.415 44.704Z" fill="#BABABA" />
        <path d="M1.137 63.893C1.709 63.868 1.962 63.861 2.548 63.922C3.319 64.487 4.019 65.398 3.259 66.3C2.932 66.687 2.458 66.92 1.952 66.942C1.703 66.953 1.406 66.933 1.156 66.918C-0.116 66.006 -0.199 64.793 1.137 63.893Z" fill="#BABABA" />
        <path d="M1.067 56.652C1.882 56.639 2.521 56.548 3.14 57.167C4.062 58.089 3.357 59.086 2.5 59.659C2.046 59.662 1.572 59.673 1.12 59.659C-0.193 58.79 -0.164 57.577 1.067 56.652Z" fill="#BABABA" />
        <path d="M77.003 47.798C77.835 47.741 78.438 47.79 78.951 48.549C79.212 48.931 79.293 49.408 79.175 49.855C79.007 50.48 78.711 50.707 78.186 51.016C76.135 51.427 75.157 48.922 77.003 47.798ZM77.687 49.948C78.6 49.308 78.406 48.556 77.305 48.545C76.89 48.827 76.966 48.691 76.801 49.096C76.888 49.601 77.182 49.855 77.687 49.948Z" fill="#BABABA" />
        <path d="M77.305 48.545C78.406 48.556 78.6 49.308 77.687 49.948C77.182 49.855 76.888 49.601 76.801 49.096C76.966 48.691 76.89 48.827 77.305 48.545Z" fill="#BABABA" />
        <path d="M62.039 51.982C62.919 51.775 63.801 52.324 64.003 53.205C64.204 54.087 63.65 54.964 62.767 55.161C61.892 55.355 61.024 54.806 60.824 53.933C60.624 53.059 61.167 52.188 62.039 51.982ZM62.536 54.398C62.955 54.05 63.444 53.464 62.946 52.935C62.758 52.737 62.513 52.606 62.245 52.56C61.275 53.343 61.653 54.492 62.536 54.398Z" fill="#BABABA" />
        <path d="M62.245 52.56C62.513 52.606 62.758 52.737 62.946 52.935C63.444 53.464 62.955 54.05 62.536 54.398C61.653 54.492 61.276 53.343 62.245 52.56Z" fill="#BABABA" />
        <path d="M65.816 50.878C68.114 50.745 68.68 53.459 66.679 54.14C64.501 54.145 63.837 51.851 65.816 50.878ZM66.442 53.37C67.459 52.641 67.207 51.368 66.088 51.329C65.792 51.534 65.602 51.57 65.539 51.943C65.415 52.667 65.594 53.358 66.442 53.37Z" fill="#BABABA" />
        <path d="M66.088 51.329C67.207 51.368 67.459 52.641 66.442 53.37C65.594 53.358 65.415 52.667 65.539 51.943C65.602 51.57 65.792 51.534 66.088 51.329Z" fill="#BABABA" />
        <path d="M0.766 35.253C1.488 34.976 1.904 35.057 2.66 35.136C3.369 35.68 3.991 36.505 3.289 37.374C2.647 38.169 1.816 38.073 0.911 37.964C0.008 37.049 -0.234 36.203 0.766 35.253Z" fill="#BABABA" />
        <path d="M133.657 62.335C132.78 62.614 131.865 62.542 131.369 61.664C131.129 61.236 131.078 60.729 131.227 60.263C131.611 59.096 132.674 59.143 133.63 59.521C134.072 59.961 134.185 60.053 134.47 60.616C134.274 61.487 134.25 61.627 133.657 62.335Z" fill="#BABABA" />
        <path d="M1.004 42.25C1.657 42.153 1.945 42.178 2.601 42.296C4.484 43.943 3.182 45.539 0.952 45.19C-0.179 44.216 -0.14 43.188 1.004 42.25Z" fill="#BABABA" />
        <path d="M73.419 48.752C75.642 48.693 76.325 51.127 74.341 52.047C73.523 52.075 72.883 51.903 72.481 51.118C72.272 50.714 72.235 50.242 72.381 49.81C72.571 49.231 72.912 49.02 73.419 48.752ZM73.9 51.254C74.77 50.724 75.037 49.701 73.983 49.205C72.946 49.798 72.532 50.795 73.9 51.254Z" fill="#BABABA" />
        <path d="M73.983 49.205C75.037 49.701 74.77 50.724 73.9 51.254C72.532 50.795 72.946 49.798 73.983 49.205Z" fill="#BABABA" />
        <path d="M0.644 31.818C3.079 30.369 4.587 33.239 2.543 34.45C2.066 34.733 1.115 34.413 0.638 34.094C-0.098 33.318 0.091 32.645 0.644 31.818Z" fill="#BABABA" />
        <path d="M1.338 24.359C1.816 24.415 2.152 24.412 2.627 24.414C3.106 24.742 3.185 24.801 3.552 25.247C3.637 25.837 3.669 26.203 3.293 26.717C3.001 27.116 2.553 27.372 2.061 27.419C0.781 27.554 0.185 26.618 0.209 25.453C0.557 24.823 0.701 24.684 1.338 24.359Z" fill="#BABABA" />
        <path d="M80.94 46.721C81.739 46.723 82.331 46.898 82.724 47.664C82.936 48.072 82.974 48.549 82.83 48.985C82.635 49.573 82.323 49.763 81.805 50.019C79.555 50.021 78.864 47.797 80.94 46.721Z" fill="#BABABA" />
        <path d="M1.226 20.769L2.619 20.806C3.549 21.47 3.76 21.92 3.419 23.026C2.715 23.822 1.796 24.04 0.822 23.538C0.206 22.8 0.198 22.737 0.205 21.79C0.514 21.257 0.686 21.067 1.226 20.769Z" fill="#BABABA" />
        <path d="M1.447 10.38C2.226 9.691 2.687 9.541 3.711 9.834C4.409 10.619 4.874 11.65 3.933 12.498C3.609 12.789 3.177 12.93 2.744 12.886C2.228 12.838 1.765 12.557 1.455 12.146C1.365 12.026 1.283 11.901 1.208 11.771C1.252 11.12 1.271 11.007 1.447 10.38Z" fill="#BABABA" />
        <path d="M58.378 52.914C59.207 53.036 59.735 53.277 60.037 54.126C60.192 54.55 60.162 55.02 59.953 55.42C59.695 55.908 59.304 56.081 58.81 56.243C57.94 56.178 57.334 56 57.039 55.073C56.895 54.629 56.939 54.146 57.16 53.735C57.452 53.2 57.827 53.062 58.378 52.914Z" fill="#BABABA" />
        <path d="M84.492 45.757C85.302 45.719 85.878 45.851 86.321 46.599C86.568 47.027 86.621 47.541 86.464 48.011C86.27 48.601 85.944 48.795 85.421 49.048C83.254 49.143 82.634 46.878 84.492 45.757Z" fill="#BABABA" />
        <path d="M114.555 41.858C114.648 39.912 116.259 39.191 117.651 40.638L117.839 41.063C117.809 43.069 116.206 43.731 114.756 42.344L114.686 42.252L114.555 41.858Z" fill="#BABABA" />
        <path d="M91.743 43.817C91.997 43.805 92.27 43.788 92.517 43.851C92.951 43.964 93.32 44.247 93.543 44.635C94.112 45.643 93.574 46.577 92.659 47.1C91.867 47.111 91.231 46.928 90.814 46.188C90.586 45.792 90.536 45.317 90.678 44.883C90.872 44.286 91.218 44.075 91.743 43.817Z" fill="#BABABA" />
        <path d="M119.214 42.119C120.289 41.988 120.699 42.253 121.267 43.184C121.501 44.466 120.834 45.254 119.539 45.3C117.862 44.714 117.473 42.993 119.214 42.119Z" fill="#BABABA" />
        <path d="M105.233 40.15C106.08 40.035 106.783 40.207 107.214 41.017C107.422 41.415 107.464 41.879 107.329 42.308C107.135 42.919 106.805 43.144 106.267 43.412C104.358 43.553 103.52 41.336 105.233 40.15Z" fill="#BABABA" />
        <path d="M108.884 39.175C110.922 38.982 111.625 41.452 109.836 42.454C107.713 42.647 106.947 40.349 108.884 39.175Z" fill="#BABABA" />
        <path d="M112.365 38.41C114.431 38.191 115.171 40.687 113.259 41.714C112.558 41.765 111.983 41.601 111.584 40.974C111.314 40.541 111.236 40.016 111.369 39.524C111.539 38.868 111.811 38.709 112.365 38.41Z" fill="#BABABA" />
        <path d="M4.465 8.417C5.374 7.568 5.819 7.559 6.976 7.742L7.303 8.245C7.881 9.136 7.645 9.671 7.06 10.463C5.409 11.495 4.299 10.135 4.465 8.417Z" fill="#BABABA" />
        <path d="M95.48 42.755C96.217 42.796 96.782 43.011 97.119 43.72C97.336 44.178 97.35 44.707 97.156 45.176C96.91 45.784 96.593 45.919 96.024 46.149C95.755 46.124 95.529 46.104 95.276 46C94.849 45.825 94.513 45.482 94.347 45.052C94.175 44.622 94.185 44.141 94.374 43.718C94.612 43.182 94.966 42.963 95.48 42.755ZM95.593 45.121C95.859 45.022 96.04 44.972 96.189 44.698C96.293 44.511 96.297 44.286 96.2 44.096C96.049 43.805 95.822 43.709 95.525 43.621C95.207 43.783 94.935 43.863 94.78 44.167C94.854 44.623 95.202 44.802 95.593 45.121Z" fill="#BABABA" />
        <path d="M95.525 43.621C95.822 43.709 96.049 43.805 96.2 44.096C96.296 44.286 96.293 44.511 96.189 44.698C96.04 44.972 95.859 45.022 95.593 45.121C95.202 44.802 94.854 44.623 94.78 44.167C94.935 43.863 95.207 43.783 95.525 43.621Z" fill="#BABABA" />
        <path d="M84.441 9C84.425 7.287 85.193 6.626 86.897 7.147C87.273 7.646 87.419 7.981 87.543 8.593C87.794 8.233 87.71 8.239 88.052 8.085C88.414 8.371 88.175 8.988 87.946 9.306L87.752 9.343C87.55 9.108 87.621 9.203 87.535 8.873C86.785 10.298 85.336 10.33 84.441 9Z" fill="#BABABA" />
        <path d="M98.668 41.878C99.466 41.828 99.987 41.923 100.443 42.656C100.711 43.089 100.79 43.614 100.66 44.106C100.508 44.697 100.233 44.889 99.738 45.178C97.596 45.35 96.941 43.047 98.668 41.878ZM99.311 44.032C99.571 43.804 99.759 43.689 99.867 43.363C99.8 42.875 99.466 42.807 99.019 42.679C98.719 43.122 98.49 43.553 98.905 43.999C99.082 44.029 99.157 44.069 99.311 44.032Z" fill="#BABABA" />
        <path d="M99.019 42.679C99.466 42.807 99.8 42.875 99.867 43.363C99.759 43.689 99.571 43.804 99.311 44.032C99.157 44.069 99.082 44.03 98.905 43.999C98.491 43.553 98.719 43.122 99.019 42.679Z" fill="#BABABA" />
        <path d="M106.144 24.425C106.412 24.397 107.136 24.303 107.361 24.369C109.142 24.896 108.968 26.408 107.637 27.264C105.471 27.685 104.453 25.692 106.144 24.425Z" fill="#BABABA" />
        <path d="M81.832 13.977C84.054 13.917 84.915 15.759 83.067 16.98C82.218 17.157 81.433 17.041 80.984 16.208C80.777 15.83 80.736 15.382 80.873 14.973C81.057 14.425 81.342 14.214 81.832 13.977Z" fill="#BABABA" />
        <path d="M123.454 44.434C123.744 44.571 123.966 44.645 124.21 44.845C124.066 45.331 124.105 45.356 124.365 45.834L124.641 46.015C124.866 45.901 124.784 45.947 124.948 45.715L125.049 45.944C124.874 47.323 124.148 47.979 122.736 47.695C122.646 47.677 122.556 47.657 122.466 47.637C121.884 46.878 121.283 46.113 122.05 45.107C122.402 44.644 122.905 44.544 123.454 44.434Z" fill="#BABABA" />
        <path d="M102.04 40.916C102.794 40.9 103.307 41.104 103.719 41.773C103.982 42.205 104.056 42.727 103.924 43.215C103.762 43.821 103.43 44.021 102.917 44.301C100.95 44.363 100.215 42.029 102.04 40.916Z" fill="#BABABA" />
        <path d="M106.28 31.454C107.156 31.4 107.91 31.403 108.448 32.198C109.059 33.101 108.488 33.878 107.722 34.364C105.42 34.693 104.587 32.606 106.28 31.454Z" fill="#BABABA" />
        <path d="M30.113 14.012C30.942 13.778 31.806 14.255 32.05 15.082C32.295 15.909 31.829 16.778 31.005 17.032C30.463 17.2 29.872 17.063 29.459 16.674C29.046 16.285 28.875 15.703 29.01 15.152C29.145 14.601 29.567 14.165 30.113 14.012ZM30.337 16.573C31.688 16.398 32.12 15.009 30.852 14.449C30.144 14.71 29.77 14.742 29.431 15.404C29.421 16.04 29.804 16.305 30.337 16.573Z" fill="#BABABA" />
        <path d="M30.852 14.449C32.12 15.009 31.688 16.398 30.337 16.573C29.804 16.305 29.421 16.04 29.431 15.404C29.771 14.742 30.145 14.71 30.852 14.449Z" fill="#BABABA" />
        <path d="M121.603 59.637C123.672 58.161 125.125 61.061 123.517 62.016C122.533 62.602 121.562 62.022 120.975 61.074C120.959 60.834 120.919 60.694 120.866 60.46C120.988 60.145 121.041 59.926 121.273 59.68L121.603 59.637Z" fill="#BABABA" />
        <path d="M106.304 35.126C107.169 35.063 107.953 35.02 108.522 35.794C109.144 36.638 108.491 37.428 107.782 37.88C105.616 38.331 104.509 36.465 106.304 35.126Z" fill="#BABABA" />
        <path d="M106.451 27.892C107.528 27.874 108.886 28.141 108.573 29.759C108.482 30.231 107.95 30.607 107.524 30.823C106.704 30.913 106.019 30.884 105.575 30.058C105.387 29.713 105.349 29.306 105.47 28.933C105.644 28.379 105.963 28.138 106.451 27.892Z" fill="#BABABA" />
        <path d="M85.556 13.922C86.37 13.7 87.212 14.168 87.455 14.975C87.698 15.783 87.253 16.637 86.453 16.901C85.914 17.078 85.323 16.95 84.908 16.566C84.492 16.182 84.318 15.602 84.454 15.053C84.588 14.503 85.01 14.07 85.556 13.922Z" fill="#BABABA" />
        <path d="M15.023 95.57C15.054 94.774 15.44 94.079 16.261 93.884C16.7 93.784 17.161 93.865 17.54 94.108C18.084 94.454 18.224 94.87 18.342 95.465C17.559 97.294 15.836 97.378 15.023 95.57Z" fill="#BABABA" />
        <path d="M100.55 10.782C99.501 10.227 98.836 9.087 99.832 8.126C100.161 7.815 100.603 7.651 101.056 7.674C102.258 7.723 102.478 8.726 102.41 9.716C101.93 10.421 101.497 10.997 100.55 10.782Z" fill="#BABABA" />
        <path d="M11.431 94.814C11.992 94.289 12.117 93.771 13.048 93.792C14.095 93.817 14.599 94.656 14.683 95.579C13.532 97.598 11.229 97.042 11.431 94.814Z" fill="#BABABA" />
        <path d="M7.851 95.514C7.736 94.913 7.986 94.3 8.488 93.951C8.989 93.601 9.65 93.579 10.174 93.894C10.699 94.209 10.989 94.803 10.915 95.41C10.824 96.17 10.192 96.749 9.428 96.775C8.663 96.801 7.994 96.266 7.851 95.514Z" fill="#BABABA" />
        <path d="M85.526 10.443C86.055 10.266 86.639 10.389 87.052 10.764C87.466 11.14 87.644 11.71 87.518 12.254C87.392 12.798 86.982 13.231 86.446 13.387C85.639 13.622 84.793 13.168 84.543 12.366C84.292 11.564 84.729 10.709 85.526 10.443Z" fill="#BABABA" />
        <path d="M8.356 7.684C9.198 7.242 9.851 7.088 10.602 7.784C11.476 9.298 10.614 10.722 8.91 10.356C8.18 9.828 8.167 9.661 7.877 8.826C8.029 8.364 8.142 8.124 8.356 7.684Z" fill="#BABABA" />
        <path d="M18.776 94.835C19.204 94.373 19.558 93.943 20.233 93.813C20.9 93.683 21.619 94.655 21.925 94.832C22.248 97.46 18.473 97.562 18.776 94.835Z" fill="#BABABA" />
        <path d="M93.22 10.372C92.855 10.098 92.469 9.808 92.382 9.321C91.9 6.624 95.379 6.985 95.493 9.132C95.528 9.776 94.559 10.322 93.998 10.47L93.22 10.372Z" fill="#BABABA" />
        <path d="M77.576 2.292C77.625 0.744 78.115 -0.065 79.766 0.135C80.377 0.665 80.511 0.843 80.741 1.618C80.171 3.422 78.835 3.647 77.576 2.292Z" fill="#BABABA" />
        <path d="M33.39 95.743C33.407 94.701 33.917 93.866 35.07 93.932C35.521 93.957 35.941 94.168 36.23 94.515C36.527 94.873 36.587 95.191 36.612 95.638C35.878 97.363 34.324 97.341 33.39 95.743Z" fill="#BABABA" />
        <path d="M23.977 93.904C24.764 94.056 24.909 94.151 25.486 94.712C25.944 96.512 24.244 97.446 23.031 96.566C22.714 96.335 22.499 95.989 22.434 95.602C22.393 95.343 22.422 95.073 22.471 94.819C23.176 94.155 22.962 94.075 23.977 93.904Z" fill="#BABABA" />
        <path d="M96.372 10.104C96.052 9.694 95.74 9.191 95.835 8.64C96.164 6.722 99.665 7.281 98.82 9.408C98.551 10.085 98.252 10.333 97.515 10.485L97.078 10.432L96.782 10.316L96.372 10.104Z" fill="#BABABA" />
        <path d="M15.409 7.619C16.517 7.189 17.316 7.263 17.929 8.387C18.012 9.18 17.923 9.455 17.406 10.081C16.694 10.504 16.477 10.442 15.679 10.224C14.669 9.399 14.624 8.633 15.409 7.619Z" fill="#BABABA" />
        <path d="M28.014 93.916C28.648 94.194 28.746 94.296 29.181 94.828C29.58 98.07 25.022 97.13 26.357 94.541C27.212 94.132 26.685 93.981 28.014 93.916Z" fill="#BABABA" />
        <path d="M31.226 93.896C32.397 94.133 32.802 94.464 32.932 95.672C32.512 96.499 31.968 97.056 30.948 96.87C30.547 96.802 30.197 96.561 29.989 96.212C29.669 95.668 29.751 95.188 29.916 94.626C29.977 94.586 30.204 94.326 30.268 94.255C30.688 94.01 30.748 93.984 31.226 93.896Z" fill="#BABABA" />
        <path d="M78.417 13.982C79.137 13.93 79.738 13.978 80.161 14.649C80.366 14.969 80.43 15.359 80.336 15.727C80.187 16.336 79.789 16.675 79.27 16.967C76.975 17.18 76.704 14.869 78.417 13.982Z" fill="#BABABA" />
        <path d="M37.035 94.994C38.192 93.45 39.926 93.595 40.287 95.571C39.908 96.355 39.651 96.852 38.651 96.885C38.209 96.903 37.781 96.73 37.476 96.41C37.057 95.966 37.029 95.569 37.035 94.994Z" fill="#BABABA" />
        <path d="M89.989 7.423C90.795 7.292 91.562 7.821 91.728 8.621C91.892 9.422 91.397 10.21 90.604 10.409C90.06 10.545 89.485 10.373 89.107 9.959C88.729 9.545 88.608 8.958 88.791 8.428C88.976 7.899 89.436 7.513 89.989 7.423Z" fill="#BABABA" />
        <path d="M40.737 95.787C40.744 94.724 41.221 93.889 42.408 93.972C42.861 94.006 43.279 94.225 43.564 94.578C43.867 94.953 43.898 95.261 43.912 95.722C43.139 97.357 41.622 97.347 40.737 95.787Z" fill="#BABABA" />
        <path d="M77.751 3.839C78.163 3.488 78.415 3.341 78.985 3.368C79.433 3.386 79.853 3.589 80.144 3.929C80.425 4.266 80.554 4.704 80.5 5.138C80.465 5.433 80.389 5.569 80.251 5.824L79.727 6.285C79.392 6.345 79.186 6.402 78.859 6.497C77.349 6.004 77.435 5.18 77.751 3.839Z" fill="#BABABA" />
        <path d="M52.857 7.379C53.65 7.103 54.517 7.519 54.797 8.31C55.078 9.101 54.666 9.97 53.876 10.255C53.081 10.541 52.204 10.126 51.922 9.329C51.639 8.532 52.059 7.658 52.857 7.379Z" fill="#BABABA" />
        <path d="M11.886 7.57C12.701 7.273 13.411 7.154 14.058 7.868C14.563 8.827 14.501 9.584 13.571 10.246C12.95 10.411 12.698 10.373 12.078 10.215C11.864 10.034 11.647 9.754 11.463 9.535C11.257 8.642 11.367 8.306 11.886 7.57Z" fill="#BABABA" />
        <path d="M26.482 13.973C26.688 13.962 26.95 13.945 27.151 13.976C27.552 14.035 27.911 14.258 28.142 14.591C28.776 15.506 28.269 16.452 27.408 16.973C25.578 17.371 25.214 16.15 25.668 14.638C25.891 14.419 26.228 14.172 26.482 13.973Z" fill="#BABABA" />
        <path d="M73.564 7.309C75.931 7.128 76.13 9.504 74.547 10.313C73.816 10.347 73.217 10.262 72.783 9.601C72.555 9.254 72.489 8.826 72.602 8.426C72.786 7.79 73.023 7.617 73.564 7.309Z" fill="#BABABA" />
        <path d="M82.018 0.02C82.648 0.026 82.846 0.038 83.476 0.144C85.614 2.572 81.949 4.578 81.122 1.502C81.327 0.734 81.443 0.568 82.018 0.02Z" fill="#BABABA" />
        <path d="M56.228 7.379C56.742 7.177 57.324 7.271 57.75 7.622C58.175 7.974 58.376 8.528 58.275 9.071C58.175 9.614 57.787 10.059 57.264 10.234C56.483 10.495 55.635 10.086 55.354 9.311C55.073 8.537 55.461 7.679 56.228 7.379Z" fill="#BABABA" />
        <path d="M26.314 3.438C27.129 3.345 27.754 3.326 28.302 4.044C28.538 4.348 28.638 4.737 28.578 5.117C28.478 5.772 28.17 6.02 27.673 6.39C25.745 6.793 24.926 4.631 26.314 3.438Z" fill="#BABABA" />
        <path d="M42.148 7.406C42.958 7.21 43.775 7.705 43.975 8.514C44.176 9.323 43.686 10.142 42.878 10.348C42.064 10.555 41.236 10.06 41.033 9.244C40.831 8.428 41.331 7.604 42.148 7.406Z" fill="#BABABA" />
        <path d="M44.325 95.689C44.393 95.152 44.493 94.695 44.939 94.331C45.278 94.051 45.719 93.925 46.156 93.984C46.582 94.047 46.966 94.279 47.219 94.628C47.508 95.027 47.503 95.358 47.51 95.835C46.553 97.398 45.168 97.265 44.325 95.689Z" fill="#BABABA" />
        <path d="M49.214 7.415C51.548 7.105 52.023 9.32 50.127 10.377C48.294 10.478 47.466 8.527 49.214 7.415Z" fill="#BABABA" />
        <path d="M33.491 10.529C34.259 10.216 35.136 10.579 35.458 11.343C35.781 12.108 35.428 12.989 34.667 13.32C34.167 13.537 33.589 13.469 33.153 13.142C32.718 12.814 32.492 12.278 32.561 11.737C32.631 11.197 32.986 10.735 33.491 10.529Z" fill="#BABABA" />
        <path d="M78.756 10.431C79.581 10.276 80.376 10.822 80.525 11.648C80.676 12.474 80.125 13.264 79.298 13.409C78.478 13.553 77.697 13.008 77.548 12.189C77.398 11.37 77.939 10.585 78.756 10.431Z" fill="#BABABA" />
        <path d="M55.099 57.252C52.585 58.231 51.919 53.143 55.41 54.276L55.314 54.575C56.503 56.094 54.995 56.786 55.099 57.252ZM54.622 56.765C55.499 55.992 55.907 54.9 54.43 54.516C52.945 54.972 53.485 56.334 54.622 56.765Z" fill="#BABABA" />
        <path d="M54.43 54.516C55.907 54.9 55.499 55.992 54.622 56.766C53.485 56.335 52.945 54.972 54.43 54.516Z" fill="#BABABA" />
        <path d="M33.758 3.389C34.254 3.356 34.324 3.331 34.788 3.463C35.454 4.295 35.956 5.554 34.79 6.23C34.405 6.448 33.949 6.504 33.522 6.384C32.007 5.957 32.384 4.014 33.758 3.389Z" fill="#BABABA" />
        <path d="M4.882 14.457C4.802 14.241 4.5 13.898 4.455 13.726C4.046 12.174 5.416 11.281 6.764 11.888C7.361 12.417 7.311 12.572 7.41 13.368C7.166 13.899 7.089 13.99 6.712 14.443L6.611 14.477C5.771 14.751 5.772 14.758 4.882 14.457Z" fill="#BABABA" />
        <path d="M33.411 13.966C35.461 13.734 36.361 15.554 34.611 16.884C33.932 17.018 33.333 17.013 32.885 16.404C32.617 16.032 32.518 15.564 32.612 15.115C32.737 14.497 32.918 14.297 33.411 13.966Z" fill="#BABABA" />
        <path d="M28.522 0.762C28.716 1.228 28.873 2.139 28.532 2.52C26.451 4.85 23.883 0.77 27.739 0.133C28.033 0.35 28.262 0.507 28.522 0.762Z" fill="#BABABA" />
        <path d="M81.477 17.847C82.168 17.821 84.31 17.622 84.222 19.014C84.196 19.434 83.626 20.066 83.285 20.329C81.337 20.986 79.991 18.82 81.477 17.847Z" fill="#BABABA" />
        <path d="M121.253 52.91L121.78 52.926C124.953 52.991 122.276 58.084 120.173 54.78C120.198 53.768 120.43 53.488 121.253 52.91Z" fill="#BABABA" />
        <path d="M59.797 7.304C61.908 7.31 62.315 9.3 60.716 10.271C60.393 10.3 60.084 10.342 59.773 10.239C59.35 10.095 59.006 9.782 58.824 9.375C58.394 8.416 58.901 7.669 59.797 7.304Z" fill="#BABABA" />
        <path d="M33.824 6.97C34.643 6.845 35.408 7.407 35.533 8.226C35.659 9.044 35.097 9.809 34.279 9.936C33.46 10.062 32.693 9.5 32.568 8.68C32.442 7.861 33.005 7.095 33.824 6.97Z" fill="#BABABA" />
        <path d="M30.348 0L31.588 0.234C32.062 0.818 32.196 0.944 32.218 1.68C31.372 4.514 28.159 2.542 29.662 0.545C29.918 0.323 30.074 0.199 30.348 0Z" fill="#BABABA" />
        <path d="M70.287 7.336C71.083 7.2 71.844 7.721 72.006 8.513C72.168 9.304 71.673 10.082 70.887 10.27C70.355 10.398 69.796 10.225 69.428 9.819C69.06 9.414 68.943 8.84 69.122 8.323C69.301 7.806 69.747 7.427 70.287 7.336Z" fill="#BABABA" />
        <path d="M4.349 90.285C4.849 89.475 5.641 88.896 6.556 89.518C6.971 89.806 7.243 90.257 7.305 90.758C7.512 92.327 5.425 92.966 4.513 91.469C4.501 91.14 4.403 90.624 4.349 90.285Z" fill="#BABABA" />
        <path d="M84.428 4.491L84.514 4.39L84.645 4.242C85.37 3.405 85.816 3.236 86.851 3.616C87.442 4.497 87.468 4.934 87.159 5.921C86.285 6.454 85.926 6.608 84.949 6.152C84.473 5.581 84.337 5.222 84.428 4.491Z" fill="#BABABA" />
        <path d="M45.785 7.406C46.318 7.282 46.876 7.46 47.239 7.869C47.602 8.278 47.713 8.853 47.527 9.368C47.342 9.882 46.89 10.254 46.349 10.338C45.555 10.46 44.807 9.932 44.655 9.143C44.503 8.354 45.002 7.587 45.785 7.406Z" fill="#BABABA" />
        <path d="M63.266 7.301C64 7.274 64.608 7.479 64.926 8.195C65.104 8.592 65.104 9.045 64.926 9.441C64.699 9.958 64.446 10.089 63.952 10.301C61.957 10.405 61.383 8.085 63.266 7.301Z" fill="#BABABA" />
        <path d="M66.417 7.478C67.159 7.124 68.046 7.438 68.399 8.18C68.752 8.922 68.436 9.809 67.694 10.161C66.953 10.513 66.067 10.198 65.716 9.457C65.363 8.717 65.677 7.831 66.417 7.478Z" fill="#BABABA" />
        <path d="M29.572 17.856C30.365 17.805 31.313 17.677 31.955 18.243C32.651 18.857 31.912 19.738 31.429 20.186C29.4 21.096 28.102 18.878 29.572 17.856Z" fill="#BABABA" />
        <path d="M40.752 56.48C40.375 56.376 40.106 56.311 39.825 56.026C39.515 55.717 39.356 55.288 39.39 54.851C39.419 54.474 39.611 54.129 39.916 53.906C40.327 53.605 40.718 53.59 41.197 53.649L41.317 53.667C41.982 53.931 42.095 54.099 42.473 54.714C42.424 55.819 41.932 56.483 40.752 56.48Z" fill="#BABABA" />
        <path d="M22.475 9.778C22.056 9.26 22.035 8.526 22.423 7.985C22.811 7.444 23.512 7.228 24.137 7.458C24.762 7.688 25.157 8.307 25.102 8.97C25.046 9.634 24.555 10.179 23.9 10.302C23.767 10.328 23.63 10.334 23.494 10.322C23.095 10.286 22.727 10.09 22.475 9.778Z" fill="#BABABA" />
        <path d="M24.339 93.484C24.032 93.476 23.558 93.421 23.295 93.278C20.673 91.844 25.107 88.646 25.564 92.164C25.267 92.966 25.141 93.142 24.339 93.484Z" fill="#BABABA" />
        <path d="M33.452 0.131C35.102 0.391 35.743 1.05 35.006 2.758C34.554 3.039 34.537 3.055 34.033 3.149L33.871 3.18C33.837 3.186 33.802 3.192 33.768 3.198C32.876 2.881 32.633 2.602 32.326 1.705C32.356 1.586 32.391 1.468 32.429 1.352C32.616 0.803 32.931 0.388 33.452 0.131Z" fill="#BABABA" />
        <path d="M26.811 10.527C27.332 10.43 27.865 10.62 28.207 11.025C28.549 11.431 28.647 11.989 28.464 12.486C28.28 12.983 27.844 13.344 27.32 13.43C26.523 13.562 25.769 13.027 25.629 12.231C25.489 11.435 26.016 10.675 26.811 10.527Z" fill="#BABABA" />
        <path d="M85.027 0.222C86.571 0.223 87.743 0.919 87.019 2.629C85.28 4.022 83.264 2.276 85.027 0.222Z" fill="#BABABA" />
        <path d="M100.649 10.897C102.082 11.129 102.548 11.933 101.84 13.226C101.335 13.669 100.808 14.005 100.112 13.776C99.759 13.659 99.471 13.401 99.319 13.063C98.798 11.917 99.724 11.266 100.649 10.897Z" fill="#BABABA" />
        <path d="M19.336 39.191C19.858 37.648 20.943 37.644 22.154 38.482C22.29 38.863 22.342 39.019 22.423 39.412C22.076 40.641 21.433 40.857 20.231 40.72C19.627 40.021 19.528 40.453 19.336 39.191Z" fill="#BABABA" />
        <path d="M19.357 46.052C19.916 44.882 20.527 44.708 21.723 45.124C22.881 46.335 22.244 47.872 20.746 47.771C20.319 47.739 19.927 47.523 19.671 47.18C19.384 46.796 19.381 46.52 19.357 46.052Z" fill="#BABABA" />
        <path d="M13.261 27.766C13.98 27.847 14.533 28.441 14.561 29.165C14.59 29.888 14.086 30.524 13.375 30.661C12.664 30.799 11.959 30.397 11.716 29.715C11.528 29.189 11.656 28.603 12.044 28.202C12.36 27.876 12.81 27.715 13.261 27.766Z" fill="#BABABA" />
        <path d="M118.557 58.468C119.833 57.547 121.349 58.097 121.273 59.68C121.041 59.926 120.988 60.145 120.866 60.46C119.793 61.311 118.887 60.795 118.267 59.721C118.26 59.077 118.303 59.05 118.557 58.468Z" fill="#BABABA" />
        <path d="M118.741 57.703C118.023 57.363 117.606 56.631 117.849 55.847C117.978 55.431 118.277 55.088 118.673 54.905C119.192 54.661 119.489 54.766 120.002 54.943C120.889 55.939 120.858 56.241 120.193 57.365C119.594 57.667 119.405 57.819 118.741 57.703Z" fill="#BABABA" />
        <path d="M17.853 30.167C17.379 30.735 16.553 30.858 15.934 30.451C15.314 30.044 15.098 29.238 15.431 28.576C15.764 27.915 16.541 27.608 17.236 27.863C17.771 28.059 18.143 28.549 18.188 29.117C18.218 29.497 18.098 29.874 17.853 30.167Z" fill="#BABABA" />
        <path d="M78.955 6.657C79.811 6.866 80.01 6.933 80.458 7.691C80.715 8.831 80.279 9.955 78.847 9.869C77.862 9.809 78.409 8.402 77.779 7.637C78.027 6.926 78.297 6.926 78.955 6.657Z" fill="#BABABA" />
        <path d="M20.482 27.812L21.016 27.927C21.36 28.147 21.343 28.141 21.588 28.475L21.828 28.945C21.768 29.291 21.703 29.637 21.634 29.982C20.242 31.161 18.899 30.736 18.826 28.853C19.395 27.96 19.445 27.953 20.482 27.812Z" fill="#BABABA" />
        <path d="M102.968 27.84C103.712 27.597 104.514 27.992 104.775 28.729C105.037 29.467 104.663 30.279 103.932 30.559C103.443 30.747 102.89 30.654 102.489 30.318C102.087 29.981 101.899 29.453 101.999 28.938C102.098 28.423 102.469 28.003 102.968 27.84Z" fill="#BABABA" />
        <path d="M84.948 27.901C87.115 27.665 87.939 29.44 86.204 30.57C85.21 30.63 84.132 30.395 84.155 29.007C84.163 28.569 84.585 28.142 84.948 27.901Z" fill="#BABABA" />
        <path d="M81.291 27.893C82.09 27.849 82.775 27.796 83.259 28.565C83.786 29.405 83.22 30.123 82.527 30.559C80.499 30.764 79.775 29.043 81.291 27.893Z" fill="#BABABA" />
        <path d="M29.823 92.172C30.626 88.398 35.293 93.033 31.197 93.54C30.393 93.393 29.991 92.956 29.823 92.172Z" fill="#BABABA" />
        <path d="M18.459 8.407C18.889 7.434 20.045 6.992 20.925 7.702C21.013 8.021 21.306 8.474 21.178 8.766C21.016 9.138 20.818 9.401 20.712 9.811L20.879 10.062L20.808 10.099L20.512 10.305C19.186 10.673 18.429 9.662 18.459 8.407Z" fill="#BABABA" />
        <path d="M42.176 27.785C42.96 27.731 43.641 28.319 43.7 29.102C43.759 29.885 43.175 30.569 42.392 30.633C41.603 30.697 40.912 30.107 40.852 29.317C40.793 28.528 41.387 27.841 42.176 27.785Z" fill="#BABABA" />
        <path d="M26.817 6.806C27.476 6.808 28.059 7.001 28.395 7.6C28.599 7.963 28.643 8.395 28.516 8.792C28.331 9.387 28.047 9.574 27.532 9.854C25.964 10.233 25.809 8.347 26.115 7.288C26.177 7.073 26.624 6.895 26.817 6.806Z" fill="#BABABA" />
        <path d="M70.6 27.823C71.367 27.632 72.141 28.1 72.329 28.866C72.516 29.633 72.045 30.406 71.277 30.59C70.514 30.772 69.748 30.304 69.562 29.543C69.375 28.781 69.84 28.013 70.6 27.823Z" fill="#BABABA" />
        <path d="M89.102 27.808C89.871 27.663 90.613 28.168 90.761 28.937C90.907 29.706 90.405 30.449 89.636 30.599C88.864 30.749 88.117 30.244 87.969 29.471C87.822 28.699 88.329 27.953 89.102 27.808Z" fill="#BABABA" />
        <path d="M26.299 92.233C26.253 91.666 26.55 91.127 27.054 90.863C27.557 90.598 28.17 90.66 28.61 91.018C29.051 91.378 29.236 91.964 29.079 92.511C28.996 92.8 28.824 93.055 28.587 93.24C28.431 93.361 28.25 93.449 28.058 93.498C27.653 93.599 27.224 93.517 26.885 93.272C26.546 93.029 26.332 92.649 26.299 92.233Z" fill="#BABABA" />
        <path d="M63.184 27.894C65.374 27.766 65.82 29.632 64.169 30.579C62.269 30.711 61.388 28.759 63.184 27.894Z" fill="#BABABA" />
        <path d="M21.116 41.455C22.159 41.874 22.542 42.282 22.307 43.434C22.065 43.674 21.761 43.984 21.492 44.183C20.828 44.328 20.642 44.239 20.001 43.976C19.012 42.69 19.448 41.587 21.116 41.455Z" fill="#BABABA" />
        <path d="M67.157 27.801C67.667 27.745 68.167 27.969 68.464 28.386C68.762 28.802 68.812 29.347 68.594 29.811C68.376 30.275 67.924 30.585 67.414 30.622C66.644 30.677 65.972 30.106 65.901 29.337C65.831 28.568 66.39 27.885 67.157 27.801Z" fill="#BABABA" />
        <path d="M39.511 59.06C39.506 58.444 39.459 58 39.924 57.526C40.782 56.653 42.522 57.4 42.41 58.634C42.361 59.178 41.994 59.508 41.583 59.808C40.437 60.053 40.298 59.754 39.511 59.06Z" fill="#BABABA" />
        <path d="M77.662 27.892C79.876 27.738 80.462 29.616 78.762 30.564C76.821 30.791 76.111 29.009 77.662 27.892Z" fill="#BABABA" />
        <path d="M38.07 27.916C38.541 27.722 39.081 27.795 39.482 28.109C39.884 28.423 40.086 28.929 40.011 29.433C39.935 29.938 39.594 30.362 39.119 30.545C38.395 30.823 37.583 30.468 37.296 29.749C37.009 29.029 37.354 28.212 38.07 27.916Z" fill="#BABABA" />
        <path d="M31.817 47.652C31.233 47.795 30.623 47.554 30.295 47.05C29.968 46.546 29.995 45.89 30.363 45.414C30.731 44.939 31.359 44.749 31.929 44.94C32.385 45.093 32.732 45.467 32.85 45.934C32.971 46.415 32.832 46.924 32.482 47.276C32.299 47.46 32.069 47.59 31.817 47.652Z" fill="#BABABA" />
        <path d="M96.183 27.91C96.911 27.635 97.722 27.999 98.002 28.724C98.28 29.449 97.921 30.263 97.199 30.547C96.468 30.833 95.646 30.47 95.364 29.739C95.083 29.007 95.451 28.187 96.183 27.91Z" fill="#BABABA" />
        <path d="M99.929 27.821C100.688 27.656 101.437 28.134 101.607 28.891C101.777 29.648 101.305 30.401 100.548 30.577C99.785 30.754 99.023 30.275 98.852 29.511C98.68 28.746 99.163 27.987 99.929 27.821Z" fill="#BABABA" />
        <path d="M52.724 27.893C53.207 27.722 53.745 27.827 54.129 28.166C54.513 28.505 54.682 29.026 54.572 29.526C54.462 30.027 54.089 30.428 53.598 30.575C52.865 30.794 52.091 30.388 51.853 29.66C51.616 28.933 52.003 28.148 52.724 27.893Z" fill="#BABABA" />
        <path d="M49.352 27.818C50.119 27.72 50.821 28.258 50.926 29.024C51.031 29.791 50.498 30.498 49.733 30.61C48.958 30.723 48.24 30.182 48.134 29.406C48.028 28.63 48.575 27.917 49.352 27.818Z" fill="#BABABA" />
        <path d="M56.288 27.891C58.414 27.762 59.024 29.513 57.306 30.568C55.208 30.706 54.75 28.648 56.288 27.891Z" fill="#BABABA" />
        <path d="M40.318 38.032C41.151 37.978 41.908 38.174 42.235 39.039C42.348 39.335 42.334 39.664 42.197 39.949C41.987 40.385 41.716 40.502 41.29 40.656C39.3 40.793 38.579 39.085 40.318 38.032Z" fill="#BABABA" />
        <path d="M45.713 27.817C46.475 27.706 47.185 28.228 47.307 28.988C47.429 29.748 46.917 30.466 46.158 30.597C45.658 30.684 45.15 30.495 44.828 30.103C44.506 29.71 44.421 29.175 44.604 28.702C44.787 28.229 45.211 27.891 45.713 27.817Z" fill="#BABABA" />
        <path d="M92.83 27.818C93.605 27.738 94.296 28.302 94.375 29.076C94.453 29.851 93.888 30.542 93.113 30.619C92.34 30.695 91.651 30.132 91.574 29.359C91.496 28.587 92.058 27.897 92.83 27.818Z" fill="#BABABA" />
        <path d="M26.626 46.709C26.386 45.968 26.792 45.173 27.533 44.934C28.273 44.695 29.068 45.102 29.305 45.843C29.543 46.585 29.135 47.378 28.393 47.615C27.655 47.85 26.866 47.445 26.626 46.709Z" fill="#BABABA" />
        <path d="M74.025 27.916C74.496 27.721 75.035 27.795 75.435 28.11C75.835 28.425 76.033 28.932 75.954 29.435C75.873 29.938 75.528 30.359 75.05 30.534C74.332 30.799 73.534 30.44 73.255 29.727C72.976 29.015 73.318 28.21 74.025 27.916Z" fill="#BABABA" />
        <path d="M59.826 27.838C60.576 27.635 61.349 28.081 61.548 28.833C61.748 29.584 61.299 30.355 60.547 30.552C59.799 30.748 59.033 30.302 58.834 29.554C58.636 28.807 59.079 28.039 59.826 27.838Z" fill="#BABABA" />
        <path d="M23.518 45.283C23.875 44.932 24.391 44.797 24.873 44.928C25.606 45.128 26.046 45.874 25.868 46.612C25.728 47.19 25.238 47.617 24.646 47.678C24.054 47.738 23.488 47.418 23.235 46.88C22.981 46.341 23.095 45.701 23.518 45.283Z" fill="#BABABA" />
        <path d="M34.413 27.937C35.133 27.644 35.953 27.994 36.24 28.716C36.526 29.439 36.168 30.256 35.443 30.535C34.728 30.81 33.924 30.458 33.642 29.746C33.359 29.033 33.704 28.226 34.413 27.937Z" fill="#BABABA" />
        <path d="M24.17 41.51C24.549 41.418 24.949 41.49 25.273 41.708C25.596 41.926 25.812 42.27 25.869 42.656C25.966 43.318 25.578 43.955 24.945 44.171C24.568 44.3 24.154 44.26 23.809 44.063C23.463 43.866 23.219 43.529 23.138 43.14C22.986 42.407 23.443 41.686 24.17 41.51Z" fill="#BABABA" />
        <path d="M30.711 27.895L30.757 27.892C32.756 27.761 33.339 29.506 31.735 30.527C30.617 30.666 30.327 30.394 29.737 29.518C29.947 28.596 29.973 28.487 30.711 27.895Z" fill="#BABABA" />
        <path d="M28.188 41.542C28.946 41.697 29.146 41.97 29.431 42.676C29.403 43.111 29.366 43.362 29.079 43.713C28.841 44.011 28.486 44.194 28.105 44.215C27.123 44.278 26.621 43.49 26.551 42.606C26.966 41.742 27.104 41.676 28.048 41.512L28.188 41.542Z" fill="#BABABA" />
        <path d="M30.078 42.426C30.653 41.589 30.846 41.562 31.843 41.554L31.966 41.575C32.527 41.846 32.676 42.028 32.959 42.586C32.895 42.94 32.861 43.239 32.716 43.568C32.515 43.745 32.35 43.913 32.122 44.049C30.781 44.441 30.053 43.82 30.078 42.426Z" fill="#BABABA" />
        <path d="M47.533 38.063C48.252 37.818 49.033 38.206 49.273 38.927C49.512 39.648 49.117 40.426 48.393 40.659C47.679 40.889 46.913 40.5 46.677 39.788C46.44 39.075 46.823 38.306 47.533 38.063Z" fill="#BABABA" />
        <path d="M61.875 37.677C62.552 37.364 63.355 37.651 63.68 38.322C64.004 38.993 63.731 39.801 63.065 40.138C62.625 40.36 62.098 40.328 61.688 40.053C61.277 39.778 61.048 39.302 61.086 38.81C61.125 38.317 61.427 37.884 61.875 37.677Z" fill="#BABABA" />
        <path d="M47.478 41.529C48.176 41.266 48.956 41.611 49.231 42.305C49.505 42.998 49.173 43.783 48.484 44.07C48.029 44.259 47.506 44.188 47.118 43.883C46.729 43.579 46.535 43.089 46.61 42.601C46.685 42.113 47.017 41.703 47.478 41.529Z" fill="#BABABA" />
        <path d="M44.173 38.051C44.905 37.897 45.625 38.361 45.787 39.091C45.949 39.821 45.492 40.545 44.764 40.714C44.286 40.825 43.786 40.671 43.453 40.311C43.12 39.95 43.007 39.439 43.156 38.971C43.305 38.504 43.694 38.153 44.173 38.051Z" fill="#BABABA" />
        <path d="M62.223 41.036C64.169 41.204 64.491 42.993 62.738 43.694C62.43 43.705 62.065 43.656 61.792 43.503C61.452 43.31 61.203 42.99 61.1 42.613C61.004 42.267 61.066 41.896 61.271 41.601C61.532 41.224 61.8 41.13 62.223 41.036Z" fill="#BABABA" />
        <path d="M72.95 37.555C73.702 37.478 74.371 38.028 74.444 38.779C74.515 39.531 73.963 40.197 73.21 40.265C72.465 40.331 71.805 39.784 71.734 39.039C71.662 38.294 72.206 37.631 72.95 37.555Z" fill="#BABABA" />
        <path d="M23.066 39.596C23.119 38.51 23.721 38.08 24.756 38.092L24.839 38.086C25.776 38.481 25.991 38.995 25.776 39.982C25.282 40.508 25.219 40.588 24.549 40.797C23.791 40.688 23.533 40.471 23.152 39.826L23.066 39.596Z" fill="#BABABA" />
        <path d="M69.039 37.679C69.494 37.483 70.02 37.55 70.411 37.855C70.802 38.16 70.996 38.653 70.918 39.142C70.84 39.632 70.501 40.04 70.034 40.207C69.343 40.455 68.58 40.109 68.311 39.426C68.042 38.742 68.365 37.969 69.039 37.679Z" fill="#BABABA" />
        <path d="M69.171 41.026C71.227 41.051 71.693 42.976 69.964 43.631C68.107 43.628 67.41 41.897 69.171 41.026Z" fill="#BABABA" />
        <path d="M44.05 41.511C44.818 41.5 45.454 41.621 45.775 42.424C45.892 42.715 45.887 43.041 45.761 43.328C45.555 43.805 45.219 43.942 44.769 44.127C42.826 44.029 42.391 42.166 44.05 41.511ZM44.7 43.592C44.853 43.25 44.932 43.155 44.869 42.786C44.532 42.295 44.182 42.357 43.626 42.384C43.392 43.27 43.823 43.669 44.7 43.592Z" fill="#BABABA" />
        <path d="M43.626 42.384C44.182 42.357 44.532 42.295 44.869 42.786C44.932 43.155 44.853 43.25 44.7 43.592C43.823 43.669 43.392 43.27 43.626 42.384Z" fill="#BABABA" />
        <path d="M50.953 41.527C51.661 41.267 52.444 41.635 52.698 42.345C52.952 43.055 52.578 43.836 51.866 44.083C51.162 44.328 50.393 43.96 50.142 43.258C49.891 42.556 50.253 41.784 50.953 41.527Z" fill="#BABABA" />
        <path d="M47.656 44.9C48.386 44.719 49.124 45.167 49.3 45.899C49.475 46.63 49.021 47.365 48.288 47.535C47.563 47.703 46.838 47.255 46.665 46.531C46.491 45.807 46.933 45.079 47.656 44.9Z" fill="#BABABA" />
        <path d="M51.266 44.901C51.986 44.827 52.636 45.333 52.742 46.049C52.848 46.765 52.371 47.438 51.661 47.575C51.172 47.67 50.671 47.488 50.356 47.103C50.042 46.718 49.964 46.191 50.154 45.731C50.344 45.271 50.771 44.952 51.266 44.901Z" fill="#BABABA" />
        <path d="M65.601 37.681C66.064 37.508 66.586 37.603 66.96 37.928C67.334 38.252 67.5 38.756 67.394 39.239C67.287 39.723 66.924 40.11 66.449 40.247C65.75 40.449 65.018 40.063 64.789 39.373C64.561 38.683 64.919 37.936 65.601 37.681Z" fill="#BABABA" />
        <path d="M72.53 41.16C72.967 40.941 73.489 40.976 73.894 41.251C74.3 41.526 74.524 41.998 74.482 42.486C74.44 42.974 74.137 43.401 73.691 43.602C73.019 43.905 72.23 43.615 71.913 42.951C71.597 42.286 71.871 41.49 72.53 41.16Z" fill="#BABABA" />
        <path d="M51.006 38.052C51.714 37.817 52.477 38.2 52.712 38.908C52.947 39.615 52.565 40.379 51.857 40.614C51.15 40.849 50.386 40.466 50.151 39.759C49.916 39.051 50.299 38.287 51.006 38.052Z" fill="#BABABA" />
        <path d="M65.7 41.027C66.408 40.833 67.141 41.243 67.344 41.947C67.548 42.652 67.148 43.39 66.447 43.604C65.984 43.745 65.481 43.626 65.131 43.293C64.78 42.959 64.636 42.463 64.754 41.993C64.872 41.524 65.233 41.155 65.7 41.027Z" fill="#BABABA" />
        <path d="M26.734 40.043C26.528 39.205 26.71 38.369 27.658 38.154C28.062 38.06 28.487 38.142 28.827 38.379C29.094 38.569 29.271 38.86 29.317 39.184C29.362 39.499 29.281 39.873 29.154 40.162C29.098 40.217 28.758 40.546 28.732 40.584C28.177 40.746 28.09 40.749 27.518 40.704C27.238 40.5 26.993 40.273 26.734 40.043Z" fill="#BABABA" />
        <path d="M8.361 11.016C8.97 10.974 9.925 10.865 10.469 11.13C10.948 12.179 10.831 12.448 9.925 13.178C8.975 13.329 8.78 13.257 8.063 12.622C7.758 11.939 7.772 11.577 8.252 11.002L8.361 11.016Z" fill="#BABABA" />
        <path d="M12.702 27.334C11.817 27.205 11.459 26.337 11.916 25.585C12.112 25.26 12.436 25.032 12.809 24.958C13.372 24.849 13.735 25.076 14.175 25.378L14.524 25.977C14.229 27.092 13.841 27.35 12.702 27.334Z" fill="#BABABA" />
        <path d="M70.422 24.99C72.243 24.795 72.982 26.423 71.421 27.382C69.616 27.449 68.761 26.141 70.422 24.99Z" fill="#BABABA" />
        <path d="M99.676 24.992C101.583 24.861 102.322 26.483 100.731 27.351C98.992 27.475 98.048 26.209 99.676 24.992Z" fill="#BABABA" />
        <path d="M81.336 24.996C83.101 24.811 84.11 26.128 82.499 27.279C80.698 27.436 79.77 26.252 81.336 24.996Z" fill="#BABABA" />
        <path d="M103.132 24.892C103.812 24.768 104.467 25.209 104.607 25.886C104.748 26.563 104.323 27.229 103.65 27.386C103.199 27.491 102.727 27.344 102.416 27.001C102.105 26.659 102.004 26.174 102.153 25.736C102.302 25.298 102.677 24.975 103.132 24.892Z" fill="#BABABA" />
        <path d="M84.996 24.996C86.737 24.82 87.712 26.145 86.166 27.287C84.362 27.438 83.381 26.134 84.996 24.996Z" fill="#BABABA" />
        <path d="M66.995 24.973C67.706 24.971 68.335 25.119 68.586 25.88C68.683 26.165 68.652 26.477 68.501 26.738C68.281 27.126 67.992 27.255 67.591 27.385C65.695 27.167 65.284 25.635 66.995 24.973Z" fill="#BABABA" />
        <path d="M41.705 24.992C43.455 24.867 44.32 26.262 42.772 27.309C42.61 27.314 42.449 27.316 42.288 27.314C40.813 27.289 40.237 25.906 41.705 24.992Z" fill="#BABABA" />
        <path d="M38.285 24.971C38.868 24.957 39.398 25.053 39.75 25.563C39.924 25.81 39.979 26.122 39.9 26.413C39.769 26.9 39.411 27.119 39.004 27.353C37.032 27.301 36.511 25.797 38.285 24.971Z" fill="#BABABA" />
        <path d="M45.499 24.979C47.423 24.908 47.832 26.748 46.242 27.381C45.637 27.293 45.19 27.349 44.777 26.825C44.127 26.001 44.806 25.386 45.499 24.979Z" fill="#BABABA" />
        <path d="M63.149 24.991C64.954 24.828 65.869 26.283 64.225 27.3C62.493 27.366 61.583 26.152 63.149 24.991Z" fill="#BABABA" />
        <path d="M52.738 24.984C54.399 24.897 55.261 26.365 53.564 27.315C51.721 27.356 50.971 25.963 52.738 24.984Z" fill="#BABABA" />
        <path d="M88.782 24.994C90.644 24.843 91.346 26.425 89.791 27.367C88.07 27.247 87.16 26.288 88.782 24.994Z" fill="#BABABA" />
        <path d="M74.091 24.973C75.849 24.87 76.596 26.408 74.979 27.311C73.146 27.343 72.394 25.996 74.091 24.973Z" fill="#BABABA" />
        <path d="M77.679 24.986C79.488 24.859 80.361 26.415 78.702 27.29L78.469 27.297C76.762 27.337 76.309 26.077 77.679 24.986Z" fill="#BABABA" />
        <path d="M59.793 24.983C61.602 24.884 62.253 26.442 60.622 27.325C58.885 27.537 58.137 26.007 59.793 24.983Z" fill="#BABABA" />
        <path d="M18.968 26.748C18.435 23.478 23.51 25.473 20.866 27.286L20.395 27.326C19.648 27.271 19.56 27.235 18.968 26.748Z" fill="#BABABA" />
        <path d="M49.065 24.981C50.776 24.886 51.539 26.363 49.937 27.341C49.77 27.342 49.603 27.339 49.437 27.33C48.021 27.241 47.591 25.788 49.065 24.981Z" fill="#BABABA" />
        <path d="M92.541 24.981C94.189 24.906 94.983 26.212 93.412 27.313C91.423 27.388 90.876 25.811 92.541 24.981Z" fill="#BABABA" />
        <path d="M96.229 24.976C97.915 24.914 98.718 26.445 97.059 27.279C95.07 27.413 94.602 25.862 96.229 24.976Z" fill="#BABABA" />
        <path d="M56.317 24.976C56.547 24.97 56.734 24.964 56.963 25.001C57.368 25.066 57.725 25.301 57.944 25.648C58.418 26.383 57.874 26.971 57.245 27.317C55.478 27.309 54.614 26.037 56.317 24.976Z" fill="#BABABA" />
        <path d="M30.839 24.984C32.612 24.925 33.215 26.638 31.576 27.299C29.667 27.359 29.207 26.001 30.839 24.984Z" fill="#BABABA" />
        <path d="M27.136 24.993C28.897 24.887 29.548 26.494 28.068 27.31C27.832 27.309 27.59 27.309 27.354 27.296C27.009 27.274 26.689 27.11 26.471 26.843C25.855 26.097 26.573 25.421 27.136 24.993ZM27.613 26.791C27.79 26.757 27.932 26.624 27.979 26.45C28.026 26.275 27.969 26.089 27.833 25.97C27.697 25.852 27.505 25.821 27.338 25.891C27.115 25.985 26.999 26.233 27.069 26.465C27.14 26.697 27.375 26.838 27.613 26.791Z" fill="#BABABA" />
        <path d="M27.338 25.891C27.505 25.821 27.697 25.852 27.833 25.971C27.969 26.089 28.026 26.275 27.979 26.45C27.932 26.624 27.79 26.757 27.613 26.791C27.375 26.838 27.14 26.697 27.069 26.465C26.999 26.233 27.115 25.985 27.338 25.891Z" fill="#BABABA" />
        <path d="M15.248 25.987C15.823 25.136 15.957 24.996 16.976 24.927C17.226 25.04 17.256 25.063 17.518 25.139L17.653 25.407C17.588 25.558 17.568 25.568 17.597 25.744C17.69 26.3 17.115 26.544 17.625 26.982C17.498 27.086 17.354 27.213 17.219 27.302C16.041 27.452 15.453 27.221 15.248 25.987Z" fill="#BABABA" />
        <path d="M39.913 41.863C40.414 41.899 40.673 41.639 41.07 41.716L41.07 41.803L40.831 41.946L40.986 41.984C41.393 42.088 41.462 42.062 41.756 42.356C41.875 42.656 41.749 43.431 41.666 43.73L41.746 43.809C40.439 44.922 38.508 42.937 39.913 41.863Z" fill="#BABABA" />
        <path d="M75.997 9.304C75.771 8.163 75.757 6.697 77.448 7.297C77.555 7.416 77.663 7.529 77.779 7.637C78.131 8.478 77.542 9.922 76.559 9.857C76.25 9.725 76.19 9.58 75.997 9.304Z" fill="#BABABA" />
        <path d="M8.348 25.325C9.398 24.765 10.602 24.697 10.824 26.152L10.669 26.179C10.56 26.484 10.174 27.058 9.864 27.166L9.712 27.053C8.002 26.906 8.89 26.151 8.284 25.561L8.348 25.325Z" fill="#BABABA" />
        <path d="M44.455 53.68L44.626 53.665C45.193 53.85 45.368 53.917 45.707 54.404L45.753 54.55L45.627 54.638C44.864 55.181 44.437 56.028 43.814 56.05C43.315 55.817 43.245 55.389 43.108 54.891C43.557 54.149 43.584 53.982 44.398 53.674L44.455 53.68Z" fill="#BABABA" />
        <path d="M39.625 45.254C40.326 45.126 40.256 44.839 41.359 44.964C42.319 45.609 42.485 46.028 42.036 47.095C41.539 46.608 41.836 45.236 40.176 46.199C39.965 46.625 40.047 47.023 39.697 47.287C39.146 46.452 39.249 46.164 39.625 45.254Z" fill="#BABABA" />
        <path d="M34.406 27.302C32.496 26.4 34.362 23.97 35.926 25.442C36.516 25.997 36.189 26.743 35.674 27.197C35.343 27.139 35.335 27.196 35.14 27C35.316 26.652 35.391 26.574 35.35 26.187C35.001 25.688 34.623 25.809 34.178 26.099C34.073 26.663 34.72 26.708 34.406 27.302Z" fill="#BABABA" />
        <path d="M32.107 38.214C32.5 38.485 32.742 38.715 32.83 39.213C32.894 39.571 32.797 39.938 32.565 40.218C32.372 40.451 32.216 40.508 31.944 40.628C31.45 40.199 31.075 40.401 30.642 39.616C30.766 39.347 31.756 38.566 32.107 38.214Z" fill="#BABABA" />
        <path d="M24.32 27.268C24.249 27.276 24.178 27.284 24.108 27.29C22.626 27.412 22.015 26.29 23.11 25.167L23.194 25.205C23.563 25.365 24.273 25.458 24.451 25.775C24.675 26.176 24.354 26.84 24.32 27.268Z" fill="#BABABA" />
        <path d="M27.082 27.883C27.427 27.873 27.775 27.855 28.119 27.867C28.16 28.307 28.316 28.321 28.412 28.661C28.775 29.951 27.198 30.944 26.611 29.472C26.487 29.161 27.07 28.322 27.265 28.012L27.082 27.883ZM27.598 29.855C27.881 29.55 27.889 29.57 27.987 29.177C27.909 28.858 27.927 28.826 27.603 28.669C27.384 28.929 27.245 29.039 27.197 29.373C27.353 29.755 27.236 29.591 27.598 29.855Z" fill="#BABABA" />
        <path d="M27.603 28.669C27.926 28.825 27.909 28.858 27.986 29.177C27.889 29.57 27.881 29.55 27.598 29.855C27.236 29.591 27.353 29.755 27.197 29.373C27.245 29.039 27.384 28.929 27.603 28.669Z" fill="#BABABA" />
        <path d="M41.027 60.529C41.015 61.45 40.982 62.413 40.988 63.33C39.12 63.071 38.872 60.935 41.027 60.529Z" fill="#BABABA" />
        <path d="M43.491 45.208C43.934 44.962 44.347 44.805 44.86 44.966C45.224 45.081 45.527 45.338 45.7 45.679C46.072 46.428 45.671 47.154 44.946 47.477L44.825 47.377C45.257 45.337 43.908 46.23 43.221 45.631L43.491 45.208Z" fill="#BABABA" />
        <path d="M39.698 47.287C40.047 47.023 39.965 46.625 40.176 46.199C41.836 45.236 41.539 46.609 42.036 47.095L41.799 47.368C40.971 47.879 40.423 47.989 39.698 47.287Z" fill="#BABABA" />
        <path d="M23.404 27.881C23.977 27.832 24.112 27.816 24.655 27.981L24.564 28.218C25.217 29.663 24.694 29.122 24.708 30.387L24.56 30.474L24.3 30.596L23.908 30.565C23.968 30.215 24.369 30.05 24.281 29.248C23.837 28.684 23.35 29.203 22.777 28.826L22.713 28.484L22.737 28.365L23.404 27.881Z" fill="#BABABA" />
        <path d="M3.245 15.731L3.371 15.496L3.587 15.399C5.426 15.644 4.662 18.468 2.866 17.189C2.744 16.398 3.271 16.415 3.245 15.731Z" fill="#BABABA" />
        <path d="M28.119 27.867C28.732 28.203 29.078 28.698 28.987 29.406C28.666 31.916 24.272 29.838 27.082 27.883L27.265 28.012C27.07 28.322 26.488 29.161 26.611 29.472C27.198 30.944 28.775 29.951 28.412 28.661C28.316 28.321 28.16 28.307 28.119 27.867Z" fill="#BABABA" />
        <path d="M44.778 47.63C43.62 47.621 42.618 46.827 43.221 45.631C43.907 46.23 45.257 45.337 44.825 47.377L44.946 47.477L44.778 47.63Z" fill="#BABABA" />
        <path d="M22.713 28.484L22.777 28.826C23.35 29.203 23.837 28.684 24.281 29.248C24.369 30.05 23.968 30.215 23.908 30.565C22.853 30.752 22.484 29.713 22.478 28.86L22.713 28.484Z" fill="#BABABA" />
        <path d="M30.635 40.452C29.467 39.272 30.371 37.812 32.107 38.214C31.756 38.566 30.766 39.346 30.642 39.616C31.075 40.401 31.45 40.198 31.944 40.628C31.402 40.711 31.308 40.688 30.765 40.576L30.635 40.452Z" fill="#BABABA" />
        <path d="M48.602 94.366C48.846 94.772 48.896 95.649 49.117 96.25C49.345 96.438 49.59 96.61 49.756 96.85L49.694 96.96C48.709 96.9 48.503 96.655 47.995 95.83C48.064 95.042 48.07 94.935 48.602 94.366Z" fill="#BABABA" />
        <path d="M98.188 11.448L98.265 11.416C98.453 11.861 98.633 12.151 98.434 12.608C98.309 12.897 98.07 13.122 97.775 13.232C97.037 13.505 96.412 13.124 95.986 12.541C96.767 12.559 96.644 12.765 97.591 12.539C98.061 12.148 98.084 12.025 98.188 11.448Z" fill="#BABABA" />
        <path d="M23.11 25.167C25.175 24.415 25.986 26.771 24.32 27.268C24.354 26.84 24.675 26.176 24.451 25.775C24.273 25.458 23.563 25.365 23.194 25.204L23.11 25.167Z" fill="#BABABA" />
        <path d="M11.477 11.819C11.853 11.897 11.844 11.901 12.183 12.091L12.148 12.318C12.427 12.559 13.331 12.554 13.691 12.538C13.868 12.435 14.036 12.339 14.21 12.23L13.907 12.853C12.643 13.491 11.809 13.274 11.477 11.819Z" fill="#BABABA" />
        <path d="M34.406 27.302C34.72 26.708 34.073 26.663 34.178 26.099C34.623 25.809 35.001 25.688 35.35 26.187C35.391 26.574 35.316 26.652 35.14 27C35.335 27.196 35.343 27.139 35.675 27.197C35.202 27.259 34.889 27.307 34.406 27.302Z" fill="#BABABA" />
        <path d="M94.651 11.268C94.857 11.715 95.043 11.995 94.866 12.469C94.744 12.793 94.489 13.048 94.165 13.171C93.522 13.41 92.838 13.048 92.531 12.461C93.683 12.931 94.736 12.728 94.651 11.268Z" fill="#BABABA" />
        <path d="M55.411 54.276C56.475 55.099 56.519 56.965 55.099 57.252C54.996 56.786 56.503 56.094 55.314 54.575L55.411 54.276Z" fill="#BABABA" />
        <path d="M8.284 25.56C8.889 26.151 8.002 26.906 9.712 27.053L9.864 27.166C10.174 27.058 10.56 26.484 10.669 26.179L10.824 26.152L10.726 26.731C10.179 26.984 9.943 27.718 8.843 27.277C8.546 27.157 8.308 26.923 8.183 26.628C8.007 26.204 8.121 25.958 8.284 25.56Z" fill="#BABABA" />
        <path d="M39.913 41.863C41.547 40.808 43.131 42.764 41.746 43.809L41.666 43.73C41.749 43.431 41.875 42.656 41.756 42.356C41.462 42.062 41.393 42.088 40.985 41.984L40.831 41.946L41.07 41.803L41.069 41.716C40.673 41.639 40.414 41.899 39.913 41.863Z" fill="#BABABA" />
        <path d="M24.655 27.981C25.535 28.625 25.705 29.783 24.708 30.387C24.694 29.122 25.217 29.663 24.564 28.218L24.655 27.981Z" fill="#BABABA" />
        <path d="M12.183 12.091C13.507 12.191 13.216 11.954 14.265 11.727L14.21 12.23C14.036 12.339 13.868 12.435 13.691 12.538C13.331 12.554 12.427 12.559 12.148 12.318L12.183 12.091Z" fill="#BABABA" />
        <path d="M20.925 7.702C21.547 8.242 21.566 8.623 21.443 9.415C21.25 9.654 21.107 9.858 20.879 10.062L20.712 9.811C20.818 9.401 21.016 9.138 21.178 8.766C21.306 8.473 21.013 8.021 20.925 7.702Z" fill="#BABABA" />
        <path d="M17.653 25.407L17.875 25.468C18.023 26.01 18.08 26.088 17.993 26.618C17.819 26.773 17.771 26.803 17.625 26.982C17.115 26.544 17.69 26.3 17.597 25.744C17.568 25.568 17.588 25.558 17.653 25.407Z" fill="#BABABA" />
        <path d="M124.21 44.845C124.573 45.198 124.668 45.295 124.948 45.714C124.784 45.946 124.866 45.901 124.641 46.015L124.365 45.834C124.105 45.356 124.066 45.331 124.21 44.845Z" fill="#BABABA" />
      </g>
    </svg>