<svg width="208" height="120" viewBox="0 0 208 120" fill="none" xmlns="http://www.w3.org/2000/svg">
      <g style="opacity: 0.48">
        <path d="M83.656 77.554C84 77.593 84.335 77.696 84.643 77.856C86.71 78.927 86.757 81.74 84.792 82.113L84.281 82.213L84.012 82.265C83.583 82.688 83.594 82.846 83.468 83.435C83.139 83.827 82.806 83.831 82.294 83.944C79.326 83.882 78.531 80.809 81.876 79.525C82.434 78.38 82.461 78.011 83.656 77.554Z" fill="#BABABA" />
        <path d="M79.161 36.581C80.08 36.249 81.107 36.443 81.842 37.087C82.577 37.731 82.903 38.724 82.694 39.678C82.485 40.633 81.774 41.398 80.837 41.677C80.01 41.922 79.116 41.755 78.433 41.228C77.751 40.701 77.363 39.878 77.392 39.017C77.428 37.919 78.128 36.955 79.161 36.581Z" fill="#BABABA" />
        <path d="M26.463 72.88C27.865 72.496 29.313 73.322 29.697 74.725C30.081 76.127 29.255 77.575 27.853 77.959C26.45 78.343 25.001 77.517 24.617 76.115C24.233 74.711 25.06 73.263 26.463 72.88Z" fill="#BABABA" />
        <path d="M90.626 36.365C94.474 36.221 95.271 39.935 92.104 41.391C90.656 41.612 89.457 41.115 88.939 39.664C88.681 38.958 88.73 38.175 89.073 37.506C89.457 36.765 89.875 36.603 90.626 36.365Z" fill="#BABABA" />
        <path d="M73.146 36.494C74.526 36.39 75.515 36.277 76.451 37.521C76.847 38.046 76.996 38.718 76.86 39.361C76.656 40.332 76.128 40.855 75.323 41.342C71.9 42.126 70.188 38.325 73.146 36.494Z" fill="#BABABA" />
        <path d="M160.573 93.067L162.579 93.064C164.75 94.395 164.529 96.851 162.374 98.106C161.113 98.155 160.141 98.165 159.349 97.018C158.235 95.4 159.186 93.963 160.573 93.067Z" fill="#BABABA" />
        <path d="M160.391 82.206C161.633 82.152 162.786 81.936 163.66 83.054C164.684 84.365 163.878 86.237 162.642 87.093C161.148 87.131 160.092 87.182 159.166 85.774C158.212 84.324 159.132 82.984 160.391 82.206Z" fill="#BABABA" />
        <path d="M26.272 78.669C27.625 78.181 29.115 78.888 29.596 80.243C30.076 81.599 29.362 83.085 28.004 83.557C26.656 84.028 25.182 83.321 24.706 81.975C24.229 80.629 24.929 79.151 26.272 78.669Z" fill="#BABABA" />
        <path d="M136.272 78.261C137.68 77.98 139.048 78.898 139.322 80.306C139.596 81.716 138.671 83.079 137.262 83.346C135.861 83.612 134.508 82.695 134.236 81.296C133.965 79.896 134.874 78.54 136.272 78.261Z" fill="#BABABA" />
        <path d="M160.694 71.204C161.332 71.172 162.064 71.067 162.646 71.361C164.638 72.362 164.519 75.408 162.325 76.091C161.728 76.174 161.028 76.194 160.42 76.227C158.217 74.644 158.339 72.55 160.694 71.204Z" fill="#BABABA" />
        <path d="M2.621 98.664C4.033 98.481 5.327 99.475 5.515 100.886C5.702 102.297 4.713 103.594 3.302 103.786C1.885 103.978 0.582 102.984 0.393 101.567C0.205 100.15 1.203 98.849 2.621 98.664Z" fill="#BABABA" />
        <path d="M161.264 76.695C164.699 76.59 165.138 80.665 161.899 81.755C160.488 81.716 159.36 81.356 158.952 79.826C158.778 79.16 158.888 78.453 159.257 77.873C159.775 77.051 160.376 76.898 161.264 76.695Z" fill="#BABABA" />
        <path d="M2.355 76.669C3.758 76.506 5.03 77.502 5.209 78.904C5.388 80.305 4.406 81.59 3.008 81.784C2.088 81.912 1.17 81.537 0.605 80.801C0.039 80.064 -0.086 79.08 0.276 78.224C0.638 77.37 1.432 76.774 2.355 76.669Z" fill="#BABABA" />
        <path d="M67.995 36.378C69.407 36.305 70.5 36.55 70.993 38.038C71.24 38.759 71.168 39.551 70.797 40.217C70.411 40.919 69.884 41.157 69.165 41.394C65.256 41.541 64.986 37.165 67.995 36.378Z" fill="#BABABA" />
        <path d="M85.596 38.809C86.967 38.447 88.373 39.261 88.742 40.631C89.111 42 88.305 43.41 86.937 43.786C85.559 44.166 84.136 43.352 83.764 41.972C83.392 40.592 84.214 39.173 85.596 38.809Z" fill="#BABABA" />
        <path d="M51.323 36.379C52.652 36.431 53.487 36.399 54.159 37.788C54.481 38.462 54.495 39.242 54.197 39.927C53.795 40.839 53.339 41.114 52.455 41.425C48.576 41.521 48.19 37.102 51.323 36.379Z" fill="#BABABA" />
        <path d="M34.686 36.365C35.982 36.306 37.073 36.362 37.627 37.706C38.325 39.4 37.526 40.725 35.989 41.392C32.164 41.53 31.608 37.267 34.686 36.365Z" fill="#BABABA" />
        <path d="M160.68 98.573C162.74 98.482 164.404 99.097 163.836 101.866C163.675 102.646 162.952 103.269 162.228 103.622C161.789 103.67 161.243 103.698 160.813 103.576C160.073 103.365 159.458 102.847 159.123 102.152C158.83 101.535 158.805 100.824 159.052 100.187C159.393 99.323 159.871 98.936 160.68 98.573Z" fill="#BABABA" />
        <path d="M113.278 36.38C114.576 36.466 115.591 36.513 116.02 37.959C116.557 39.77 115.628 40.984 113.983 41.448C110.264 41.33 109.987 36.934 113.278 36.38Z" fill="#BABABA" />
        <path d="M160.365 87.548C160.769 87.536 161.886 87.472 162.231 87.588C164.741 88.44 164.582 91.309 162.451 92.447C158.906 92.959 157.624 89.501 160.365 87.548Z" fill="#BABABA" />
        <path d="M1.507 93.216C2.841 93.134 3.91 92.993 4.822 94.228C5.178 94.709 5.322 95.315 5.221 95.904C5.057 96.893 4.473 97.509 3.708 98.079C2.372 98.164 1.459 98.275 0.547 97.024C-0.469 95.632 0.127 94.087 1.507 93.216Z" fill="#BABABA" />
        <path d="M107.59 36.378C107.952 36.384 109.068 36.447 109.321 36.627C111.469 38.158 110.96 40.605 108.587 41.395C104.863 41.511 104.441 37.019 107.59 36.378Z" fill="#BABABA" />
        <path d="M136.305 67.059C137.677 66.831 138.979 67.741 139.241 69.106C139.502 70.472 138.627 71.797 137.268 72.093C136.358 72.289 135.413 71.978 134.798 71.279C134.185 70.581 133.997 69.603 134.31 68.726C134.623 67.849 135.386 67.212 136.305 67.059Z" fill="#BABABA" />
        <path d="M118.602 36.359C119.963 36.347 120.981 36.544 121.523 37.938C121.79 38.633 121.752 39.409 121.415 40.074C120.99 40.921 120.537 41.132 119.683 41.4C118.297 41.442 117.295 41.228 116.759 39.757C116.512 39.089 116.548 38.349 116.858 37.707C117.258 36.878 117.774 36.621 118.602 36.359Z" fill="#BABABA" />
        <path d="M135.772 72.769C137.08 72.246 138.566 72.879 139.096 74.184C139.624 75.49 139 76.978 137.698 77.516C136.385 78.056 134.882 77.426 134.347 76.11C133.814 74.793 134.453 73.294 135.772 72.769Z" fill="#BABABA" />
        <path d="M40.18 36.359C41.559 36.327 42.567 36.489 43.147 37.9C43.414 38.553 43.404 39.287 43.121 39.933C42.738 40.81 42.322 41.074 41.476 41.394C37.636 41.552 37.191 37.205 40.18 36.359Z" fill="#BABABA" />
        <path d="M135.709 83.858C137.3 83.79 139.554 83.794 139.508 86.341C139.491 87.264 138.665 88.16 137.923 88.694C137.323 88.73 136.625 88.719 136.016 88.727C133.989 87.401 133.57 85.336 135.709 83.858Z" fill="#BABABA" />
        <path d="M57.077 36.347C58.402 36.321 59.446 36.684 59.853 38.059C60.069 38.791 59.968 39.581 59.576 40.236C59.121 41.01 58.685 41.166 57.867 41.405C56.45 41.436 55.339 40.982 54.969 39.468C54.8 38.779 54.916 38.051 55.292 37.449C55.755 36.706 56.277 36.558 57.077 36.347Z" fill="#BABABA" />
        <path d="M1.98 82.215C3.347 81.844 4.754 82.655 5.118 84.023C5.482 85.391 4.665 86.795 3.295 87.152C1.935 87.508 0.542 86.697 0.181 85.338C-0.181 83.979 0.623 82.582 1.98 82.215Z" fill="#BABABA" />
        <path d="M1.575 87.7C1.886 87.677 2.992 87.584 3.239 87.662C5.743 88.46 5.902 91.265 3.695 92.528C2.382 92.646 1.341 92.694 0.49 91.461C0.123 90.928 -0.007 90.266 0.131 89.632C0.344 88.667 0.8 88.225 1.575 87.7Z" fill="#BABABA" />
        <path d="M26.133 83.983C28.599 83.901 29.234 84.29 29.869 86.628C29.432 87.852 29.425 88.142 28.313 88.834C24.627 89.169 23.188 85.896 26.133 83.983Z" fill="#BABABA" />
        <path d="M45.963 36.384C47.171 36.407 48.188 36.556 48.645 37.8C49.292 39.567 48.425 40.82 46.867 41.441C43.169 41.431 42.703 36.947 45.963 36.384Z" fill="#BABABA" />
        <path d="M62.299 36.34C63.616 36.309 64.636 36.516 65.262 37.81C65.56 38.413 65.603 39.111 65.382 39.746C65.055 40.687 64.536 41.016 63.684 41.399C62.408 41.423 61.534 41.41 60.833 40.152C60.496 39.537 60.422 38.812 60.628 38.141C60.928 37.193 61.442 36.752 62.299 36.34Z" fill="#BABABA" />
        <path d="M20.61 52.88C21.939 52.817 22.984 52.745 23.782 54.083C24.093 54.608 24.174 55.239 24.006 55.826C23.724 56.814 23.122 57.325 22.278 57.811C21.096 57.95 20.067 57.731 19.399 56.648C19.026 56.045 18.915 55.316 19.094 54.629C19.335 53.704 19.845 53.346 20.61 52.88Z" fill="#BABABA" />
        <path d="M96.769 36.378C99.581 36.496 99.448 37.493 99.371 39.927C98.691 40.899 98.531 41.074 97.403 41.413C94.754 41.136 94.518 40.404 94.624 37.862C95.324 36.784 95.516 36.621 96.769 36.378Z" fill="#BABABA" />
        <path d="M1.708 71.356L2.261 71.352C5.864 71.325 6.089 75.387 3.358 76.215C-0.227 76.32 -1.2 72.962 1.708 71.356Z" fill="#BABABA" />
        <path d="M102.121 36.373C102.502 36.381 103.407 36.414 103.729 36.586C104.283 36.883 104.699 37.383 104.893 37.98C105.459 39.685 104.494 40.965 102.884 41.455C99.314 40.934 98.972 37.09 102.121 36.373Z" fill="#BABABA" />
        <path d="M1.748 65.966C3.595 65.902 5.391 66.407 5.183 68.924C5.122 69.667 4.398 70.46 3.751 70.849C2.348 70.895 1.259 70.905 0.446 69.54C-0.454 68.029 0.418 66.709 1.748 65.966Z" fill="#BABABA" />
        <path d="M135.971 89.203C137.987 89.063 139.725 89.66 139.361 92.394C139.264 93.118 138.543 93.764 137.894 94.114C136.592 94.283 135.602 94.23 134.846 92.994C134.481 92.384 134.376 91.653 134.556 90.966C134.795 90.049 135.211 89.681 135.971 89.203Z" fill="#BABABA" />
        <path d="M29.17 36.514C33.029 36.013 33.444 40.112 30.647 41.358C27.165 41.498 25.933 37.999 29.17 36.514Z" fill="#BABABA" />
        <path d="M81.097 68.509C81.992 68.352 82.902 68.689 83.479 69.39C84.057 70.092 84.213 71.049 83.889 71.898C83.564 72.746 82.809 73.355 81.911 73.492C80.543 73.701 79.261 72.769 79.038 71.402C78.815 70.037 79.733 68.745 81.097 68.509Z" fill="#BABABA" />
        <path d="M130.01 36.386C132.441 36.575 132.838 39.077 131.561 40.827C131.116 41.435 130.269 41.437 129.572 41.462C128.377 41.218 127.575 40.638 127.41 39.347C127.311 38.554 127.549 37.756 128.064 37.145C128.681 36.418 129.096 36.454 130.01 36.386Z" fill="#BABABA" />
        <path d="M20.147 47.665C20.453 47.653 21.521 47.585 21.766 47.661C24.323 48.455 24.805 50.902 22.559 52.339C21.286 52.451 20.162 52.522 19.271 51.446C18.183 50.132 18.956 48.553 20.147 47.665Z" fill="#BABABA" />
        <path d="M151.615 56.609C154.372 56.52 154.65 58.203 154.396 60.477C153.955 61.142 153.695 61.442 152.998 61.779C151.593 61.814 150.596 61.703 149.96 60.222C149.68 59.58 149.668 58.852 149.927 58.201C150.297 57.283 150.767 57 151.615 56.609Z" fill="#BABABA" />
        <path d="M142.12 52.599C143.147 52.28 144.264 52.649 144.896 53.517C145.53 54.386 145.542 55.561 144.924 56.442C144.606 56.894 144.149 57.23 143.621 57.396C142.296 57.812 140.883 57.075 140.469 55.749C140.054 54.423 140.794 53.012 142.12 52.599Z" fill="#BABABA" />
        <path d="M24.389 38.575C28.051 38.42 28.381 42.706 25.251 43.627C24.135 43.544 23.013 43.014 22.524 41.951C22.278 41.41 22.259 40.792 22.474 40.237C22.836 39.298 23.528 38.942 24.389 38.575Z" fill="#BABABA" />
        <path d="M141.705 58.339C145.392 58.671 145.567 62.807 142.515 63.598C139.532 63.491 138.515 60.002 141.705 58.339Z" fill="#BABABA" />
        <path d="M136.995 61.976C140.804 61.527 141.648 65.101 138.869 66.669C137.169 66.767 135.169 66.551 135.397 63.964C135.465 63.179 136.318 62.382 136.995 61.976Z" fill="#BABABA" />
        <path d="M82.351 84.2C82.98 84.291 83.394 84.037 84.012 84.456C85.25 85.296 85.523 86.713 84.567 87.898C83.985 88.62 83.725 88.734 82.807 88.828C81.402 88.843 80.166 88.425 79.895 86.851C79.781 86.211 79.954 85.555 80.369 85.056C80.971 84.328 81.462 84.291 82.351 84.2Z" fill="#BABABA" />
        <path d="M25.839 62.26C26.724 62.009 27.674 62.264 28.314 62.924C28.954 63.584 29.18 64.542 28.902 65.419C28.625 66.294 27.889 66.947 26.986 67.118C25.672 67.369 24.395 66.54 24.088 65.239C23.781 63.937 24.553 62.624 25.839 62.26Z" fill="#BABABA" />
        <path d="M123.9 36.368C125.133 36.36 126.076 36.42 126.734 37.622C127.07 38.241 127.13 38.974 126.897 39.639C126.537 40.673 126.219 40.894 125.288 41.324C121.609 41.726 121.11 37.718 123.9 36.368Z" fill="#BABABA" />
        <path d="M161.355 65.837C161.794 65.837 162.437 65.898 162.822 66.118C164.113 66.852 164.224 68.573 163.458 69.734C162.928 70.536 162.455 70.573 161.544 70.732C158.954 70.584 158.639 68.686 159.379 66.59C160.17 66.084 160.433 66.014 161.355 65.837Z" fill="#BABABA" />
        <path d="M80.779 52.624C81.638 52.359 82.572 52.577 83.226 53.194C83.879 53.81 84.15 54.731 83.935 55.603C83.72 56.476 83.052 57.165 82.187 57.407C80.873 57.775 79.508 57.019 79.123 55.711C78.737 54.402 79.476 53.026 80.779 52.624Z" fill="#BABABA" />
        <path d="M81.145 42.308C82.404 42.377 83.431 42.573 83.922 43.875C84.156 44.482 84.126 45.158 83.838 45.742C83.438 46.544 83.016 46.894 82.194 47.143C81.744 47.164 80.857 47.175 80.46 46.972C79.864 46.666 79.403 46.15 79.167 45.523C78.937 44.903 78.979 44.216 79.282 43.629C79.715 42.803 80.31 42.558 81.145 42.308Z" fill="#BABABA" />
        <path d="M6.712 56.895C10.264 56.591 10.575 60.998 7.562 61.966C6.47 61.806 5.441 61.478 4.964 60.415C4.095 58.476 5.25 57.59 6.712 56.895Z" fill="#BABABA" />
        <path d="M80.796 57.974C82.106 57.555 83.507 58.28 83.922 59.591C84.336 60.903 83.606 62.301 82.293 62.711C80.986 63.118 79.597 62.393 79.184 61.088C78.772 59.783 79.493 58.391 80.796 57.974Z" fill="#BABABA" />
        <path d="M146.803 56.727C148.085 56.751 149.098 57.403 149.393 58.69C149.564 59.455 149.415 60.257 148.982 60.91C148.507 61.622 148.065 61.751 147.275 61.899C144.27 61.726 143.485 57.978 146.803 56.727Z" fill="#BABABA" />
        <path d="M80.819 63.337C82.122 62.92 83.517 63.638 83.936 64.941C84.355 66.243 83.641 67.639 82.339 68.061C81.033 68.483 79.632 67.767 79.212 66.46C78.792 65.154 79.512 63.755 80.819 63.337Z" fill="#BABABA" />
        <path d="M20.804 42.437C24.009 42.233 25.452 46.749 22.26 47.276C20.551 47.262 18.713 46.898 19.065 44.41C19.189 43.531 20.06 42.883 20.804 42.437Z" fill="#BABABA" />
        <path d="M27.362 67.511C27.816 67.559 28.253 67.714 28.637 67.962C29.862 68.765 29.726 70.344 28.905 71.399C28.222 72.279 27.665 72.257 26.649 72.364C23.487 71.472 23.797 67.714 27.362 67.511Z" fill="#BABABA" />
        <path d="M21.877 58.524C22.099 58.522 22.353 58.514 22.575 58.55C23.328 58.674 23.989 59.124 24.38 59.781C25.297 61.341 24.452 62.899 22.928 63.63C19.402 63.589 18.75 59.908 21.877 58.524Z" fill="#BABABA" />
        <path d="M2.333 60.466C5.781 60.252 6.591 63.679 3.845 65.499C0.477 65.657 -0.46 62.522 2.333 60.466Z" fill="#BABABA" />
        <path d="M160.043 60.778C160.475 60.734 161.262 60.624 161.67 60.771C162.88 61.208 164.119 62.707 163.563 64.049C163.263 64.774 162.849 65.032 162.152 65.326C161.561 65.39 160.967 65.445 160.374 65.492C158.044 64.128 158.031 62.465 160.043 60.778Z" fill="#BABABA" />
        <path d="M25.636 89.339C27.363 89.266 29.397 89.565 29.137 92.176C29.064 92.901 28.347 93.625 27.73 94.027C24.202 94.501 23.011 90.946 25.636 89.339Z" fill="#BABABA" />
        <path d="M134.521 36.347C134.867 36.373 135.349 36.406 135.679 36.485C136.333 36.649 136.888 37.074 137.219 37.66C138.088 39.225 136.98 40.599 135.571 41.271C132.548 41.975 131.404 37.585 134.521 36.347Z" fill="#BABABA" />
        <path d="M16.432 56.882C16.784 56.859 17.236 56.827 17.58 56.883C18.318 57.009 18.968 57.442 19.368 58.075C20.247 59.443 19.622 60.923 18.339 61.75C15.347 62.334 15.114 60.631 15.138 58.223C15.617 57.589 15.829 57.411 16.432 56.882Z" fill="#BABABA" />
        <path d="M156.874 57.175C158.279 57.134 159.94 57.777 159.839 59.428C159.769 60.554 158.934 61.304 158.141 61.994C157.63 62.048 157.045 62.104 156.553 61.942C155.926 61.731 155.412 61.272 155.136 60.672C154.863 60.066 154.853 59.374 155.106 58.76C155.482 57.824 156.015 57.574 156.874 57.175Z" fill="#BABABA" />
        <path d="M11.227 56.74C13.2 56.615 14.934 57.127 14.617 59.803C14.522 60.611 13.945 61.131 13.248 61.538C9.751 62.135 8.952 58.438 11.227 56.74Z" fill="#BABABA" />
        <path d="M141.919 47.673C142.297 47.654 143.356 47.573 143.682 47.661C146.075 48.311 146.218 50.975 144.122 52.055C142.82 52.167 141.662 52.324 140.784 51.149C139.825 49.865 140.842 48.436 141.919 47.673Z" fill="#BABABA" />
        <path d="M31.683 76.685C35.488 76.84 35.304 80.519 32.495 81.653C29.482 81.134 28.233 77.923 31.683 76.685Z" fill="#BABABA" />
        <path d="M140.611 43.3C139.53 43.816 138.235 43.458 137.573 42.46C136.909 41.462 137.083 40.129 137.978 39.333C138.872 38.537 140.216 38.521 141.13 39.295C142.044 40.069 142.25 41.398 141.611 42.412L141.671 42.961L141.023 43.533L140.611 43.3Z" fill="#BABABA" />
        <path d="M140.611 43.3C141.022 43.104 141.369 42.796 141.611 42.411L141.671 42.961L141.023 43.532L140.611 43.3Z" fill="#BABABA" />
        <path d="M156.752 102.446C160.119 102.481 161.094 105.535 158.071 107.073C156.742 107.32 155.564 107.123 155.061 105.7C154.804 104.969 154.868 104.163 155.238 103.482C155.621 102.774 156.035 102.656 156.752 102.446Z" fill="#BABABA" />
        <path d="M86.282 73.87C87.674 73.766 88.703 74.079 89.197 75.533C89.43 76.213 89.377 76.957 89.052 77.597C88.662 78.358 88.219 78.538 87.453 78.79C84.946 78.738 82.865 75.459 86.282 73.87Z" fill="#BABABA" />
        <path d="M6.507 102.281C9.701 102.169 10.89 105.608 7.846 107.137C4.414 107.294 3.646 103.829 6.507 102.281Z" fill="#BABABA" />
        <path d="M121.18 89.344C122.524 89.292 123.501 89.221 124.255 90.59C124.578 91.174 124.644 91.866 124.437 92.5C124.13 93.426 123.827 93.695 122.998 94.097C121.79 94.255 120.963 94.264 120.248 93.118C119.869 92.518 119.744 91.792 119.901 91.1C120.11 90.192 120.414 89.805 121.18 89.344Z" fill="#BABABA" />
        <path d="M141.671 42.961C142.903 42.404 144.56 42.246 145.057 43.791C146.848 49.342 137.914 47.475 141.023 43.533L141.671 42.961Z" fill="#BABABA" />
        <path d="M77.045 77.435C76.466 77.788 75.436 78.258 74.79 77.898C70.253 75.371 76.569 69.956 77.862 75.423L77.996 75.956C77.959 76.439 77.588 77.161 77.348 77.608L77.045 77.435Z" fill="#BABABA" />
        <path d="M77.862 75.423L77.996 75.956C77.959 76.439 77.588 77.161 77.348 77.608L77.045 77.435C77.501 76.582 77.611 76.387 77.862 75.423Z" fill="#BABABA" />
        <path d="M80.482 47.661C80.855 47.643 81.882 47.579 82.208 47.684C84.507 48.425 84.668 50.96 82.666 52.093C81.955 52.119 81.199 52.108 80.483 52.112C78.568 50.763 78.484 48.994 80.482 47.661Z" fill="#BABABA" />
        <path d="M111.679 89.334C113.648 89.248 115.22 89.901 114.838 92.493C114.735 93.183 114.11 93.774 113.482 94.102C112.3 94.252 111.529 94.303 110.764 93.25C110.313 92.627 110.155 91.838 110.329 91.088C110.552 90.09 110.848 89.837 111.679 89.334Z" fill="#BABABA" />
        <path d="M77.996 75.956C79.421 74.183 81.842 74.775 82.305 76.986C82.599 78.389 80.772 79.894 79.252 79.797C78.706 79.759 78.203 79.488 77.871 79.053C77.504 78.571 77.351 78.194 77.348 77.608C77.588 77.161 77.959 76.439 77.996 75.956Z" fill="#BABABA" />
        <path d="M116.313 89.355C117.489 89.284 118.355 89.169 119.171 90.165C119.596 90.678 119.784 91.35 119.686 92.01C119.537 92.945 119.168 93.538 118.415 94.059C114.817 94.697 114.043 91.138 116.313 89.355Z" fill="#BABABA" />
        <path d="M126.17 89.343C128.091 89.24 129.547 89.8 129.286 92.32C129.205 93.105 128.623 93.719 127.936 94.118C126.824 94.231 125.78 94.277 125.15 93.127C124.334 91.632 124.647 90.181 126.17 89.343Z" fill="#BABABA" />
        <path d="M130.942 89.35C132.863 89.227 134.428 89.734 134.126 92.314C134.036 93.076 133.496 93.712 132.84 94.126C131.661 94.251 130.818 94.274 130.068 93.209C129.662 92.638 129.508 91.926 129.642 91.239C129.848 90.132 130.066 89.925 130.942 89.35Z" fill="#BABABA" />
        <path d="M19.289 109.151C22.777 109.021 23.308 112.608 20.814 113.945C17.19 114.353 16.718 110.52 19.289 109.151Z" fill="#BABABA" />
        <path d="M31.033 89.348C31.305 89.334 32.174 89.276 32.389 89.352C34.716 90.163 34.63 93.167 32.456 94.154C29.144 94.45 28.459 90.699 31.033 89.348Z" fill="#BABABA" />
        <path d="M97.424 89.334C98.694 89.282 99.494 89.31 100.149 90.558C100.523 91.257 100.582 92.083 100.313 92.831C100.042 93.609 99.762 93.804 99.049 94.146C95.819 94.401 96.044 93.063 96.111 90.351C96.632 89.83 96.793 89.74 97.424 89.334Z" fill="#BABABA" />
        <path d="M106.809 89.355C108.037 89.272 108.933 89.255 109.652 90.401C110.004 90.955 110.122 91.625 109.979 92.265C109.765 93.206 109.527 93.63 108.73 94.102C107.638 94.254 106.742 94.288 106.002 93.341C105.576 92.79 105.398 92.086 105.508 91.399C105.691 90.232 105.91 89.989 106.809 89.355Z" fill="#BABABA" />
        <path d="M64.629 72.977C65.017 72.953 66.021 72.865 66.353 73.031C68.574 74.138 68.571 76.566 66.395 77.638C65.922 77.691 65.443 77.667 64.978 77.568C63.085 77.167 62.575 74.268 64.629 72.977Z" fill="#BABABA" />
        <path d="M59.608 72.983C61.344 72.852 63.141 73.157 63.014 75.631C62.973 76.418 62.406 77.05 61.774 77.516C59.898 77.713 58.186 77.286 58.331 74.719C58.377 73.906 58.927 73.407 59.608 72.983Z" fill="#BABABA" />
        <path d="M70.12 72.961C73.602 73.035 73.945 76.846 71.268 77.721C70.911 77.724 69.951 77.712 69.675 77.529C67.557 76.127 67.926 73.872 70.12 72.961Z" fill="#BABABA" />
        <path d="M102.208 89.353C105.981 89.111 106.029 93.035 103.869 94.124C103.585 94.145 102.739 94.222 102.51 94.139C100.103 93.262 100.186 90.568 102.208 89.353Z" fill="#BABABA" />
        <path d="M35.163 73.309C35.98 72.989 36.907 73.145 37.573 73.716C38.24 74.285 38.539 75.176 38.351 76.032C38.163 76.889 37.518 77.572 36.674 77.81C35.454 78.153 34.18 77.478 33.777 76.279C33.374 75.077 33.984 73.77 35.163 73.309Z" fill="#BABABA" />
        <path d="M45.372 89.334C48.958 89.181 49.113 92.93 46.91 94.158C44.314 94.325 43.331 92.929 44.083 90.398C44.273 89.76 44.795 89.598 45.372 89.334Z" fill="#BABABA" />
        <path d="M91.033 72.98C93.064 72.833 94.649 73.669 94.082 76.215C93.929 76.902 93.355 77.276 92.714 77.551C89.162 77.839 88.43 74.381 91.033 72.98Z" fill="#BABABA" />
        <path d="M92.669 89.341C94.853 89.242 96.074 90.294 95.526 92.753C95.373 93.444 94.926 93.84 94.285 94.145C92.185 94.352 90.907 93.369 91.278 91.013C91.425 90.077 91.856 89.807 92.669 89.341Z" fill="#BABABA" />
        <path d="M10.106 109.161C11.336 109.134 12.174 109.366 12.657 110.629C12.93 111.359 12.878 112.172 12.515 112.863C12.124 113.614 11.678 113.78 10.919 114.036C7.562 113.832 7.474 109.808 10.106 109.161Z" fill="#BABABA" />
        <path d="M35.82 89.344C39.545 89.123 39.522 93.134 37.44 94.145C35.314 94.303 33.989 93.407 34.43 90.937C34.588 90.049 35.057 89.778 35.82 89.344Z" fill="#BABABA" />
        <path d="M54.837 72.962C56.607 72.877 56.987 72.938 57.959 74.424C58.009 75.948 58.158 76.776 56.672 77.513C53.203 78.188 52.27 74.446 54.837 72.962Z" fill="#BABABA" />
        <path d="M69.189 89.34C72.746 89.136 72.927 93.043 70.723 94.158C69.512 94.277 68.446 94.203 67.934 92.962C67.28 91.375 67.682 90.078 69.189 89.34Z" fill="#BABABA" />
        <path d="M54.876 89.343C58.546 89.126 58.638 92.984 56.425 94.151C54.056 94.35 52.93 93.043 53.593 90.528C53.776 89.834 54.244 89.642 54.876 89.343Z" fill="#BABABA" />
        <path d="M14.677 109.165C17.956 109.124 18.49 112.683 15.707 113.996C12.411 114.17 11.884 110.024 14.677 109.165Z" fill="#BABABA" />
        <path d="M124.873 72.97C127.009 72.805 128.387 73.657 127.777 76.221C127.604 76.942 127.052 77.313 126.378 77.612C124.029 77.721 122.788 76.331 123.642 73.827C123.827 73.284 124.339 73.153 124.873 72.97Z" fill="#BABABA" />
        <path d="M50.145 89.333C53.705 89.227 53.921 92.953 51.628 94.136C50.462 94.28 49.371 94.225 48.886 93.018C48.218 91.354 48.657 90.121 50.145 89.333Z" fill="#BABABA" />
        <path d="M87.863 89.331C89.029 89.282 89.951 89.288 90.566 90.43C91.318 91.829 90.926 93.398 89.517 94.145C86.053 94.499 85.45 90.82 87.863 89.331Z" fill="#BABABA" />
        <path d="M73.946 89.339C77.446 89.17 77.713 92.906 75.474 94.157C73.126 94.318 71.926 93.054 72.615 90.52C72.809 89.806 73.287 89.632 73.946 89.339Z" fill="#BABABA" />
        <path d="M83.132 89.353C86.843 89.106 87.014 92.932 84.835 94.138C81.37 94.516 80.721 90.766 83.132 89.353Z" fill="#BABABA" />
        <path d="M45.196 72.971C45.437 72.959 45.678 72.953 45.919 72.953C47.015 72.965 47.449 73.451 48.164 74.204C48.218 76.066 48.556 76.78 46.668 77.623C43.228 77.97 42.685 74.147 45.196 72.971Z" fill="#BABABA" />
        <path d="M129.949 72.953C133.349 73.061 133.945 76.554 131.05 77.7C127.802 77.693 127.042 74.162 129.949 72.953Z" fill="#BABABA" />
        <path d="M59.632 89.349C60.888 89.275 61.799 89.328 62.357 90.61C62.972 92.022 62.582 93.447 61.205 94.129C60.922 94.151 59.978 94.193 59.765 94.097C57.489 93.081 57.633 90.503 59.632 89.349Z" fill="#BABABA" />
        <path d="M64.384 89.336C68.067 89.133 68.114 92.993 65.991 94.158C63.892 94.304 62.61 93.337 63.004 90.954C63.151 90.064 63.612 89.784 64.384 89.336Z" fill="#BABABA" />
        <path d="M40.281 72.974C43.776 72.754 44.468 76.286 41.739 77.641C38.446 77.989 37.651 74.522 40.281 72.974Z" fill="#BABABA" />
        <path d="M143.6 109.271C144.832 109.207 145.67 109.313 146.353 110.475C146.69 111.062 146.775 111.761 146.586 112.412C146.306 113.348 145.938 113.597 145.121 114.021C144.005 114.095 143.253 114.068 142.555 113.071C142.142 112.483 142.009 111.743 142.186 111.048C142.437 110.038 142.762 109.783 143.6 109.271Z" fill="#BABABA" />
        <path d="M153.16 109.116C154.262 109.094 155.042 109.211 155.634 110.25C155.99 110.861 156.079 111.59 155.881 112.267C155.633 113.147 155.313 113.522 154.542 113.94C154.257 113.976 153.465 114.089 153.235 113.988C150.849 112.953 150.95 110.252 153.16 109.116Z" fill="#BABABA" />
        <path d="M40.56 89.333C41.695 89.278 42.528 89.346 43.176 90.401C43.546 90.997 43.652 91.72 43.469 92.397C43.204 93.401 42.89 93.676 42.034 94.151C40.987 94.27 39.986 94.21 39.484 93.167C38.705 91.549 39.055 90.193 40.56 89.333Z" fill="#BABABA" />
        <path d="M151.405 102.626C153.117 102.671 155.069 103.058 154.536 105.602C154.372 106.388 153.733 106.84 153.009 107.162C152.586 107.19 151.782 107.263 151.399 107.08C149.482 106.166 149.28 103.418 151.405 102.626Z" fill="#BABABA" />
        <path d="M56.115 102.744C57.37 102.678 58.606 102.495 59.37 103.741C60.117 104.962 59.491 106.432 58.336 107.12C56.536 107.327 54.837 107.022 54.993 104.488C55.039 103.728 55.471 103.158 56.115 102.744Z" fill="#BABABA" />
        <path d="M41.106 102.745C42.357 102.638 43.441 102.494 44.297 103.609C45.231 104.825 44.597 106.205 43.498 107.022C39.801 107.846 38.985 104.026 41.106 102.745Z" fill="#BABABA" />
        <path d="M36.066 102.745C36.403 102.728 37.59 102.631 37.837 102.711C40.288 103.508 40.117 105.816 38.414 107.035C34.731 107.83 33.924 104.054 36.066 102.745Z" fill="#BABABA" />
        <path d="M95.925 72.976C97.857 72.842 99.414 73.404 99.037 75.957C98.921 76.743 98.323 77.218 97.622 77.575C94.25 77.794 93.469 74.476 95.925 72.976Z" fill="#BABABA" />
        <path d="M16.437 102.6C17.761 102.577 18.836 102.601 19.459 103.962C20.117 105.398 19.215 106.513 17.996 107.108C16.585 107.226 15.662 107.059 15.099 105.591C14.846 104.95 14.878 104.231 15.188 103.616C15.502 102.994 15.82 102.809 16.437 102.6Z" fill="#BABABA" />
        <path d="M110.194 72.968C111.943 72.852 113.626 73.211 113.48 75.63C113.434 76.392 112.885 77.069 112.258 77.513C110.264 77.693 108.629 77.078 108.991 74.454C109.088 73.754 109.583 73.323 110.194 72.968Z" fill="#BABABA" />
        <path d="M78.541 89.339C82.069 89.139 82.427 92.844 80.06 94.176C76.659 94.457 76.233 90.854 78.541 89.339Z" fill="#BABABA" />
        <path d="M49.957 72.976C50.416 72.949 51.222 72.859 51.632 73.063C53.494 73.992 53.793 76.68 51.702 77.533C48.376 78.184 47.552 74.436 49.957 72.976Z" fill="#BABABA" />
        <path d="M25.962 102.757C26.362 102.714 27.388 102.609 27.742 102.684C30.015 103.171 30.147 105.83 28.334 106.986C25.072 107.849 23.644 104.48 25.962 102.757Z" fill="#BABABA" />
        <path d="M100.648 72.965C101.739 72.913 102.541 72.8 103.335 73.689C104.457 74.945 103.985 76.548 102.702 77.495C100.669 77.709 99.106 77.114 99.453 74.449C99.543 73.757 100.048 73.327 100.648 72.965Z" fill="#BABABA" />
        <path d="M11.558 102.601C15.059 102.466 15.582 105.88 13.082 107.159C9.553 107.366 8.85 103.872 11.558 102.601Z" fill="#BABABA" />
        <path d="M30.999 102.76C32.274 102.638 33.361 102.479 34.205 103.644C35.069 104.838 34.509 106.239 33.397 107.014C30.126 107.836 28.766 104.527 30.999 102.76Z" fill="#BABABA" />
        <path d="M46.141 102.738C47.419 102.677 48.656 102.51 49.443 103.793C49.738 104.267 49.818 104.843 49.663 105.379C49.383 106.364 49.115 106.633 48.271 107.101C45 107.641 44.002 104.149 46.141 102.738Z" fill="#BABABA" />
        <path d="M119.909 72.982C121.171 72.894 122.036 72.781 122.758 74.024C123.084 74.585 123.172 75.253 123.003 75.878C122.746 76.856 122.468 77.185 121.63 77.66C120.544 77.606 119.714 77.654 119.066 76.624C118.17 75.201 118.505 73.826 119.909 72.982Z" fill="#BABABA" />
        <path d="M146.202 102.744C146.525 102.719 147.772 102.625 148.061 102.707C150.162 103.307 150.191 106.062 148.467 107.104C144.923 107.617 144.072 104.231 146.202 102.744Z" fill="#BABABA" />
        <path d="M105.597 72.986C106.834 72.892 107.651 72.825 108.388 73.988C108.719 74.498 108.829 75.121 108.695 75.714C108.483 76.63 108.221 77.069 107.45 77.542C106.166 77.655 105.188 77.654 104.543 76.372C103.9 75.094 104.237 73.574 105.597 72.986Z" fill="#BABABA" />
        <path d="M70.71 102.744C72.183 102.673 74.157 102.609 74.137 105.015C74.13 105.788 73.591 106.647 72.951 107.117C71.157 107.346 69.447 106.962 69.53 104.505C69.554 103.795 70.125 103.153 70.71 102.744Z" fill="#BABABA" />
        <path d="M51.243 102.734C52.599 102.68 54.693 102.607 54.743 104.859C54.76 105.621 54.123 106.598 53.515 107.09C49.779 107.696 49.112 104.143 51.243 102.734Z" fill="#BABABA" />
        <path d="M148.695 109.118C151.913 109.4 152.24 112.985 149.506 114.036C146.553 114.098 145.838 110.38 148.695 109.118Z" fill="#BABABA" />
        <path d="M115.126 72.971C116.896 72.859 118.449 73.299 118.257 75.713C118.191 76.527 117.672 77.118 116.972 77.545C115.634 77.629 114.714 77.59 114.067 76.246C113.444 74.954 113.822 73.59 115.126 72.971Z" fill="#BABABA" />
        <path d="M65.659 102.762C66.868 102.692 67.746 102.486 68.718 103.391C69.866 104.462 69.2 106.115 68.203 107.035C64.799 107.966 63.701 104.493 65.659 102.762Z" fill="#BABABA" />
        <path d="M94.587 102.751C94.974 102.732 95.362 102.719 95.749 102.711C98.376 102.671 98.756 105.521 96.837 107.107C93.407 107.638 92.385 104.453 94.587 102.751Z" fill="#BABABA" />
        <path d="M20.904 102.748C22.173 102.617 23.407 102.439 24.18 103.671C24.893 104.807 24.41 106.255 23.345 106.961C20.077 107.812 18.875 104.706 20.904 102.748Z" fill="#BABABA" />
        <path d="M127.56 102.754C127.977 102.734 128.621 102.662 129.014 102.705C131.531 102.982 131.458 105.876 129.828 107.096C128.642 107.265 127.642 107.376 126.905 106.261C126.126 105.082 126.335 103.521 127.56 102.754Z" fill="#BABABA" />
        <path d="M148.463 114.976C151.895 114.46 152.523 117.864 150.115 119.509C146.891 119.911 146.096 116.344 148.463 114.976Z" fill="#BABABA" />
        <path d="M9.564 114.805C10.601 114.755 11.416 114.6 12.175 115.474C13.317 116.789 12.642 118.333 11.498 119.363C10.544 119.601 9.658 119.527 8.98 118.741C8.519 118.202 8.308 117.493 8.4 116.789C8.518 115.808 8.831 115.386 9.564 114.805Z" fill="#BABABA" />
        <path d="M118.224 102.745C119.812 102.646 121.805 102.719 121.573 105.207C121.499 105.999 120.996 106.656 120.318 107.087C116.63 107.711 116.261 103.823 118.224 102.745Z" fill="#BABABA" />
        <path d="M61.042 102.745C62.154 102.678 63.247 102.486 63.999 103.476C64.91 104.674 64.305 106.301 63.184 107.107C61.204 107.4 59.768 106.72 59.98 104.31C60.044 103.576 60.421 103.132 61.042 102.745Z" fill="#BABABA" />
        <path d="M75.635 102.738C76.746 102.698 77.611 102.494 78.403 103.45C79.405 104.658 78.816 106.218 77.721 107.137C76.507 107.25 75.514 107.354 74.787 106.193C74.017 104.962 74.38 103.453 75.635 102.738Z" fill="#BABABA" />
        <path d="M99.316 102.747C99.628 102.731 100.694 102.65 100.954 102.717C103.125 103.269 103.177 105.978 101.489 107.083C100.325 107.281 99.381 107.369 98.637 106.313C97.762 105.076 98.128 103.6 99.316 102.747Z" fill="#BABABA" />
        <path d="M141.392 102.741C142.695 102.672 144.84 102.477 144.872 104.768C144.884 105.694 144.387 106.538 143.68 107.15C142.598 107.215 141.864 107.395 141.059 106.487C139.987 105.277 140.188 103.77 141.392 102.741Z" fill="#BABABA" />
        <path d="M113.422 102.757C114.613 102.692 115.716 102.464 116.488 103.61C116.788 104.054 116.895 104.6 116.786 105.124C116.585 106.151 116.387 106.557 115.569 107.093C111.974 107.702 111.506 103.939 113.422 102.757Z" fill="#BABABA" />
        <path d="M89.921 102.742C91.032 102.686 92.161 102.485 92.879 103.54C93.683 104.721 93.126 106.275 92.081 107.086C88.434 107.675 87.875 104.037 89.921 102.742Z" fill="#BABABA" />
        <path d="M85.18 102.743C86.298 102.693 87.351 102.488 88.1 103.518C88.986 104.734 88.412 106.282 87.286 107.104C83.666 107.681 83.172 103.972 85.18 102.743Z" fill="#BABABA" />
        <path d="M108.681 102.747C110.383 102.655 112.321 102.675 111.966 105.355C111.861 106.16 111.62 106.665 110.929 107.126C109.302 107.306 107.583 107.004 107.577 104.755C107.574 103.948 108.058 103.259 108.681 102.747Z" fill="#BABABA" />
        <path d="M104.077 102.747C105.283 102.673 106.283 102.504 107.005 103.661C107.755 104.865 107.217 106.388 106.063 107.104C102.635 107.643 101.865 104.177 104.077 102.747Z" fill="#BABABA" />
        <path d="M132.171 102.747C133.334 102.677 134.474 102.437 135.248 103.531C135.557 103.972 135.672 104.52 135.563 105.048C135.337 106.163 135.191 106.534 134.315 107.128C132.615 107.279 131.281 107.02 131.155 104.744C131.11 103.966 131.582 103.262 132.171 102.747Z" fill="#BABABA" />
        <path d="M80.378 102.738C80.751 102.72 81.4 102.665 81.738 102.714C84.231 103.073 84.218 105.846 82.555 107.099C82.223 107.148 81.347 107.26 81.047 107.171C78.959 106.556 78.579 103.915 80.378 102.738Z" fill="#BABABA" />
        <path d="M122.956 102.75C123.294 102.728 124.307 102.655 124.563 102.726C126.941 103.38 126.72 105.84 125.119 107.058C121.472 107.73 121.01 103.981 122.956 102.75Z" fill="#BABABA" />
        <path d="M136.986 102.736C138.14 102.687 139.055 102.476 139.837 103.513C140.187 103.972 140.327 104.555 140.221 105.123C140.021 106.185 139.859 106.535 139.018 107.11C136.709 107.375 135.44 106.49 136.004 103.801C136.136 103.17 136.43 103.03 136.986 102.736Z" fill="#BABABA" />
        <path d="M153.074 114.795C155.071 114.683 156.377 115.335 155.982 117.775C155.844 118.632 155.229 119.076 154.486 119.473C151.66 119.826 150.884 116.423 153.074 114.795Z" fill="#BABABA" />
        <path d="M14.543 114.792C15.49 114.752 16.398 114.88 16.983 115.71C17.367 116.255 17.495 116.941 17.332 117.589C17.082 118.628 16.631 118.973 15.768 119.469C15.492 119.5 15.213 119.494 14.939 119.449C12.595 119.073 12.365 116.109 14.543 114.792Z" fill="#BABABA" />
        <path d="M19.246 114.777C22.331 114.673 22.74 118.062 20.348 119.488C17.751 119.64 17.763 118.263 17.821 116.139C18.392 115.417 18.459 115.262 19.246 114.777Z" fill="#BABABA" />
        <path d="M144.013 114.944C144.974 114.89 145.713 114.83 146.361 115.662C146.773 116.194 146.937 116.877 146.81 117.536C146.62 118.572 146.374 118.904 145.576 119.488C142.278 119.744 141.848 116.219 144.013 114.944Z" fill="#BABABA" />
        <path d="M191.272 106.916C191.123 106.319 191.001 105.715 190.908 105.106C190.544 102.549 190.852 99.435 190.903 96.845C190.929 95.468 190.544 93.686 191.346 92.606L191.367 102.143C191.368 103.045 191.419 106.142 191.272 106.916Z" fill="#BABABA" />
        <path d="M186.955 46.089C188.074 46.152 188.871 46.829 189.031 47.952C189.151 48.834 188.899 49.726 188.338 50.417C187.731 51.148 187.169 51.159 186.293 51.223C183.438 50.646 183.274 48.215 185.096 46.268C185.685 46.177 186.354 46.139 186.955 46.089Z" fill="#BABABA" />
        <path d="M185.7 40.532C189.64 40.239 190.056 44.508 187.451 45.591C186.056 45.646 184.901 45.586 184.169 44.236C183.283 42.603 184.255 41.245 185.7 40.532Z" fill="#BABABA" />
        <path d="M185.237 93.822C185.55 93.8 186.753 93.686 186.983 93.754C189.81 94.574 189.78 97.14 187.634 98.608C183.801 99.338 182.668 95.441 185.237 93.822Z" fill="#BABABA" />
        <path d="M199.595 30.254C202.79 30.288 203.25 34.613 200.116 35.34C197.668 35.335 196.28 33.903 197.52 31.299C197.857 30.592 198.86 30.398 199.595 30.254Z" fill="#BABABA" />
        <path d="M203.212 14.644C203.654 14.612 204.363 14.649 204.728 14.925C205.953 15.854 206.008 17.875 205.074 19.022C204.595 19.611 204.105 19.617 203.425 19.692C202.746 19.705 202.297 19.738 201.706 19.352C201.137 18.982 200.752 18.389 200.645 17.72C200.521 16.943 200.74 16.15 201.245 15.546C201.874 14.776 202.254 14.764 203.212 14.644Z" fill="#BABABA" />
        <path d="M185.522 88.443C187.379 88.388 189.398 88.916 189.073 91.561C188.984 92.292 188.196 92.959 187.558 93.325C185.706 93.425 183.718 93.133 183.895 90.406C183.951 89.55 184.809 88.882 185.522 88.443Z" fill="#BABABA" />
        <path d="M186.102 56.905C189.646 56.632 190.142 60.981 187.153 61.842C185.017 61.852 183.185 60.715 184.152 58.13C184.423 57.405 185.385 57.102 186.102 56.905Z" fill="#BABABA" />
        <path d="M185.52 72.687C186.202 72.651 186.974 72.663 187.665 72.657C189.374 74.025 189.777 76.713 187.473 77.457C186.159 77.644 185.193 77.67 184.332 76.494C183.936 75.953 183.796 75.265 183.947 74.612C184.173 73.631 184.71 73.177 185.52 72.687Z" fill="#BABABA" />
        <path d="M187.668 30.401C191.499 29.935 192.279 34.247 189.241 35.297C188.936 35.309 187.876 35.365 187.652 35.26C185.321 34.17 185.243 31.386 187.668 30.401Z" fill="#BABABA" />
        <path d="M185.202 83.403C185.614 83.367 186.766 83.24 187.146 83.34C189.554 83.973 189.932 86.851 187.763 88.054C187.305 88.078 186.498 88.148 186.077 88.045C183.537 87.424 182.92 84.787 185.202 83.403Z" fill="#BABABA" />
        <path d="M185.53 62.259C187.5 62.15 189.548 62.752 189 65.526C188.851 66.279 188.061 66.797 187.358 67.09C186.096 67.187 185.179 67.205 184.344 66.063C183.948 65.527 183.802 64.848 183.944 64.197C184.16 63.206 184.718 62.748 185.53 62.259Z" fill="#BABABA" />
        <path d="M185.535 78.031C185.919 78.017 187.007 77.947 187.339 78.053C189.582 78.772 189.75 81.963 187.475 82.766C185.578 82.852 183.28 82.355 183.978 79.503C184.145 78.823 184.898 78.324 185.535 78.031Z" fill="#BABABA" />
        <path d="M186.177 51.57C189.752 51.52 189.922 55.538 187.073 56.435C186.47 56.472 185.596 56.586 185.112 56.212C182.996 54.576 183.554 52.038 186.177 51.57Z" fill="#BABABA" />
        <path d="M193.665 30.25C195.972 30.398 197.288 31.848 196.259 34.326C195.995 34.967 195.378 35.131 194.722 35.292C193.364 35.38 192.3 35.258 191.748 33.803C191.496 33.124 191.532 32.371 191.843 31.717C192.275 30.796 192.767 30.574 193.665 30.25Z" fill="#BABABA" />
        <path d="M204.235 25.205C204.57 25.18 205.606 25.099 205.838 25.255C207.849 26.606 207.743 29.421 205.257 30.089C201.392 30.27 201.042 25.931 204.235 25.205Z" fill="#BABABA" />
        <path d="M182.534 30.405C186.163 30.254 186.409 34.234 183.728 35.328C183.322 35.33 182.109 35.353 181.824 35.145C179.505 33.456 179.932 31.192 182.534 30.405Z" fill="#BABABA" />
        <path d="M205.621 30.444C208.376 30.054 208.903 34.448 205.326 35.334C204.737 35.251 203.983 35.151 203.523 34.753C203.019 34.311 202.714 33.686 202.674 33.017C202.644 32.324 202.897 31.649 203.373 31.146C204.022 30.45 204.713 30.507 205.621 30.444Z" fill="#BABABA" />
        <path d="M202.234 9.253C205.359 9.743 205.822 14.006 202.27 14.356C199.146 14.357 198.425 10.26 202.234 9.253Z" fill="#BABABA" />
        <path d="M185.078 99.178C185.492 99.157 185.907 99.14 186.321 99.131C189.194 99.096 190.054 101.83 187.734 103.828C186.379 103.985 185.248 104.02 184.346 102.848C183.307 101.501 183.936 100.12 185.078 99.178Z" fill="#BABABA" />
        <path d="M171.625 30.401C172.141 30.386 172.738 30.34 173.219 30.53C173.856 30.787 174.364 31.286 174.629 31.918C174.909 32.57 174.895 33.31 174.591 33.951C174.233 34.728 173.84 34.975 173.084 35.28C171.763 35.335 170.751 35.42 170.049 34.022C169.746 33.416 169.7 32.716 169.919 32.075C170.264 31.035 170.684 30.856 171.625 30.401Z" fill="#BABABA" />
        <path d="M201.252 4.199C202.178 4.217 202.473 4.556 203.148 5.195C204.141 7.848 203.509 8.719 200.933 9.227C198.126 9.101 197.272 4.994 201.252 4.199Z" fill="#BABABA" />
        <path d="M185.498 67.617C185.825 67.595 187.029 67.498 187.268 67.58C189.843 68.461 189.755 71.073 187.461 72.164C183.851 72.764 182.606 69.295 185.498 67.617Z" fill="#BABABA" />
        <path d="M203.635 19.993C205.932 19.888 207.129 21.499 206.219 23.81C206.023 24.311 205.316 24.606 204.795 24.728C202.648 24.887 200.744 23.92 201.715 21.231C201.953 20.567 202.961 20.169 203.635 19.993Z" fill="#BABABA" />
        <path d="M185.252 104.383C185.79 104.357 186.718 104.276 187.211 104.418C188.302 104.734 189.384 105.87 189.036 107.071C188.81 107.841 188.299 108.495 187.608 108.903C187.189 108.939 186.641 108.993 186.227 108.984C185.462 108.964 184.742 108.62 184.247 108.037C183.115 106.699 184.093 105.255 185.252 104.383Z" fill="#BABABA" />
        <path d="M176.945 30.389C180.401 30.27 181.385 33.872 178.442 35.284C178.146 35.295 177.008 35.355 176.801 35.243C174.489 34 174.611 31.407 176.945 30.389Z" fill="#BABABA" />
        <path d="M168.925 14.608C170.917 14.835 172.369 15.818 171.613 18.267C171.394 18.976 170.674 19.427 169.977 19.674C169.933 19.675 169.886 19.675 169.84 19.675L169.613 19.672C168.383 19.664 167.514 19.39 167.064 18.102C166.841 17.458 166.884 16.752 167.183 16.14C167.603 15.293 168.066 14.913 168.925 14.608Z" fill="#BABABA" />
        <path d="M186.318 109.289C187.695 109.137 188.933 110.133 189.076 111.511C189.221 112.89 188.214 114.12 186.836 114.254C185.471 114.387 184.253 113.393 184.112 112.029C183.969 110.664 184.955 109.441 186.318 109.289Z" fill="#BABABA" />
        <path d="M169.66 9.396C173.378 9.215 173.974 12.858 171.132 14.381C168.883 14.378 168.419 13.96 167.965 11.874C168.289 10.457 168.368 10.102 169.66 9.396Z" fill="#BABABA" />
        <path d="M166.756 25.295C168.057 24.845 169.477 25.54 169.919 26.844C170.363 28.148 169.66 29.563 168.353 29.998C167.057 30.429 165.656 29.733 165.217 28.44C164.778 27.147 165.466 25.742 166.756 25.295Z" fill="#BABABA" />
        <path d="M185.077 35.462C185.535 35.43 186.415 35.341 186.821 35.482C189.335 36.358 189.31 38.813 187.108 39.979C183.411 40.539 182.293 36.873 185.077 35.462Z" fill="#BABABA" />
        <path d="M201.722 111.335C204.291 111.33 206.003 115.53 202.16 116.576C200.393 116.556 200.052 115.765 199.379 114.338C200.011 112.738 200.222 112.208 201.722 111.335Z" fill="#BABABA" />
        <path d="M192.308 108.411C195.877 108.628 195.798 112.366 193.05 113.39C193.004 113.384 192.96 113.379 192.914 113.375L192.686 113.344C189.712 112.968 188.828 109.402 192.308 108.411Z" fill="#BABABA" />
        <path d="M174.749 108.982C177.886 109.005 178.575 113.159 175.294 114.071C173.38 113.841 173.099 113.198 172.536 111.507L172.579 111.377C173.064 109.926 173.285 109.496 174.749 108.982Z" fill="#BABABA" />
        <path d="M166.153 30.398C166.567 30.395 167.511 30.371 167.85 30.535C170.077 31.604 170.08 34.309 167.7 35.153C166.545 35.194 165.754 35.117 165.013 34.106C164.625 33.584 164.474 32.923 164.599 32.284C164.796 31.313 165.366 30.885 166.153 30.398Z" fill="#BABABA" />
        <path d="M197.377 0.158C200.657 0.378 201.783 2.921 198.747 4.928C197.566 5.326 196.438 4.959 195.902 3.79C195.581 3.074 195.557 2.26 195.838 1.527C196.17 0.675 196.578 0.496 197.377 0.158Z" fill="#BABABA" />
        <path d="M170.631 4.485C173.542 4.289 175.674 7.229 172.509 9.196C168.934 9.395 167.829 6.189 170.631 4.485Z" fill="#BABABA" />
        <path d="M167.808 19.998C169.202 20.12 170.062 20.218 170.698 21.631C171.366 23.117 170.43 24.285 169.102 24.836C168.641 24.837 167.719 24.872 167.332 24.654C165.369 23.55 165.829 20.771 167.808 19.998Z" fill="#BABABA" />
        <path d="M197.787 109.015C198.762 109.113 199.595 109.409 200.008 110.365C200.277 111.005 200.267 111.727 199.981 112.36C199.594 113.233 199.122 113.628 198.259 113.933C194.637 113.96 194.521 109.404 197.787 109.015Z" fill="#BABABA" />
        <path d="M170.263 111.353C173.1 111.431 173.85 115.075 170.791 116.505C167.414 116.115 167.279 112.787 170.263 111.353Z" fill="#BABABA" />
        <path d="M191.921 0.044C193.583 -0.113 195.39 0.112 195.357 2.521C195.347 3.341 194.659 4.058 193.996 4.524C192.757 4.674 191.837 4.709 191.033 3.582C190.691 3.11 190.553 2.519 190.649 1.944C190.822 0.97 191.158 0.589 191.921 0.044Z" fill="#BABABA" />
        <path d="M186.989 0.037C188.665 -0.053 190.676 0.243 190.332 2.805C190.236 3.521 189.566 4.146 188.927 4.501C187.775 4.703 186.794 4.628 186.056 3.618C185.653 3.073 185.51 2.378 185.665 1.718C185.871 0.804 186.239 0.496 186.989 0.037Z" fill="#BABABA" />
        <path d="M174.221 114.644C177.802 114.29 177.987 118.223 175.572 119.452C172.396 119.351 171.336 116.248 174.221 114.644Z" fill="#BABABA" />
        <path d="M197.558 114.633C198.623 114.802 199.234 114.985 199.766 116.008C200.081 116.62 200.11 117.339 199.851 117.976C199.484 118.888 198.958 119.117 198.111 119.463C195.847 119.586 194.963 118.211 195.768 115.992C196.053 115.209 196.807 114.911 197.558 114.633Z" fill="#BABABA" />
        <path d="M182.143 0.052C182.446 0.031 183.384 -0.05 183.64 0.046C185.949 0.917 186.047 3.479 183.871 4.532C182.659 4.718 181.722 4.522 181.071 3.366C180.732 2.751 180.66 2.022 180.875 1.353C181.104 0.615 181.497 0.415 182.143 0.052Z" fill="#BABABA" />
        <path d="M179.336 108.692C182.659 108.555 183.27 112.013 180.474 113.431C177.572 113.571 176.439 110.364 179.336 108.692Z" fill="#BABABA" />
        <path d="M192.255 115.085C195.459 114.813 196.063 118.388 193.836 119.814C192.001 119.918 190.551 119.503 190.788 117.032C190.874 116.117 191.481 115.557 192.255 115.085Z" fill="#BABABA" />
        <path d="M179.335 115.078C180.523 115.061 181.19 115.292 181.622 116.493C181.907 117.3 181.841 118.191 181.437 118.946C181.09 119.603 180.773 119.714 180.096 119.935C176.784 119.738 176.491 116.289 179.335 115.078Z" fill="#BABABA" />
        <path d="M177.463 0.053C178.642 -0.036 179.575 -0.063 180.287 1.072C180.601 1.581 180.697 2.194 180.554 2.775C180.31 3.811 179.913 4.087 179.067 4.628C176.007 4.908 174.983 1.498 177.463 0.053Z" fill="#BABABA" />
        <path d="M187.933 115.087C191.279 115.285 191.285 119.19 189.087 119.914C188.784 119.908 187.8 119.911 187.567 119.771C185.455 118.494 185.859 116.036 187.933 115.087Z" fill="#BABABA" />
        <path d="M183.798 115.081C186.793 115.491 186.916 119.266 184.404 120C181.34 119.769 181.229 116.021 183.798 115.081Z" fill="#BABABA" />
        <path d="M174.213 0.602C176.519 0.681 176.598 3.119 175.431 4.576C175.007 5.106 174.394 5.106 173.762 5.133C170.428 3.558 171.524 1.85 174.213 0.602Z" fill="#BABABA" />
        <path d="M191.556 41.429C194.049 42.348 195.631 43.713 193.842 46.343C193.159 46.821 192.55 47.192 191.824 46.675C191.226 45.561 191.514 42.858 191.556 41.429Z" fill="#BABABA" />
        <path d="M192.154 37.096C192.26 37.091 192.367 37.087 192.473 37.085C195.072 37.034 195.514 39.818 193.769 41.307C191.77 41.849 191.215 40.854 191.297 38.846C191.33 38.035 191.508 37.605 192.154 37.096Z" fill="#BABABA" />
      </g>
    </svg>